{"glyphs":{"0":{"ha":708,"x_min":43,"x_max":665,"o":"m 665 435 q 581 90 665 196 q 351 -15 496 -15 q 127 92 211 -15 q 43 435 43 199 q 133 774 43 668 q 364 881 222 881 q 589 778 513 881 q 665 435 665 676 m 356 135 q 481 203 431 135 q 532 442 532 272 q 356 733 532 733 q 230 667 281 733 q 179 432 179 601 q 230 201 179 268 q 356 135 281 135 z "},"1":{"ha":708,"x_min":86,"x_max":678,"o":"m 678 68 l 678 0 l 86 0 l 86 68 l 311 107 l 311 733 l 93 733 l 93 800 l 486 860 l 486 106 l 678 68 z "},"2":{"ha":708,"x_min":8,"x_max":650,"o":"m 8 97 l 311 407 q 388 514 358 453 q 418 629 418 575 q 381 721 418 686 q 264 756 343 756 q 199 747 229 756 q 115 719 169 739 q 79 706 99 713 l 38 797 q 179 853 108 832 q 329 874 250 874 q 540 821 463 874 q 618 649 618 768 q 574 490 618 563 q 431 324 529 418 l 186 104 l 513 122 l 568 233 l 650 233 l 631 0 l 42 0 l 8 97 z "},"3":{"ha":708,"x_min":35,"x_max":624,"o":"m 336 874 q 515 825 446 874 q 583 683 583 776 q 542 555 583 611 q 431 464 500 499 q 572 385 521 444 q 624 243 624 326 q 542 49 624 114 q 299 -17 460 -17 q 35 35 172 -17 l 63 131 q 265 86 194 86 q 387 126 338 86 q 436 243 436 165 q 371 372 436 340 q 200 404 306 404 l 194 483 q 401 657 401 507 q 374 736 401 710 q 288 763 347 763 q 195 751 251 763 q 82 713 139 739 l 42 797 q 178 852 94 831 q 336 874 261 874 z "},"4":{"ha":708,"x_min":-14,"x_max":672,"o":"m 389 0 l 389 188 l 10 188 l -14 256 l 418 865 l 560 851 l 560 285 l 672 285 l 672 188 l 560 188 l 560 0 l 389 0 m 150 285 l 389 285 l 389 631 l 150 285 z "},"5":{"ha":708,"x_min":47,"x_max":642,"o":"m 599 742 l 247 742 l 232 536 q 495 491 406 531 q 613 392 585 451 q 642 253 642 333 q 558 55 642 128 q 315 -18 475 -18 q 47 33 186 -18 l 79 135 q 197 97 156 107 q 275 88 239 88 q 405 130 356 88 q 454 247 454 172 q 376 393 454 351 q 133 435 299 435 l 92 476 l 129 853 l 599 853 l 599 742 z "},"6":{"ha":708,"x_min":43,"x_max":663,"o":"m 225 463 q 411 536 296 536 q 598 465 533 536 q 663 276 663 393 q 634 140 663 207 q 534 27 606 74 q 342 -19 463 -19 q 105 83 167 -19 q 43 339 43 186 q 106 638 43 517 q 267 816 168 758 q 472 874 365 874 q 542 871 518 874 q 604 858 567 868 l 593 775 q 542 783 564 781 q 492 785 521 785 q 309 699 379 783 q 225 463 239 615 m 224 332 q 251 147 224 214 q 353 79 278 79 q 451 126 418 79 q 485 251 485 174 q 460 383 485 335 q 371 432 435 432 q 224 332 282 432 z "},"7":{"ha":708,"x_min":50,"x_max":671,"o":"m 60 622 l 50 853 l 647 853 l 671 774 l 349 -18 l 171 3 l 532 732 l 188 732 l 160 622 l 60 622 z "},"8":{"ha":708,"x_min":65,"x_max":644,"o":"m 339 -15 q 126 37 186 -15 q 65 190 65 89 q 225 431 65 329 q 123 526 157 472 q 89 657 89 579 q 159 813 89 751 q 368 874 229 874 q 573 822 517 874 q 629 685 629 771 q 592 568 629 626 q 468 467 556 510 q 564 406 528 435 q 622 336 600 378 q 644 235 644 294 q 567 52 644 119 q 339 -15 489 -15 m 372 513 q 450 581 425 544 q 475 663 475 618 q 449 756 475 726 q 368 786 422 786 q 253 669 253 786 q 284 583 253 624 q 372 513 315 543 m 342 72 q 440 106 403 72 q 476 203 476 139 q 443 292 476 254 q 357 356 410 331 l 310 381 q 249 299 274 351 q 225 201 225 246 q 342 72 225 72 z "},"9":{"ha":708,"x_min":35,"x_max":653,"o":"m 78 118 q 260 83 183 83 q 424 157 378 83 q 471 365 471 231 q 381 336 421 344 q 297 328 340 328 q 104 397 174 328 q 35 588 35 465 q 101 785 35 697 q 346 874 167 874 q 653 474 653 874 q 557 97 653 210 q 278 -17 461 -17 q 169 -7 219 -17 q 57 26 119 3 l 78 118 m 474 476 q 465 636 474 574 q 425 737 456 699 q 333 775 394 775 q 246 729 278 775 q 214 607 214 683 q 246 472 214 515 q 329 429 278 429 q 474 476 392 429 z "},"\u0000":{"ha":0,"x_min":0,"x_max":0,"o":""},"\r":{"ha":236,"x_min":0,"x_max":0,"o":""}," ":{"ha":236,"x_min":0,"x_max":0,"o":""},"A":{"ha":825,"x_min":-14,"x_max":839,"o":"m 197 94 l 292 63 l 292 0 l -14 0 l -14 61 l 85 96 l 347 853 l 456 871 l 740 96 l 839 63 l 839 0 l 453 0 l 453 63 l 543 90 l 503 213 l 236 213 l 197 94 m 364 588 l 263 288 l 475 288 l 364 588 z "},"Á":{"ha":825,"x_min":-14,"x_max":839,"o":"m 292 881 l 254 929 l 471 1111 l 608 1064 l 608 1032 l 292 881 m 197 94 l 292 63 l 292 0 l -14 0 l -14 61 l 85 96 l 347 853 l 456 871 l 740 96 l 839 63 l 839 0 l 453 0 l 453 63 l 543 90 l 503 213 l 236 213 l 197 94 m 364 588 l 263 288 l 475 288 l 364 588 z "},"Ă":{"ha":825,"x_min":-14,"x_max":839,"o":"m 397 904 q 263 956 300 904 q 226 1092 226 1007 l 308 1094 q 389 1010 308 1010 q 485 1094 485 1010 l 564 1092 q 529 954 564 1004 q 397 904 494 904 m 197 94 l 292 63 l 292 0 l -14 0 l -14 61 l 85 96 l 347 853 l 456 871 l 740 96 l 839 63 l 839 0 l 453 0 l 453 63 l 543 90 l 503 213 l 236 213 l 197 94 m 364 588 l 263 288 l 475 288 l 364 588 z "},"Ắ":{"ha":825,"x_min":-14,"x_max":839,"o":"m 0 0 m 197 94 l 292 63 l 292 0 l -14 0 l -14 61 l 85 96 l 347 853 l 456 871 l 740 96 l 839 63 l 839 0 l 453 0 l 453 63 l 543 90 l 503 213 l 236 213 l 197 94 m 364 588 l 263 288 l 475 288 l 364 588 m 407 904 q 276 954 310 904 q 243 1092 243 1004 l 325 1094 q 345 1035 325 1060 q 413 1010 365 1010 q 483 1035 463 1010 q 503 1094 503 1060 l 581 1092 q 543 956 581 1007 q 407 904 506 904 m 363 1083 l 325 1132 l 542 1314 l 679 1267 l 679 1235 l 363 1083 z "},"Ặ":{"ha":825,"x_min":-14,"x_max":839,"o":"m 0 0 m 197 94 l 292 63 l 292 0 l -14 0 l -14 61 l 85 96 l 347 853 l 456 871 l 740 96 l 839 63 l 839 0 l 453 0 l 453 63 l 543 90 l 503 213 l 236 213 l 197 94 m 364 588 l 263 288 l 475 288 l 364 588 m 529 -178 q 496 -257 529 -225 q 415 -289 463 -289 q 332 -256 368 -289 q 296 -178 296 -224 q 332 -96 296 -131 q 415 -61 368 -61 q 496 -96 463 -61 q 529 -178 529 -131 m 407 904 q 276 954 310 904 q 243 1092 243 1004 l 325 1094 q 345 1035 325 1060 q 413 1010 365 1010 q 483 1035 463 1010 q 503 1094 503 1060 l 581 1092 q 543 956 581 1007 q 407 904 506 904 z "},"Ằ":{"ha":825,"x_min":-14,"x_max":839,"o":"m 0 0 m 197 94 l 292 63 l 292 0 l -14 0 l -14 61 l 85 96 l 347 853 l 456 871 l 740 96 l 839 63 l 839 0 l 453 0 l 453 63 l 543 90 l 503 213 l 236 213 l 197 94 m 364 588 l 263 288 l 475 288 l 364 588 m 407 904 q 276 954 310 904 q 243 1092 243 1004 l 325 1094 q 345 1035 325 1060 q 413 1010 365 1010 q 483 1035 463 1010 q 503 1094 503 1060 l 581 1092 q 543 956 581 1007 q 407 904 506 904 m 463 1083 l 140 1235 l 146 1267 l 281 1314 l 494 1132 l 463 1083 z "},"Ẳ":{"ha":825,"x_min":-14,"x_max":839,"o":"m 0 0 m 197 94 l 292 63 l 292 0 l -14 0 l -14 61 l 85 96 l 347 853 l 456 871 l 740 96 l 839 63 l 839 0 l 453 0 l 453 63 l 543 90 l 503 213 l 236 213 l 197 94 m 364 588 l 263 288 l 475 288 l 364 588 m 407 904 q 276 954 310 904 q 243 1092 243 1004 l 325 1094 q 345 1035 325 1060 q 413 1010 365 1010 q 483 1035 463 1010 q 503 1094 503 1060 l 581 1092 q 543 956 581 1007 q 407 904 506 904 m 567 1236 q 461 1161 567 1178 l 453 1129 l 378 1129 l 372 1190 q 464 1232 464 1190 q 411 1263 464 1263 q 372 1260 400 1263 l 363 1222 l 307 1222 l 299 1296 q 426 1311 368 1311 q 530 1292 493 1311 q 567 1236 567 1272 z "},"Ẵ":{"ha":825,"x_min":-14,"x_max":839,"o":"m 0 0 m 197 94 l 292 63 l 292 0 l -14 0 l -14 61 l 85 96 l 347 853 l 456 871 l 740 96 l 839 63 l 839 0 l 453 0 l 453 63 l 543 90 l 503 213 l 236 213 l 197 94 m 364 588 l 263 288 l 475 288 l 364 588 m 407 904 q 276 954 310 904 q 243 1092 243 1004 l 325 1094 q 345 1035 325 1060 q 413 1010 365 1010 q 483 1035 463 1010 q 503 1094 503 1060 l 581 1092 q 543 956 581 1007 q 407 904 506 904 m 657 1265 q 538 1121 597 1121 q 401 1149 499 1121 q 293 1172 319 1172 q 266 1163 278 1172 q 247 1142 254 1153 q 238 1129 239 1132 l 172 1156 q 227 1259 194 1218 q 293 1300 260 1300 q 428 1272 333 1300 q 538 1249 510 1249 q 566 1258 553 1249 q 587 1278 579 1268 q 596 1292 594 1289 l 657 1265 z "},"Ǎ":{"ha":825,"x_min":-14,"x_max":839,"o":"m 0 0 m 197 94 l 292 63 l 292 0 l -14 0 l -14 61 l 85 96 l 347 853 l 456 871 l 740 96 l 839 63 l 839 0 l 453 0 l 453 63 l 543 90 l 503 213 l 236 213 l 197 94 m 364 588 l 263 288 l 475 288 l 364 588 m 354 890 l 201 1076 l 238 1111 l 413 1004 l 592 1111 l 624 1076 l 472 890 l 354 890 z "},"Â":{"ha":825,"x_min":-14,"x_max":839,"o":"m 581 889 l 401 996 l 226 889 l 190 924 l 343 1111 l 461 1111 l 613 924 l 581 889 m 197 94 l 292 63 l 292 0 l -14 0 l -14 61 l 85 96 l 347 853 l 456 871 l 740 96 l 839 63 l 839 0 l 453 0 l 453 63 l 543 90 l 503 213 l 236 213 l 197 94 m 364 588 l 263 288 l 475 288 l 364 588 z "},"Ấ":{"ha":825,"x_min":-14,"x_max":851,"o":"m 613 960 l 564 992 l 689 1250 l 835 1250 l 851 1224 l 613 960 m 550 889 l 371 996 l 196 889 l 160 924 l 313 1111 l 431 1111 l 582 924 l 550 889 m 197 94 l 292 63 l 292 0 l -14 0 l -14 61 l 85 96 l 347 853 l 456 871 l 740 96 l 839 63 l 839 0 l 453 0 l 453 63 l 543 90 l 503 213 l 236 213 l 197 94 m 364 588 l 263 288 l 475 288 l 364 588 z "},"Ậ":{"ha":825,"x_min":-14,"x_max":839,"o":"m 0 0 m 197 94 l 292 63 l 292 0 l -14 0 l -14 61 l 85 96 l 347 853 l 456 871 l 740 96 l 839 63 l 839 0 l 453 0 l 453 63 l 543 90 l 503 213 l 236 213 l 197 94 m 364 588 l 263 288 l 475 288 l 364 588 m 529 -178 q 496 -257 529 -225 q 415 -289 463 -289 q 332 -256 368 -289 q 296 -178 296 -224 q 332 -96 296 -131 q 415 -61 368 -61 q 496 -96 463 -61 q 529 -178 529 -131 m 592 889 l 413 996 l 238 889 l 201 924 l 354 1111 l 472 1111 l 624 924 l 592 889 z "},"Ầ":{"ha":825,"x_min":-14,"x_max":839,"o":"m 650 958 l 411 1222 l 428 1249 l 574 1249 l 699 990 l 650 958 m 550 889 l 371 996 l 196 889 l 160 924 l 313 1111 l 431 1111 l 582 924 l 550 889 m 197 94 l 292 63 l 292 0 l -14 0 l -14 61 l 85 96 l 347 853 l 456 871 l 740 96 l 839 63 l 839 0 l 453 0 l 453 63 l 543 90 l 503 213 l 236 213 l 197 94 m 364 588 l 263 288 l 475 288 l 364 588 z "},"Ẩ":{"ha":825,"x_min":-14,"x_max":839,"o":"m 0 0 m 197 94 l 292 63 l 292 0 l -14 0 l -14 61 l 85 96 l 347 853 l 456 871 l 740 96 l 839 63 l 839 0 l 453 0 l 453 63 l 543 90 l 503 213 l 236 213 l 197 94 m 364 588 l 263 288 l 475 288 l 364 588 m 592 889 l 413 996 l 238 889 l 201 924 l 354 1111 l 472 1111 l 624 924 l 592 889 m 739 1175 q 633 1100 739 1117 l 625 1068 l 550 1068 l 544 1129 q 636 1171 636 1129 q 583 1201 636 1201 q 544 1199 572 1201 l 535 1161 l 479 1161 l 471 1235 q 599 1250 540 1250 q 702 1231 665 1250 q 739 1175 739 1211 z "},"Ẫ":{"ha":825,"x_min":-14,"x_max":839,"o":"m 0 0 m 197 94 l 292 63 l 292 0 l -14 0 l -14 61 l 85 96 l 347 853 l 456 871 l 740 96 l 839 63 l 839 0 l 453 0 l 453 63 l 543 90 l 503 213 l 236 213 l 197 94 m 364 588 l 263 288 l 475 288 l 364 588 m 592 889 l 413 996 l 238 889 l 201 924 l 354 1111 l 472 1111 l 624 924 l 592 889 m 657 1265 q 538 1121 597 1121 q 401 1149 499 1121 q 293 1172 319 1172 q 266 1163 278 1172 q 247 1142 254 1153 q 238 1129 239 1132 l 172 1156 q 227 1259 194 1218 q 293 1300 260 1300 q 428 1272 333 1300 q 538 1249 510 1249 q 566 1258 553 1249 q 587 1278 579 1268 q 596 1292 594 1289 l 657 1265 z "},"Ȁ":{"ha":825,"x_min":-14,"x_max":839,"o":"m 0 0 m 197 94 l 292 63 l 292 0 l -14 0 l -14 61 l 85 96 l 347 853 l 456 871 l 740 96 l 839 63 l 839 0 l 453 0 l 453 63 l 543 90 l 503 213 l 236 213 l 197 94 m 364 588 l 263 288 l 475 288 l 364 588 m 301 876 l 89 1100 l 89 1131 l 217 1131 l 344 908 l 301 876 m 525 876 l 313 1100 l 313 1131 l 440 1131 l 568 908 l 525 876 z "},"Ä":{"ha":825,"x_min":-14,"x_max":839,"o":"m 351 999 q 322 927 351 956 q 249 899 292 899 q 172 927 204 899 q 140 999 140 956 q 173 1070 140 1040 q 249 1100 206 1100 q 321 1070 290 1100 q 351 999 351 1040 m 672 999 q 642 927 672 956 q 571 899 611 899 q 495 927 526 899 q 464 999 464 956 q 495 1071 464 1042 q 571 1100 526 1100 q 642 1070 611 1100 q 672 999 672 1040 m 197 94 l 292 63 l 292 0 l -14 0 l -14 61 l 85 96 l 347 853 l 456 871 l 740 96 l 839 63 l 839 0 l 453 0 l 453 63 l 543 90 l 503 213 l 236 213 l 197 94 m 364 588 l 263 288 l 475 288 l 364 588 z "},"Ạ":{"ha":825,"x_min":-14,"x_max":839,"o":"m 0 0 m 197 94 l 292 63 l 292 0 l -14 0 l -14 61 l 85 96 l 347 853 l 456 871 l 740 96 l 839 63 l 839 0 l 453 0 l 453 63 l 543 90 l 503 213 l 236 213 l 197 94 m 364 588 l 263 288 l 475 288 l 364 588 m 529 -178 q 496 -257 529 -225 q 415 -289 463 -289 q 332 -256 368 -289 q 296 -178 296 -224 q 332 -96 296 -131 q 415 -61 368 -61 q 496 -96 463 -61 q 529 -178 529 -131 z "},"À":{"ha":825,"x_min":-14,"x_max":839,"o":"m 518 881 l 196 1032 l 201 1064 l 336 1111 l 550 929 l 518 881 m 197 94 l 292 63 l 292 0 l -14 0 l -14 61 l 85 96 l 347 853 l 456 871 l 740 96 l 839 63 l 839 0 l 453 0 l 453 63 l 543 90 l 503 213 l 236 213 l 197 94 m 364 588 l 263 288 l 475 288 l 364 588 z "},"Ả":{"ha":825,"x_min":-14,"x_max":839,"o":"m 0 0 m 197 94 l 292 63 l 292 0 l -14 0 l -14 61 l 85 96 l 347 853 l 456 871 l 740 96 l 839 63 l 839 0 l 453 0 l 453 63 l 543 90 l 503 213 l 236 213 l 197 94 m 364 588 l 263 288 l 475 288 l 364 588 m 564 1033 q 458 958 564 975 l 450 926 l 375 926 l 369 988 q 461 1029 461 988 q 408 1060 461 1060 q 369 1057 397 1060 l 360 1019 l 304 1019 l 296 1093 q 424 1108 365 1108 q 527 1089 490 1108 q 564 1033 564 1069 z "},"Ȃ":{"ha":825,"x_min":-14,"x_max":839,"o":"m 0 0 m 197 94 l 292 63 l 292 0 l -14 0 l -14 61 l 85 96 l 347 853 l 456 871 l 740 96 l 839 63 l 839 0 l 453 0 l 453 63 l 543 90 l 503 213 l 236 213 l 197 94 m 364 588 l 263 288 l 475 288 l 364 588 m 417 1108 q 547 1058 514 1108 q 581 921 581 1008 l 499 918 q 478 978 499 953 q 411 1003 458 1003 q 341 978 361 1003 q 321 918 321 953 l 243 921 q 281 1057 243 1006 q 417 1108 318 1108 z "},"Ā":{"ha":825,"x_min":-14,"x_max":839,"o":"m 232 1053 l 567 1053 l 567 943 l 232 943 l 232 1053 m 197 94 l 292 63 l 292 0 l -14 0 l -14 61 l 85 96 l 347 853 l 456 871 l 740 96 l 839 63 l 839 0 l 453 0 l 453 63 l 543 90 l 503 213 l 236 213 l 197 94 m 364 588 l 263 288 l 475 288 l 364 588 z "},"Ą":{"ha":825,"x_min":-14,"x_max":839,"o":"m -14 61 l 85 96 l 347 853 l 456 871 l 740 96 l 839 63 l 839 0 l 678 0 q 594 -22 633 0 q 531 -80 554 -43 q 507 -161 507 -117 q 521 -218 507 -199 q 567 -237 535 -237 q 651 -207 608 -237 l 683 -237 q 665 -262 683 -240 q 612 -304 646 -285 q 531 -324 578 -324 q 423 -290 457 -324 q 389 -204 389 -257 q 414 -115 389 -156 q 483 -26 439 -75 q 528 30 514 8 q 543 71 543 51 q 533 118 543 89 l 503 213 l 236 213 l 197 94 l 292 63 l 292 0 l -14 0 l -14 61 m 364 588 l 263 288 l 475 288 l 364 588 z "},"Å":{"ha":825,"x_min":-14,"x_max":839,"o":"m 397 871 q 281 907 322 871 q 240 1001 240 943 q 281 1099 240 1061 q 397 1138 322 1138 q 515 1099 474 1138 q 556 1001 556 1061 q 515 907 556 943 q 397 871 475 871 m 397 936 q 442 953 431 936 q 453 1001 453 971 q 442 1052 453 1033 q 397 1071 431 1071 q 353 1052 364 1071 q 343 1001 343 1033 q 353 953 343 971 q 397 936 364 936 m -14 0 l -14 61 l 85 96 l 347 853 l 456 871 l 740 96 l 839 63 l 839 0 l 453 0 l 453 63 l 543 90 l 503 213 l 236 213 l 197 94 l 292 63 l 292 0 l -14 0 m 263 288 l 475 288 l 364 588 l 263 288 z "},"Ǻ":{"ha":825,"x_min":-14,"x_max":839,"o":"m 411 871 q 295 907 336 871 q 254 1001 254 943 q 282 1085 254 1050 q 361 1132 310 1119 l 325 1179 l 542 1361 l 679 1314 l 679 1282 l 369 1133 q 411 1138 388 1138 q 528 1099 488 1138 q 569 1001 569 1061 q 529 907 569 943 q 411 871 489 871 m 411 1071 q 367 1052 378 1071 q 357 1001 357 1033 q 367 953 357 971 q 411 936 378 936 q 456 953 444 936 q 467 1001 467 971 q 456 1052 467 1033 q 411 1071 444 1071 m 740 96 l 839 63 l 839 0 l 453 0 l 453 63 l 543 90 l 503 213 l 236 213 l 197 94 l 292 63 l 292 0 l -14 0 l -14 61 l 85 96 l 347 853 l 456 871 l 740 96 m 263 288 l 475 288 l 364 588 l 263 288 z "},"Ã":{"ha":825,"x_min":-14,"x_max":839,"o":"m 650 1063 q 531 918 590 918 q 394 946 492 918 q 286 969 313 969 q 259 960 271 969 q 240 940 247 950 q 231 926 232 929 l 165 953 q 220 1056 188 1015 q 286 1097 253 1097 q 421 1069 326 1097 q 531 1046 503 1046 q 559 1056 546 1046 q 580 1076 572 1065 q 589 1089 588 1086 l 650 1063 m 197 94 l 292 63 l 292 0 l -14 0 l -14 61 l 85 96 l 347 853 l 456 871 l 740 96 l 839 63 l 839 0 l 453 0 l 453 63 l 543 90 l 503 213 l 236 213 l 197 94 m 364 588 l 263 288 l 475 288 l 364 588 z "},"Æ":{"ha":972,"x_min":-72,"x_max":938,"o":"m -72 0 l -72 61 l 26 96 l 382 765 l 292 790 l 292 853 l 881 853 l 881 650 l 803 650 l 772 758 l 590 758 l 613 439 l 711 439 l 735 531 l 808 531 l 808 265 l 735 265 l 708 361 l 618 361 l 638 96 l 824 96 l 860 225 l 938 225 l 938 0 l 340 0 l 340 63 l 457 96 l 438 353 l 271 353 l 139 94 l 233 63 l 233 0 l -72 0 m 311 431 l 432 431 l 418 638 l 311 431 z "},"Ǽ":{"ha":972,"x_min":-72,"x_max":938,"o":"m 0 0 m -72 0 l -72 61 l 26 96 l 382 765 l 292 790 l 292 853 l 881 853 l 881 650 l 803 650 l 772 758 l 590 758 l 613 439 l 711 439 l 735 531 l 808 531 l 808 265 l 735 265 l 708 361 l 618 361 l 638 96 l 824 96 l 860 225 l 938 225 l 938 0 l 340 0 l 340 63 l 457 96 l 438 353 l 271 353 l 139 94 l 233 63 l 233 0 l -72 0 m 311 431 l 432 431 l 418 638 l 311 431 m 433 881 l 396 929 l 613 1111 l 750 1064 l 750 1032 l 433 881 z "},"B":{"ha":824,"x_min":49,"x_max":754,"o":"m 533 450 q 699 378 644 435 q 754 235 754 321 q 669 63 754 126 q 417 0 583 0 l 50 0 l 50 63 l 167 96 l 167 758 l 49 790 l 49 853 l 429 853 q 732 644 732 853 q 677 516 732 567 q 533 450 622 465 m 394 476 q 501 513 458 476 q 544 639 544 549 q 512 736 544 704 q 422 768 479 768 q 379 764 399 768 q 354 758 360 760 l 354 476 l 394 476 m 354 96 q 422 88 381 88 q 524 126 486 88 q 561 243 561 165 q 513 361 561 321 q 392 401 465 401 l 354 401 l 354 96 z "},"C":{"ha":761,"x_min":42,"x_max":719,"o":"m 719 29 q 595 -4 656 7 q 458 -15 535 -15 q 222 44 315 -15 q 85 205 129 104 q 42 433 42 306 q 143 751 42 629 q 458 874 244 874 q 594 863 538 874 q 719 833 650 853 l 704 621 l 635 621 l 600 757 q 546 770 578 765 q 485 775 514 775 q 292 681 344 775 q 239 433 239 588 q 294 187 239 286 q 479 88 349 88 q 600 106 538 88 l 635 225 l 708 225 l 719 29 z "},"Ć":{"ha":761,"x_min":42,"x_max":719,"o":"m 329 881 l 292 929 l 508 1111 l 646 1064 l 646 1032 l 329 881 m 719 29 q 595 -4 656 7 q 458 -15 535 -15 q 222 44 315 -15 q 85 205 129 104 q 42 433 42 306 q 143 751 42 629 q 458 874 244 874 q 594 863 538 874 q 719 833 650 853 l 704 621 l 635 621 l 600 757 q 546 770 578 765 q 485 775 514 775 q 292 681 344 775 q 239 433 239 588 q 294 187 239 286 q 479 88 349 88 q 600 106 538 88 l 635 225 l 708 225 l 719 29 z "},"Č":{"ha":761,"x_min":42,"x_max":719,"o":"m 381 890 l 228 1076 l 264 1111 l 439 1004 l 618 1111 l 650 1076 l 499 890 l 381 890 m 458 -15 q 222 44 315 -15 q 85 205 129 104 q 42 433 42 306 q 143 751 42 629 q 458 874 244 874 q 594 863 538 874 q 719 833 650 853 l 704 621 l 635 621 l 600 757 q 546 770 578 765 q 485 775 514 775 q 292 681 344 775 q 239 433 239 588 q 294 187 239 286 q 479 88 349 88 q 600 106 538 88 l 635 225 l 708 225 l 719 29 q 595 -4 656 7 q 458 -15 535 -15 z "},"Ç":{"ha":761,"x_min":42,"x_max":719,"o":"m 719 29 q 600 -3 657 7 q 471 -15 543 -14 l 456 -64 q 558 -92 524 -64 q 593 -164 593 -119 q 567 -234 593 -201 q 497 -286 540 -267 q 404 -306 453 -306 q 329 -290 361 -306 l 340 -235 q 379 -244 358 -244 q 438 -225 417 -244 q 460 -182 460 -206 q 442 -144 460 -160 q 383 -128 424 -129 l 374 -101 l 406 -12 q 131 126 221 3 q 42 433 42 249 q 143 751 42 629 q 458 874 244 874 q 594 863 538 874 q 719 833 650 853 l 704 621 l 635 621 l 600 757 q 546 770 578 765 q 485 775 514 775 q 292 681 344 775 q 239 433 239 588 q 294 187 239 286 q 479 88 349 88 q 600 106 538 88 l 635 225 l 708 225 l 719 29 z "},"Ĉ":{"ha":761,"x_min":42,"x_max":719,"o":"m 42 0 m 719 29 q 595 -4 656 7 q 458 -15 535 -15 q 222 44 315 -15 q 85 205 129 104 q 42 433 42 306 q 143 751 42 629 q 458 874 244 874 q 594 863 538 874 q 719 833 650 853 l 704 621 l 635 621 l 600 757 q 546 770 578 765 q 485 775 514 775 q 292 681 344 775 q 239 433 239 588 q 294 187 239 286 q 479 88 349 88 q 600 106 538 88 l 635 225 l 708 225 l 719 29 m 615 889 l 436 996 l 261 889 l 225 924 l 378 1111 l 496 1111 l 647 924 l 615 889 z "},"Ċ":{"ha":761,"x_min":42,"x_max":719,"o":"m 42 0 m 719 29 q 595 -4 656 7 q 458 -15 535 -15 q 222 44 315 -15 q 85 205 129 104 q 42 433 42 306 q 143 751 42 629 q 458 874 244 874 q 594 863 538 874 q 719 833 650 853 l 704 621 l 635 621 l 600 757 q 546 770 578 765 q 485 775 514 775 q 292 681 344 775 q 239 433 239 588 q 294 187 239 286 q 479 88 349 88 q 600 106 538 88 l 635 225 l 708 225 l 719 29 m 553 993 q 519 914 553 946 q 439 882 486 882 q 356 915 392 882 q 319 993 319 947 q 356 1075 319 1040 q 439 1110 392 1110 q 519 1075 486 1110 q 553 993 553 1040 z "},"D":{"ha":910,"x_min":49,"x_max":868,"o":"m 429 853 q 761 744 654 853 q 868 444 868 635 q 766 124 868 247 q 456 0 664 0 l 50 0 l 50 63 l 167 96 l 167 758 l 49 790 l 49 853 l 429 853 m 428 767 q 354 758 388 767 l 354 96 q 463 79 407 79 q 626 178 582 79 q 671 444 671 278 q 641 612 671 539 q 556 726 611 685 q 428 767 501 767 z "},"Ǳ":{"ha":1604,"x_min":49,"x_max":1576,"o":"m 49 0 m 429 853 q 761 744 654 853 q 868 444 868 635 q 766 124 868 247 q 456 0 664 0 l 50 0 l 50 63 l 167 96 l 167 758 l 49 790 l 49 853 l 429 853 m 428 767 q 354 758 388 767 l 354 96 q 463 79 407 79 q 626 178 582 79 q 671 444 671 278 q 641 612 671 539 q 556 726 611 685 q 428 767 501 767 m 1565 225 l 1554 0 l 964 0 l 939 46 l 1364 758 l 1092 758 l 1058 650 l 978 650 l 964 853 l 1569 853 l 1576 807 l 1158 96 l 1435 96 l 1488 225 l 1565 225 z "},"Ǆ":{"ha":1604,"x_min":49,"x_max":1576,"o":"m 49 0 m 429 853 q 761 744 654 853 q 868 444 868 635 q 766 124 868 247 q 456 0 664 0 l 50 0 l 50 63 l 167 96 l 167 758 l 49 790 l 49 853 l 429 853 m 428 767 q 354 758 388 767 l 354 96 q 463 79 407 79 q 626 178 582 79 q 671 444 671 278 q 641 612 671 539 q 556 726 611 685 q 428 767 501 767 m 1565 225 l 1554 0 l 964 0 l 939 46 l 1364 758 l 1092 758 l 1058 650 l 978 650 l 964 853 l 1569 853 l 1576 807 l 1158 96 l 1435 96 l 1488 225 l 1565 225 m 1199 890 l 1046 1076 l 1082 1111 l 1257 1004 l 1436 1111 l 1468 1076 l 1317 890 l 1199 890 z "},"Ð":{"ha":914,"x_min":53,"x_max":872,"o":"m 54 63 l 171 96 l 171 381 l 56 381 l 56 458 l 171 458 l 171 758 l 53 790 l 53 853 l 433 853 q 765 744 658 853 q 872 444 872 635 q 770 124 872 247 q 460 0 668 0 l 54 0 l 54 63 m 467 79 q 631 178 586 79 q 675 444 675 278 q 645 612 675 539 q 560 726 615 685 q 432 767 506 767 q 358 758 392 767 l 358 458 l 515 458 l 515 381 l 358 381 l 358 96 q 467 79 411 79 z "},"Ď":{"ha":910,"x_min":49,"x_max":868,"o":"m 369 890 l 217 1076 l 253 1111 l 428 1004 l 607 1111 l 639 1076 l 488 890 l 369 890 m 50 63 l 167 96 l 167 758 l 49 790 l 49 853 l 429 853 q 761 744 654 853 q 868 444 868 635 q 766 124 868 247 q 456 0 664 0 l 50 0 l 50 63 m 463 79 q 626 178 582 79 q 671 444 671 278 q 641 612 671 539 q 556 726 611 685 q 428 767 501 767 q 354 758 388 767 l 354 96 q 463 79 407 79 z "},"Đ":{"ha":914,"x_min":53,"x_max":872,"o":"m 53 0 m 54 63 l 171 96 l 171 381 l 56 381 l 56 458 l 171 458 l 171 758 l 53 790 l 53 853 l 433 853 q 765 744 658 853 q 872 444 872 635 q 770 124 872 247 q 460 0 668 0 l 54 0 l 54 63 m 467 79 q 631 178 586 79 q 675 444 675 278 q 645 612 675 539 q 560 726 615 685 q 432 767 506 767 q 358 758 392 767 l 358 458 l 515 458 l 515 381 l 358 381 l 358 96 q 467 79 411 79 z "},"Ḍ":{"ha":910,"x_min":49,"x_max":868,"o":"m 49 0 m 429 853 q 761 744 654 853 q 868 444 868 635 q 766 124 868 247 q 456 0 664 0 l 50 0 l 50 63 l 167 96 l 167 758 l 49 790 l 49 853 l 429 853 m 428 767 q 354 758 388 767 l 354 96 q 463 79 407 79 q 626 178 582 79 q 671 444 671 278 q 641 612 671 539 q 556 726 611 685 q 428 767 501 767 m 572 -178 q 539 -257 572 -225 q 458 -289 506 -289 q 375 -256 411 -289 q 339 -178 339 -224 q 375 -96 339 -131 q 458 -61 411 -61 q 539 -96 506 -61 q 572 -178 572 -131 z "},"ǲ":{"ha":1563,"x_min":49,"x_max":1529,"o":"m 49 0 m 429 853 q 761 744 654 853 q 868 444 868 635 q 766 124 868 247 q 456 0 664 0 l 50 0 l 50 63 l 167 96 l 167 758 l 49 790 l 49 853 l 429 853 m 428 767 q 354 758 388 767 l 354 96 q 463 79 407 79 q 626 178 582 79 q 671 444 671 278 q 641 612 671 539 q 556 726 611 685 q 428 767 501 767 m 1296 582 l 1078 582 l 1043 458 l 978 458 l 953 683 l 1497 683 l 1529 618 l 1172 99 l 1407 99 l 1457 226 l 1526 226 l 1511 0 l 971 0 l 940 64 l 1296 582 z "},"ǅ":{"ha":1563,"x_min":49,"x_max":1529,"o":"m 49 0 m 429 853 q 761 744 654 853 q 868 444 868 635 q 766 124 868 247 q 456 0 664 0 l 50 0 l 50 63 l 167 96 l 167 758 l 49 790 l 49 853 l 429 853 m 428 767 q 354 758 388 767 l 354 96 q 463 79 407 79 q 626 178 582 79 q 671 444 671 278 q 641 612 671 539 q 556 726 611 685 q 428 767 501 767 m 1296 582 l 1078 582 l 1043 458 l 978 458 l 953 683 l 1497 683 l 1529 618 l 1172 99 l 1407 99 l 1457 226 l 1526 226 l 1511 0 l 971 0 l 940 64 l 1296 582 m 1068 1017 l 1229 907 l 1393 1017 l 1440 983 l 1289 786 l 1169 786 l 1018 983 l 1068 1017 z "},"E":{"ha":757,"x_min":49,"x_max":719,"o":"m 525 550 l 599 550 l 599 285 l 525 285 l 499 381 l 354 381 l 354 96 l 606 96 l 642 225 l 719 225 l 719 0 l 50 0 l 50 63 l 167 96 l 167 758 l 49 790 l 49 853 l 692 853 l 692 650 l 614 650 l 583 758 l 354 758 l 354 458 l 501 458 l 525 550 z "},"É":{"ha":757,"x_min":49,"x_max":719,"o":"m 279 881 l 242 929 l 458 1111 l 596 1064 l 596 1032 l 279 881 m 50 0 l 50 63 l 167 96 l 167 758 l 49 790 l 49 853 l 692 853 l 692 650 l 614 650 l 583 758 l 354 758 l 354 458 l 501 458 l 525 550 l 599 550 l 599 285 l 525 285 l 499 381 l 354 381 l 354 96 l 606 96 l 642 225 l 719 225 l 719 0 l 50 0 z "},"Ĕ":{"ha":757,"x_min":49,"x_max":719,"o":"m 49 0 m 525 550 l 599 550 l 599 285 l 525 285 l 499 381 l 354 381 l 354 96 l 606 96 l 642 225 l 719 225 l 719 0 l 50 0 l 50 63 l 167 96 l 167 758 l 49 790 l 49 853 l 692 853 l 692 650 l 614 650 l 583 758 l 354 758 l 354 458 l 501 458 l 525 550 m 374 904 q 243 954 276 904 q 210 1092 210 1004 l 292 1094 q 312 1035 292 1060 q 379 1010 332 1010 q 449 1035 429 1010 q 469 1094 469 1060 l 547 1092 q 510 956 547 1007 q 374 904 472 904 z "},"Ě":{"ha":757,"x_min":49,"x_max":719,"o":"m 358 890 l 206 1076 l 242 1111 l 417 1004 l 596 1111 l 628 1076 l 476 890 l 358 890 m 50 0 l 50 63 l 167 96 l 167 758 l 49 790 l 49 853 l 692 853 l 692 650 l 614 650 l 583 758 l 354 758 l 354 458 l 501 458 l 525 550 l 599 550 l 599 285 l 525 285 l 499 381 l 354 381 l 354 96 l 606 96 l 642 225 l 719 225 l 719 0 l 50 0 z "},"Ê":{"ha":757,"x_min":49,"x_max":719,"o":"m 575 889 l 396 996 l 221 889 l 185 924 l 338 1111 l 456 1111 l 607 924 l 575 889 m 525 550 l 599 550 l 599 285 l 525 285 l 499 381 l 354 381 l 354 96 l 606 96 l 642 225 l 719 225 l 719 0 l 50 0 l 50 63 l 167 96 l 167 758 l 49 790 l 49 853 l 692 853 l 692 650 l 614 650 l 583 758 l 354 758 l 354 458 l 501 458 l 525 550 z "},"Ế":{"ha":757,"x_min":49,"x_max":818,"o":"m 579 960 l 531 992 l 656 1250 l 801 1250 l 818 1224 l 579 960 m 517 889 l 338 996 l 163 889 l 126 924 l 279 1111 l 397 1111 l 549 924 l 517 889 m 525 550 l 599 550 l 599 285 l 525 285 l 499 381 l 354 381 l 354 96 l 606 96 l 642 225 l 719 225 l 719 0 l 50 0 l 50 63 l 167 96 l 167 758 l 49 790 l 49 853 l 692 853 l 692 650 l 614 650 l 583 758 l 354 758 l 354 458 l 501 458 l 525 550 z "},"Ệ":{"ha":757,"x_min":49,"x_max":719,"o":"m 49 0 m 525 550 l 599 550 l 599 285 l 525 285 l 499 381 l 354 381 l 354 96 l 606 96 l 642 225 l 719 225 l 719 0 l 50 0 l 50 63 l 167 96 l 167 758 l 49 790 l 49 853 l 692 853 l 692 650 l 614 650 l 583 758 l 354 758 l 354 458 l 501 458 l 525 550 m 496 -178 q 463 -257 496 -225 q 382 -289 429 -289 q 299 -256 335 -289 q 263 -178 263 -224 q 299 -96 263 -131 q 382 -61 335 -61 q 463 -96 429 -61 q 496 -178 496 -131 m 558 889 l 379 996 l 204 889 l 168 924 l 321 1111 l 439 1111 l 590 924 l 558 889 z "},"Ề":{"ha":757,"x_min":49,"x_max":719,"o":"m 617 958 l 378 1222 l 394 1249 l 540 1249 l 665 990 l 617 958 m 517 889 l 338 996 l 163 889 l 126 924 l 279 1111 l 397 1111 l 549 924 l 517 889 m 525 550 l 599 550 l 599 285 l 525 285 l 499 381 l 354 381 l 354 96 l 606 96 l 642 225 l 719 225 l 719 0 l 50 0 l 50 63 l 167 96 l 167 758 l 49 790 l 49 853 l 692 853 l 692 650 l 614 650 l 583 758 l 354 758 l 354 458 l 501 458 l 525 550 z "},"Ể":{"ha":757,"x_min":49,"x_max":719,"o":"m 49 0 m 525 550 l 599 550 l 599 285 l 525 285 l 499 381 l 354 381 l 354 96 l 606 96 l 642 225 l 719 225 l 719 0 l 50 0 l 50 63 l 167 96 l 167 758 l 49 790 l 49 853 l 692 853 l 692 650 l 614 650 l 583 758 l 354 758 l 354 458 l 501 458 l 525 550 m 558 889 l 379 996 l 204 889 l 168 924 l 321 1111 l 439 1111 l 590 924 l 558 889 m 706 1175 q 600 1100 706 1117 l 592 1068 l 517 1068 l 511 1129 q 603 1171 603 1129 q 550 1201 603 1201 q 511 1199 539 1201 l 501 1161 l 446 1161 l 438 1235 q 565 1250 507 1250 q 669 1231 632 1250 q 706 1175 706 1211 z "},"Ễ":{"ha":757,"x_min":49,"x_max":719,"o":"m 49 0 m 525 550 l 599 550 l 599 285 l 525 285 l 499 381 l 354 381 l 354 96 l 606 96 l 642 225 l 719 225 l 719 0 l 50 0 l 50 63 l 167 96 l 167 758 l 49 790 l 49 853 l 692 853 l 692 650 l 614 650 l 583 758 l 354 758 l 354 458 l 501 458 l 525 550 m 558 889 l 379 996 l 204 889 l 168 924 l 321 1111 l 439 1111 l 590 924 l 558 889 m 624 1265 q 504 1121 564 1121 q 368 1149 465 1121 q 260 1172 286 1172 q 233 1163 244 1172 q 213 1142 221 1153 q 204 1129 206 1132 l 139 1156 q 194 1259 161 1218 q 260 1300 226 1300 q 394 1272 300 1300 q 504 1249 476 1249 q 533 1258 519 1249 q 553 1278 546 1268 q 563 1292 561 1289 l 624 1265 z "},"Ȅ":{"ha":757,"x_min":49,"x_max":719,"o":"m 49 0 m 525 550 l 599 550 l 599 285 l 525 285 l 499 381 l 354 381 l 354 96 l 606 96 l 642 225 l 719 225 l 719 0 l 50 0 l 50 63 l 167 96 l 167 758 l 49 790 l 49 853 l 692 853 l 692 650 l 614 650 l 583 758 l 354 758 l 354 458 l 501 458 l 525 550 m 268 876 l 56 1100 l 56 1131 l 183 1131 l 311 908 l 268 876 m 492 876 l 279 1100 l 279 1131 l 407 1131 l 535 908 l 492 876 z "},"Ë":{"ha":757,"x_min":49,"x_max":719,"o":"m 328 999 q 298 927 328 956 q 225 899 268 899 q 149 927 181 899 q 117 999 117 956 q 149 1070 117 1040 q 225 1100 182 1100 q 297 1070 267 1100 q 328 999 328 1040 m 649 999 q 618 927 649 956 q 547 899 588 899 q 472 927 503 899 q 440 999 440 956 q 472 1071 440 1042 q 547 1100 503 1100 q 618 1070 588 1100 q 649 999 649 1040 m 525 550 l 599 550 l 599 285 l 525 285 l 499 381 l 354 381 l 354 96 l 606 96 l 642 225 l 719 225 l 719 0 l 50 0 l 50 63 l 167 96 l 167 758 l 49 790 l 49 853 l 692 853 l 692 650 l 614 650 l 583 758 l 354 758 l 354 458 l 501 458 l 525 550 z "},"Ė":{"ha":757,"x_min":49,"x_max":719,"o":"m 522 993 q 489 914 522 946 q 408 882 456 882 q 325 915 361 882 q 289 993 289 947 q 325 1075 289 1040 q 408 1110 361 1110 q 489 1075 456 1110 q 522 993 522 1040 m 525 550 l 599 550 l 599 285 l 525 285 l 499 381 l 354 381 l 354 96 l 606 96 l 642 225 l 719 225 l 719 0 l 50 0 l 50 63 l 167 96 l 167 758 l 49 790 l 49 853 l 692 853 l 692 650 l 614 650 l 583 758 l 354 758 l 354 458 l 501 458 l 525 550 z "},"Ẹ":{"ha":757,"x_min":49,"x_max":719,"o":"m 49 0 m 525 550 l 599 550 l 599 285 l 525 285 l 499 381 l 354 381 l 354 96 l 606 96 l 642 225 l 719 225 l 719 0 l 50 0 l 50 63 l 167 96 l 167 758 l 49 790 l 49 853 l 692 853 l 692 650 l 614 650 l 583 758 l 354 758 l 354 458 l 501 458 l 525 550 m 496 -178 q 463 -257 496 -225 q 382 -289 429 -289 q 299 -256 335 -289 q 263 -178 263 -224 q 299 -96 263 -131 q 382 -61 335 -61 q 463 -96 429 -61 q 496 -178 496 -131 z "},"È":{"ha":757,"x_min":49,"x_max":719,"o":"m 518 881 l 196 1032 l 201 1064 l 336 1111 l 550 929 l 518 881 m 50 0 l 50 63 l 167 96 l 167 758 l 49 790 l 49 853 l 692 853 l 692 650 l 614 650 l 583 758 l 354 758 l 354 458 l 501 458 l 525 550 l 599 550 l 599 285 l 525 285 l 499 381 l 354 381 l 354 96 l 606 96 l 642 225 l 719 225 l 719 0 l 50 0 z "},"Ẻ":{"ha":757,"x_min":49,"x_max":719,"o":"m 49 0 m 525 550 l 599 550 l 599 285 l 525 285 l 499 381 l 354 381 l 354 96 l 606 96 l 642 225 l 719 225 l 719 0 l 50 0 l 50 63 l 167 96 l 167 758 l 49 790 l 49 853 l 692 853 l 692 650 l 614 650 l 583 758 l 354 758 l 354 458 l 501 458 l 525 550 m 531 1033 q 425 958 531 975 l 417 926 l 342 926 l 336 988 q 428 1029 428 988 q 375 1060 428 1060 q 336 1057 364 1060 l 326 1019 l 271 1019 l 263 1093 q 390 1108 332 1108 q 494 1089 457 1108 q 531 1033 531 1069 z "},"Ȇ":{"ha":757,"x_min":49,"x_max":719,"o":"m 49 0 m 525 550 l 599 550 l 599 285 l 525 285 l 499 381 l 354 381 l 354 96 l 606 96 l 642 225 l 719 225 l 719 0 l 50 0 l 50 63 l 167 96 l 167 758 l 49 790 l 49 853 l 692 853 l 692 650 l 614 650 l 583 758 l 354 758 l 354 458 l 501 458 l 525 550 m 383 1108 q 514 1058 481 1108 q 547 921 547 1008 l 465 918 q 445 978 465 953 q 378 1003 425 1003 q 308 978 328 1003 q 288 918 288 953 l 210 921 q 247 1057 210 1006 q 383 1108 285 1108 z "},"Ē":{"ha":757,"x_min":49,"x_max":719,"o":"m 240 1053 l 575 1053 l 575 943 l 240 943 l 240 1053 m 525 550 l 599 550 l 599 285 l 525 285 l 499 381 l 354 381 l 354 96 l 606 96 l 642 225 l 719 225 l 719 0 l 50 0 l 50 63 l 167 96 l 167 758 l 49 790 l 49 853 l 692 853 l 692 650 l 614 650 l 583 758 l 354 758 l 354 458 l 501 458 l 525 550 z "},"Ę":{"ha":757,"x_min":49,"x_max":756,"o":"m 603 -324 q 494 -290 528 -324 q 461 -204 461 -256 q 493 -106 461 -161 q 586 0 525 -50 l 50 0 l 50 63 l 167 96 l 167 758 l 49 790 l 49 853 l 692 853 l 692 650 l 614 650 l 583 758 l 354 758 l 354 458 l 501 458 l 525 550 l 599 550 l 599 285 l 525 285 l 499 381 l 354 381 l 354 96 l 606 96 l 642 225 l 719 225 l 719 0 l 649 0 q 606 -67 632 -17 q 579 -175 579 -118 q 639 -237 579 -237 q 724 -207 681 -237 l 756 -237 q 737 -262 756 -240 q 684 -304 718 -285 q 603 -324 650 -324 z "},"Ẽ":{"ha":757,"x_min":49,"x_max":719,"o":"m 631 1063 q 511 918 571 918 q 375 946 472 918 q 267 969 293 969 q 240 960 251 969 q 220 940 228 950 q 211 926 213 929 l 146 953 q 201 1056 168 1015 q 267 1097 233 1097 q 401 1069 307 1097 q 511 1046 483 1046 q 540 1056 526 1046 q 560 1076 553 1065 q 569 1089 568 1086 l 631 1063 m 525 550 l 599 550 l 599 285 l 525 285 l 499 381 l 354 381 l 354 96 l 606 96 l 642 225 l 719 225 l 719 0 l 50 0 l 50 63 l 167 96 l 167 758 l 49 790 l 49 853 l 692 853 l 692 650 l 614 650 l 583 758 l 354 758 l 354 458 l 501 458 l 525 550 z "},"F":{"ha":713,"x_min":49,"x_max":692,"o":"m 692 853 l 692 650 l 614 650 l 583 758 l 354 758 l 354 444 l 501 444 l 525 536 l 599 536 l 599 271 l 525 271 l 499 367 l 354 367 l 354 104 l 501 69 l 501 0 l 50 0 l 50 63 l 167 96 l 167 758 l 49 790 l 49 853 l 692 853 z "},"G":{"ha":860,"x_min":42,"x_max":839,"o":"m 625 757 q 500 775 583 775 q 297 674 354 775 q 239 433 239 574 q 293 183 239 279 q 471 88 347 88 q 568 99 532 88 l 568 307 l 451 339 l 451 401 l 839 401 l 839 336 l 756 310 l 756 46 q 633 3 706 18 q 481 -12 560 -12 q 147 111 251 -12 q 42 433 42 235 q 153 751 42 629 q 497 874 264 874 q 635 862 563 874 q 753 833 708 850 l 738 621 l 660 621 l 625 757 z "},"Ǵ":{"ha":860,"x_min":42,"x_max":839,"o":"m 42 0 m 625 757 q 500 775 583 775 q 297 674 354 775 q 239 433 239 574 q 293 183 239 279 q 471 88 347 88 q 568 99 532 88 l 568 307 l 451 339 l 451 401 l 839 401 l 839 336 l 756 310 l 756 46 q 633 3 706 18 q 481 -12 560 -12 q 147 111 251 -12 q 42 433 42 235 q 153 751 42 629 q 497 874 264 874 q 635 862 563 874 q 753 833 708 850 l 738 621 l 660 621 l 625 757 m 378 881 l 340 929 l 557 1111 l 694 1064 l 694 1032 l 378 881 z "},"Ğ":{"ha":860,"x_min":42,"x_max":839,"o":"m 450 904 q 319 954 353 904 q 286 1092 286 1004 l 368 1094 q 388 1035 368 1060 q 456 1010 408 1010 q 526 1035 506 1010 q 546 1094 546 1060 l 624 1092 q 586 956 624 1007 q 450 904 549 904 m 625 757 q 500 775 583 775 q 297 674 354 775 q 239 433 239 574 q 293 183 239 279 q 471 88 347 88 q 568 99 532 88 l 568 307 l 451 339 l 451 401 l 839 401 l 839 336 l 756 310 l 756 46 q 633 3 706 18 q 481 -12 560 -12 q 147 111 251 -12 q 42 433 42 235 q 153 751 42 629 q 497 874 264 874 q 635 862 563 874 q 753 833 708 850 l 738 621 l 660 621 l 625 757 z "},"Ǧ":{"ha":860,"x_min":42,"x_max":839,"o":"m 42 0 m 625 757 q 500 775 583 775 q 297 674 354 775 q 239 433 239 574 q 293 183 239 279 q 471 88 347 88 q 568 99 532 88 l 568 307 l 451 339 l 451 401 l 839 401 l 839 336 l 756 310 l 756 46 q 633 3 706 18 q 481 -12 560 -12 q 147 111 251 -12 q 42 433 42 235 q 153 751 42 629 q 497 874 264 874 q 635 862 563 874 q 753 833 708 850 l 738 621 l 660 621 l 625 757 m 372 890 l 219 1076 l 256 1111 l 431 1004 l 610 1111 l 642 1076 l 490 890 l 372 890 z "},"Ĝ":{"ha":860,"x_min":42,"x_max":839,"o":"m 42 0 m 625 757 q 500 775 583 775 q 297 674 354 775 q 239 433 239 574 q 293 183 239 279 q 471 88 347 88 q 568 99 532 88 l 568 307 l 451 339 l 451 401 l 839 401 l 839 336 l 756 310 l 756 46 q 633 3 706 18 q 481 -12 560 -12 q 147 111 251 -12 q 42 433 42 235 q 153 751 42 629 q 497 874 264 874 q 635 862 563 874 q 753 833 708 850 l 738 621 l 660 621 l 625 757 m 610 889 l 431 996 l 256 889 l 219 924 l 372 1111 l 490 1111 l 642 924 l 610 889 z "},"Ģ":{"ha":860,"x_min":42,"x_max":839,"o":"m 481 -12 q 147 111 251 -12 q 42 433 42 235 q 153 751 42 629 q 497 874 264 874 q 635 862 563 874 q 753 833 708 850 l 738 621 l 660 621 l 625 757 q 500 775 583 775 q 297 674 354 775 q 239 433 239 574 q 293 183 239 279 q 471 88 347 88 q 568 99 532 88 l 568 307 l 451 339 l 451 401 l 839 401 l 839 336 l 756 310 l 756 46 q 633 3 706 18 q 481 -12 560 -12 m 372 -318 l 385 -61 l 510 -33 l 544 -67 l 433 -328 l 372 -318 z "},"Ġ":{"ha":860,"x_min":42,"x_max":839,"o":"m 42 0 m 625 757 q 500 775 583 775 q 297 674 354 775 q 239 433 239 574 q 293 183 239 279 q 471 88 347 88 q 568 99 532 88 l 568 307 l 451 339 l 451 401 l 839 401 l 839 336 l 756 310 l 756 46 q 633 3 706 18 q 481 -12 560 -12 q 147 111 251 -12 q 42 433 42 235 q 153 751 42 629 q 497 874 264 874 q 635 862 563 874 q 753 833 708 850 l 738 621 l 660 621 l 625 757 m 547 993 q 514 914 547 946 q 433 882 481 882 q 350 915 386 882 q 314 993 314 947 q 350 1075 314 1040 q 433 1110 386 1110 q 514 1075 481 1110 q 547 993 547 1040 z "},"H":{"ha":1022,"x_min":49,"x_max":974,"o":"m 49 0 l 49 63 l 167 96 l 167 758 l 49 790 l 49 853 l 472 853 l 472 790 l 354 758 l 354 465 l 668 465 l 668 758 l 549 790 l 549 853 l 974 853 l 974 790 l 856 758 l 856 96 l 974 63 l 974 0 l 550 0 l 550 63 l 668 96 l 668 383 l 354 383 l 354 96 l 472 63 l 472 0 l 49 0 z "},"Ħ":{"ha":1022,"x_min":49,"x_max":974,"o":"m 974 790 l 856 758 l 856 618 l 968 618 l 968 542 l 856 542 l 856 96 l 974 63 l 974 0 l 550 0 l 550 63 l 668 96 l 668 342 l 354 342 l 354 96 l 472 63 l 472 0 l 49 0 l 49 63 l 167 96 l 167 542 l 54 542 l 54 618 l 167 618 l 167 758 l 49 790 l 49 853 l 472 853 l 472 790 l 354 758 l 354 618 l 668 618 l 668 758 l 549 790 l 549 853 l 974 853 l 974 790 m 668 424 l 668 542 l 354 542 l 354 424 l 668 424 z "},"Ĥ":{"ha":1022,"x_min":49,"x_max":974,"o":"m 49 0 m 49 0 l 49 63 l 167 96 l 167 758 l 49 790 l 49 853 l 472 853 l 472 790 l 354 758 l 354 465 l 668 465 l 668 758 l 549 790 l 549 853 l 974 853 l 974 790 l 856 758 l 856 96 l 974 63 l 974 0 l 550 0 l 550 63 l 668 96 l 668 383 l 354 383 l 354 96 l 472 63 l 472 0 l 49 0 m 690 889 l 511 996 l 336 889 l 300 924 l 453 1111 l 571 1111 l 722 924 l 690 889 z "},"Ḥ":{"ha":1022,"x_min":49,"x_max":974,"o":"m 49 0 m 49 0 l 49 63 l 167 96 l 167 758 l 49 790 l 49 853 l 472 853 l 472 790 l 354 758 l 354 465 l 668 465 l 668 758 l 549 790 l 549 853 l 974 853 l 974 790 l 856 758 l 856 96 l 974 63 l 974 0 l 550 0 l 550 63 l 668 96 l 668 383 l 354 383 l 354 96 l 472 63 l 472 0 l 49 0 m 628 -178 q 594 -257 628 -225 q 514 -289 561 -289 q 431 -256 467 -289 q 394 -178 394 -224 q 431 -96 394 -131 q 514 -61 467 -61 q 594 -96 561 -61 q 628 -178 628 -131 z "},"I":{"ha":521,"x_min":49,"x_max":472,"o":"m 50 0 l 50 63 l 167 96 l 167 758 l 49 790 l 49 853 l 472 853 l 472 790 l 354 758 l 354 96 l 472 63 l 472 0 l 50 0 z "},"Ĳ":{"ha":1008,"x_min":49,"x_max":983,"o":"m 49 0 m 50 0 l 50 63 l 167 96 l 167 758 l 49 790 l 49 853 l 472 853 l 472 790 l 354 758 l 354 96 l 472 63 l 472 0 l 50 0 m 633 -208 q 479 -164 546 -208 l 485 -112 l 579 -112 q 658 -69 638 -112 q 679 57 679 -25 l 679 758 l 561 790 l 561 853 l 983 853 l 983 790 l 865 758 l 865 88 q 807 -142 865 -76 q 633 -208 749 -208 z "},"Í":{"ha":521,"x_min":49,"x_max":472,"o":"m 121 881 l 83 929 l 300 1111 l 438 1064 l 438 1032 l 121 881 m 50 0 l 50 63 l 167 96 l 167 758 l 49 790 l 49 853 l 472 853 l 472 790 l 354 758 l 354 96 l 472 63 l 472 0 l 50 0 z "},"Ĭ":{"ha":521,"x_min":49,"x_max":472,"o":"m 49 0 m 50 0 l 50 63 l 167 96 l 167 758 l 49 790 l 49 853 l 472 853 l 472 790 l 354 758 l 354 96 l 472 63 l 472 0 l 50 0 m 256 904 q 125 954 158 904 q 92 1092 92 1004 l 174 1094 q 194 1035 174 1060 q 261 1010 214 1010 q 331 1035 311 1010 q 351 1094 351 1060 l 429 1092 q 392 956 429 1007 q 256 904 354 904 z "},"Ǐ":{"ha":521,"x_min":49,"x_max":472,"o":"m 49 0 m 50 0 l 50 63 l 167 96 l 167 758 l 49 790 l 49 853 l 472 853 l 472 790 l 354 758 l 354 96 l 472 63 l 472 0 l 50 0 m 203 890 l 50 1076 l 86 1111 l 261 1004 l 440 1111 l 472 1076 l 321 890 l 203 890 z "},"Î":{"ha":521,"x_min":49,"x_max":472,"o":"m 85 889 l 49 924 l 201 1111 l 319 1111 l 471 924 l 439 889 l 260 996 l 85 889 m 50 0 l 50 63 l 167 96 l 167 758 l 49 790 l 49 853 l 472 853 l 472 790 l 354 758 l 354 96 l 472 63 l 472 0 l 50 0 z "},"Ȉ":{"ha":521,"x_min":-62,"x_max":472,"o":"m 0 0 m 50 0 l 50 63 l 167 96 l 167 758 l 49 790 l 49 853 l 472 853 l 472 790 l 354 758 l 354 96 l 472 63 l 472 0 l 50 0 m 150 876 l -62 1100 l -62 1131 l 65 1131 l 193 908 l 150 876 m 374 876 l 161 1100 l 161 1131 l 289 1131 l 417 908 l 374 876 z "},"Ï":{"ha":521,"x_min":-6,"x_max":526,"o":"m 103 899 q 26 927 58 899 q -6 999 -6 956 q 27 1070 -6 1040 q 103 1100 60 1100 q 175 1070 144 1100 q 206 999 206 1040 q 176 927 206 956 q 103 899 146 899 m 425 899 q 349 927 381 899 q 318 999 318 956 q 349 1071 318 1042 q 425 1100 381 1100 q 496 1070 465 1100 q 526 999 526 1040 q 496 927 526 956 q 425 899 465 899 m 50 0 l 50 63 l 167 96 l 167 758 l 49 790 l 49 853 l 472 853 l 472 790 l 354 758 l 354 96 l 472 63 l 472 0 l 50 0 z "},"İ":{"ha":521,"x_min":49,"x_max":472,"o":"m 263 882 q 179 915 215 882 q 143 993 143 947 q 179 1075 143 1040 q 263 1110 215 1110 q 343 1075 310 1110 q 376 993 376 1040 q 343 914 376 946 q 263 882 310 882 m 50 0 l 50 63 l 167 96 l 167 758 l 49 790 l 49 853 l 472 853 l 472 790 l 354 758 l 354 96 l 472 63 l 472 0 l 50 0 z "},"Ị":{"ha":521,"x_min":49,"x_max":472,"o":"m 49 0 m 50 0 l 50 63 l 167 96 l 167 758 l 49 790 l 49 853 l 472 853 l 472 790 l 354 758 l 354 96 l 472 63 l 472 0 l 50 0 m 378 -178 q 344 -257 378 -225 q 264 -289 311 -289 q 181 -256 217 -289 q 144 -178 144 -224 q 181 -96 144 -131 q 264 -61 217 -61 q 344 -96 311 -61 q 378 -178 378 -131 z "},"Ì":{"ha":521,"x_min":49,"x_max":472,"o":"m 406 881 l 83 1032 l 89 1064 l 224 1111 l 438 929 l 406 881 m 50 0 l 50 63 l 167 96 l 167 758 l 49 790 l 49 853 l 472 853 l 472 790 l 354 758 l 354 96 l 472 63 l 472 0 l 50 0 z "},"Ỉ":{"ha":521,"x_min":49,"x_max":472,"o":"m 49 0 m 50 0 l 50 63 l 167 96 l 167 758 l 49 790 l 49 853 l 472 853 l 472 790 l 354 758 l 354 96 l 472 63 l 472 0 l 50 0 m 413 1033 q 307 958 413 975 l 299 926 l 224 926 l 218 988 q 310 1029 310 988 q 257 1060 310 1060 q 218 1057 246 1060 l 208 1019 l 153 1019 l 144 1093 q 272 1108 214 1108 q 376 1089 339 1108 q 413 1033 413 1069 z "},"Ȋ":{"ha":521,"x_min":49,"x_max":472,"o":"m 49 0 m 50 0 l 50 63 l 167 96 l 167 758 l 49 790 l 49 853 l 472 853 l 472 790 l 354 758 l 354 96 l 472 63 l 472 0 l 50 0 m 265 1108 q 396 1058 363 1108 q 429 921 429 1008 l 347 918 q 327 978 347 953 q 260 1003 307 1003 q 190 978 210 1003 q 169 918 169 953 l 92 921 q 129 1057 92 1006 q 265 1108 167 1108 z "},"Ī":{"ha":521,"x_min":49,"x_max":472,"o":"m 90 943 l 90 1053 l 425 1053 l 425 943 l 90 943 m 50 0 l 50 63 l 167 96 l 167 758 l 49 790 l 49 853 l 472 853 l 472 790 l 354 758 l 354 96 l 472 63 l 472 0 l 50 0 z "},"Į":{"ha":521,"x_min":49,"x_max":489,"o":"m 338 -324 q 228 -290 263 -324 q 194 -207 194 -257 q 234 -94 194 -149 q 336 0 274 -40 l 50 0 l 50 63 l 167 96 l 167 758 l 49 790 l 49 853 l 472 853 l 472 790 l 354 758 l 354 96 l 472 63 l 472 0 q 353 -71 393 -19 q 313 -174 313 -122 q 374 -237 313 -237 q 457 -207 413 -237 l 489 -237 q 431 -297 468 -271 q 338 -324 393 -324 z "},"Ĩ":{"ha":521,"x_min":0,"x_max":485,"o":"m 365 918 q 229 946 326 918 q 121 969 147 969 q 94 960 106 969 q 74 940 82 950 q 65 926 67 929 l 0 953 q 55 1056 22 1015 q 121 1097 88 1097 q 256 1069 161 1097 q 365 1046 338 1046 q 394 1056 381 1046 q 415 1076 407 1065 q 424 1089 422 1086 l 485 1063 q 365 918 425 918 m 50 0 l 50 63 l 167 96 l 167 758 l 49 790 l 49 853 l 472 853 l 472 790 l 354 758 l 354 96 l 472 63 l 472 0 l 50 0 z "},"J":{"ha":488,"x_min":-42,"x_max":463,"o":"m 113 -208 q -42 -164 25 -208 l -36 -112 l 58 -112 q 138 -69 117 -112 q 158 57 158 -25 l 158 758 l 40 790 l 40 853 l 463 853 l 463 790 l 344 758 l 344 88 q 286 -142 344 -76 q 113 -208 228 -208 z "},"Ĵ":{"ha":488,"x_min":-42,"x_max":463,"o":"m 0 0 m 113 -208 q -42 -164 25 -208 l -36 -112 l 58 -112 q 138 -69 117 -112 q 158 57 158 -25 l 158 758 l 40 790 l 40 853 l 463 853 l 463 790 l 344 758 l 344 88 q 286 -142 344 -76 q 113 -208 228 -208 m 424 889 l 244 996 l 69 889 l 33 924 l 186 1111 l 304 1111 l 456 924 l 424 889 z "},"K":{"ha":824,"x_min":49,"x_max":851,"o":"m 851 0 l 596 0 l 353 351 l 353 94 l 443 64 l 443 0 l 49 0 l 49 63 l 165 96 l 165 758 l 49 790 l 49 853 l 443 853 l 443 789 l 353 758 l 353 482 l 607 769 l 531 790 l 531 853 l 815 853 l 815 793 l 721 763 l 478 476 l 739 101 l 851 63 l 851 0 z "},"Ķ":{"ha":824,"x_min":49,"x_max":851,"o":"m 49 0 l 49 63 l 165 96 l 165 758 l 49 790 l 49 853 l 443 853 l 443 789 l 353 758 l 353 482 l 607 769 l 531 790 l 531 853 l 815 853 l 815 793 l 721 763 l 478 476 l 739 101 l 851 63 l 851 0 l 596 0 l 353 351 l 353 94 l 443 64 l 443 0 l 49 0 m 379 -318 l 392 -61 l 517 -33 l 551 -67 l 440 -328 l 379 -318 z "},"L":{"ha":682,"x_min":49,"x_max":675,"o":"m 675 0 l 49 0 l 49 63 l 165 96 l 165 758 l 49 790 l 49 853 l 471 853 l 471 790 l 353 758 l 353 96 l 561 96 l 597 225 l 675 225 l 675 0 z "},"Ǉ":{"ha":1169,"x_min":49,"x_max":1144,"o":"m 49 0 m 675 0 l 49 0 l 49 63 l 165 96 l 165 758 l 49 790 l 49 853 l 471 853 l 471 790 l 353 758 l 353 96 l 561 96 l 597 225 l 675 225 l 675 0 m 794 -208 q 640 -164 707 -208 l 646 -112 l 740 -112 q 819 -69 799 -112 q 840 57 840 -25 l 840 758 l 722 790 l 722 853 l 1144 853 l 1144 790 l 1026 758 l 1026 88 q 968 -142 1026 -76 q 794 -208 910 -208 z "},"Ĺ":{"ha":682,"x_min":49,"x_max":675,"o":"m 146 881 l 108 929 l 325 1111 l 463 1064 l 463 1032 l 146 881 m 675 0 l 49 0 l 49 63 l 165 96 l 165 758 l 49 790 l 49 853 l 471 853 l 471 790 l 353 758 l 353 96 l 561 96 l 597 225 l 675 225 l 675 0 z "},"Ľ":{"ha":682,"x_min":49,"x_max":675,"o":"m 208 890 l 56 1076 l 92 1111 l 267 1004 l 446 1111 l 478 1076 l 326 890 l 208 890 m 49 0 l 49 63 l 165 96 l 165 758 l 49 790 l 49 853 l 471 853 l 471 790 l 353 758 l 353 96 l 561 96 l 597 225 l 675 225 l 675 0 l 49 0 z "},"Ļ":{"ha":682,"x_min":49,"x_max":675,"o":"m 49 0 l 49 63 l 165 96 l 165 758 l 49 790 l 49 853 l 471 853 l 471 790 l 353 758 l 353 96 l 561 96 l 597 225 l 675 225 l 675 0 l 49 0 m 306 -318 l 318 -61 l 443 -33 l 478 -67 l 367 -328 l 306 -318 z "},"Ŀ":{"ha":682,"x_min":49,"x_max":685,"o":"m 49 0 m 675 0 l 49 0 l 49 63 l 165 96 l 165 758 l 49 790 l 49 853 l 471 853 l 471 790 l 353 758 l 353 96 l 561 96 l 597 225 l 675 225 l 675 0 m 685 579 q 656 505 685 535 q 582 475 626 475 q 506 505 536 475 q 475 579 475 535 q 506 653 475 624 q 582 683 536 683 q 656 653 626 683 q 685 579 685 624 z "},"ǈ":{"ha":1140,"x_min":49,"x_max":1038,"o":"m 49 0 m 675 0 l 49 0 l 49 63 l 165 96 l 165 758 l 49 790 l 49 853 l 471 853 l 471 790 l 353 758 l 353 96 l 561 96 l 597 225 l 675 225 l 675 0 m 1038 897 q 1003 819 1038 851 q 922 786 969 786 q 839 819 875 786 q 803 897 803 851 q 839 979 803 944 q 922 1014 875 1014 q 1003 979 969 1014 q 1038 897 1038 944 m 961 697 l 1022 697 l 1022 78 q 962 -159 1022 -85 q 815 -233 901 -233 q 746 -223 789 -233 q 663 -193 703 -212 l 671 -128 l 733 -128 q 810 -97 785 -128 q 835 -26 835 -67 l 835 561 l 726 576 l 726 643 l 961 697 z "},"Ł":{"ha":682,"x_min":39,"x_max":675,"o":"m 49 0 l 49 63 l 165 96 l 165 319 l 83 271 l 39 349 l 165 424 l 165 758 l 49 790 l 49 853 l 471 853 l 471 790 l 353 758 l 353 536 l 469 606 l 514 528 l 353 431 l 353 96 l 561 96 l 597 225 l 675 225 l 675 0 l 49 0 z "},"M":{"ha":1131,"x_min":26,"x_max":1100,"o":"m 356 0 l 26 0 l 26 63 l 143 96 l 168 758 l 51 790 l 51 853 l 340 853 l 557 203 l 771 853 l 1071 853 l 1071 790 l 953 758 l 982 96 l 1100 63 l 1100 0 l 689 0 l 689 63 l 806 96 l 785 604 l 579 0 l 476 -14 l 257 600 l 238 96 l 356 63 l 356 0 z "},"N":{"ha":999,"x_min":49,"x_max":978,"o":"m 640 853 l 978 853 l 978 790 l 860 758 l 860 0 l 704 -14 l 263 633 l 263 96 l 381 63 l 381 0 l 50 0 l 50 63 l 167 96 l 167 758 l 49 790 l 49 853 l 335 853 l 758 226 l 758 758 l 640 790 l 640 853 z "},"Ǌ":{"ha":1486,"x_min":49,"x_max":1461,"o":"m 49 0 m 640 853 l 978 853 l 978 790 l 860 758 l 860 0 l 704 -14 l 263 633 l 263 96 l 381 63 l 381 0 l 50 0 l 50 63 l 167 96 l 167 758 l 49 790 l 49 853 l 335 853 l 758 226 l 758 758 l 640 790 l 640 853 m 1111 -208 q 957 -164 1024 -208 l 963 -112 l 1057 -112 q 1136 -69 1115 -112 q 1157 57 1157 -25 l 1157 758 l 1039 790 l 1039 853 l 1461 853 l 1461 790 l 1343 758 l 1343 88 q 1285 -142 1343 -76 q 1111 -208 1226 -208 z "},"Ń":{"ha":999,"x_min":49,"x_max":978,"o":"m 414 881 l 376 929 l 593 1111 l 731 1064 l 731 1032 l 414 881 m 640 853 l 978 853 l 978 790 l 860 758 l 860 0 l 704 -14 l 263 633 l 263 96 l 381 63 l 381 0 l 50 0 l 50 63 l 167 96 l 167 758 l 49 790 l 49 853 l 335 853 l 758 226 l 758 758 l 640 790 l 640 853 z "},"Ň":{"ha":999,"x_min":49,"x_max":978,"o":"m 454 890 l 301 1076 l 338 1111 l 513 1004 l 692 1111 l 724 1076 l 572 890 l 454 890 m 704 -14 l 263 633 l 263 96 l 381 63 l 381 0 l 50 0 l 50 63 l 167 96 l 167 758 l 49 790 l 49 853 l 335 853 l 758 226 l 758 758 l 640 790 l 640 853 l 978 853 l 978 790 l 860 758 l 860 0 l 704 -14 z "},"Ņ":{"ha":999,"x_min":49,"x_max":978,"o":"m 704 -14 l 263 633 l 263 96 l 381 63 l 381 0 l 50 0 l 50 63 l 167 96 l 167 758 l 49 790 l 49 853 l 335 853 l 758 226 l 758 758 l 640 790 l 640 853 l 978 853 l 978 790 l 860 758 l 860 0 l 704 -14 m 435 -318 l 447 -61 l 572 -33 l 607 -67 l 496 -328 l 435 -318 z "},"Ṅ":{"ha":999,"x_min":49,"x_max":978,"o":"m 49 0 m 640 853 l 978 853 l 978 790 l 860 758 l 860 0 l 704 -14 l 263 633 l 263 96 l 381 63 l 381 0 l 50 0 l 50 63 l 167 96 l 167 758 l 49 790 l 49 853 l 335 853 l 758 226 l 758 758 l 640 790 l 640 853 m 617 993 q 583 914 617 946 q 503 882 550 882 q 419 915 456 882 q 383 993 383 947 q 419 1075 383 1040 q 503 1110 456 1110 q 583 1075 550 1110 q 617 993 617 1040 z "},"Ŋ":{"ha":999,"x_min":49,"x_max":978,"o":"m 653 -233 q 583 -223 626 -233 q 500 -193 540 -212 l 508 -128 l 571 -128 q 647 -97 622 -128 q 672 -26 672 -67 l 672 33 l 263 633 l 263 96 l 381 63 l 381 0 l 50 0 l 50 63 l 167 96 l 167 758 l 49 790 l 49 853 l 335 853 l 758 226 l 758 758 l 640 790 l 640 853 l 978 853 l 978 790 l 860 758 l 860 78 q 799 -159 860 -85 q 653 -233 739 -233 z "},"Ɲ":{"ha":999,"x_min":-6,"x_max":978,"o":"m 978 853 l 978 790 l 860 758 l 860 0 l 704 -14 l 263 633 l 263 8 q 221 -175 263 -117 q 122 -233 179 -233 q 63 -223 97 -233 q -6 -193 28 -212 l 3 -128 l 65 -128 q 142 -97 117 -128 q 167 -26 167 -67 l 167 758 l 49 790 l 49 853 l 335 853 l 758 226 l 758 758 l 640 790 l 640 853 l 978 853 z "},"ǋ":{"ha":1457,"x_min":49,"x_max":1354,"o":"m 49 0 m 640 853 l 978 853 l 978 790 l 860 758 l 860 0 l 704 -14 l 263 633 l 263 96 l 381 63 l 381 0 l 50 0 l 50 63 l 167 96 l 167 758 l 49 790 l 49 853 l 335 853 l 758 226 l 758 758 l 640 790 l 640 853 m 1354 897 q 1320 819 1354 851 q 1239 786 1286 786 q 1156 819 1192 786 q 1119 897 1119 851 q 1156 979 1119 944 q 1239 1014 1192 1014 q 1320 979 1286 1014 q 1354 897 1354 944 m 1278 697 l 1339 697 l 1339 78 q 1278 -159 1339 -85 q 1132 -233 1218 -233 q 1063 -223 1106 -233 q 979 -193 1019 -212 l 988 -128 l 1050 -128 q 1126 -97 1101 -128 q 1151 -26 1151 -67 l 1151 561 l 1043 576 l 1043 643 l 1278 697 z "},"Ñ":{"ha":999,"x_min":49,"x_max":978,"o":"m 760 1063 q 640 918 700 918 q 504 946 601 918 q 396 969 422 969 q 369 960 381 969 q 349 940 357 950 q 340 926 342 929 l 275 953 q 330 1056 297 1015 q 396 1097 363 1097 q 531 1069 436 1097 q 640 1046 613 1046 q 669 1056 656 1046 q 690 1076 682 1065 q 699 1089 697 1086 l 760 1063 m 640 853 l 978 853 l 978 790 l 860 758 l 860 0 l 704 -14 l 263 633 l 263 96 l 381 63 l 381 0 l 50 0 l 50 63 l 167 96 l 167 758 l 49 790 l 49 853 l 335 853 l 758 226 l 758 758 l 640 790 l 640 853 z "},"O":{"ha":921,"x_min":42,"x_max":879,"o":"m 463 872 q 778 750 676 872 q 879 432 879 628 q 777 111 879 235 q 463 -12 675 -12 q 226 47 321 -12 q 87 206 132 106 q 42 432 42 306 q 85 656 42 557 q 224 814 129 756 q 463 872 318 872 m 678 432 q 631 673 678 571 q 454 775 583 775 q 287 674 331 775 q 243 432 243 572 q 468 86 243 86 q 635 187 592 86 q 678 432 678 288 z "},"Ó":{"ha":921,"x_min":42,"x_max":879,"o":"m 42 0 m 463 872 q 778 750 676 872 q 879 432 879 628 q 777 111 879 235 q 463 -12 675 -12 q 226 47 321 -12 q 87 206 132 106 q 42 432 42 306 q 85 656 42 557 q 224 814 129 756 q 463 872 318 872 m 678 432 q 631 673 678 571 q 454 775 583 775 q 287 674 331 775 q 243 432 243 572 q 468 86 243 86 q 635 187 592 86 q 678 432 678 288 m 408 881 l 371 929 l 588 1111 l 725 1064 l 725 1032 l 408 881 z "},"Ŏ":{"ha":921,"x_min":42,"x_max":879,"o":"m 42 0 m 463 872 q 778 750 676 872 q 879 432 879 628 q 777 111 879 235 q 463 -12 675 -12 q 226 47 321 -12 q 87 206 132 106 q 42 432 42 306 q 85 656 42 557 q 224 814 129 756 q 463 872 318 872 m 678 432 q 631 673 678 571 q 454 775 583 775 q 287 674 331 775 q 243 432 243 572 q 468 86 243 86 q 635 187 592 86 q 678 432 678 288 m 456 904 q 325 954 358 904 q 292 1092 292 1004 l 374 1094 q 394 1035 374 1060 q 461 1010 414 1010 q 531 1035 511 1010 q 551 1094 551 1060 l 629 1092 q 592 956 629 1007 q 456 904 554 904 z "},"Ǒ":{"ha":921,"x_min":42,"x_max":879,"o":"m 42 0 m 463 872 q 778 750 676 872 q 879 432 879 628 q 777 111 879 235 q 463 -12 675 -12 q 226 47 321 -12 q 87 206 132 106 q 42 432 42 306 q 85 656 42 557 q 224 814 129 756 q 463 872 318 872 m 678 432 q 631 673 678 571 q 454 775 583 775 q 287 674 331 775 q 243 432 243 572 q 468 86 243 86 q 635 187 592 86 q 678 432 678 288 m 403 890 l 250 1076 l 286 1111 l 461 1004 l 640 1111 l 672 1076 l 521 890 l 403 890 z "},"Ô":{"ha":921,"x_min":42,"x_max":879,"o":"m 639 889 l 460 996 l 285 889 l 249 924 l 401 1111 l 519 1111 l 671 924 l 639 889 m 463 872 q 778 750 676 872 q 879 432 879 628 q 777 111 879 235 q 463 -12 675 -12 q 226 47 321 -12 q 87 206 132 106 q 42 432 42 306 q 85 656 42 557 q 224 814 129 756 q 463 872 318 872 m 678 432 q 631 673 678 571 q 454 775 583 775 q 287 674 331 775 q 243 432 243 572 q 468 86 243 86 q 635 187 592 86 q 678 432 678 288 z "},"Ố":{"ha":921,"x_min":42,"x_max":900,"o":"m 661 960 l 613 992 l 738 1250 l 883 1250 l 900 1224 l 661 960 m 599 889 l 419 996 l 244 889 l 208 924 l 361 1111 l 479 1111 l 631 924 l 599 889 m 463 872 q 778 750 676 872 q 879 432 879 628 q 777 111 879 235 q 463 -12 675 -12 q 226 47 321 -12 q 87 206 132 106 q 42 432 42 306 q 85 656 42 557 q 224 814 129 756 q 463 872 318 872 m 678 432 q 631 673 678 571 q 454 775 583 775 q 287 674 331 775 q 243 432 243 572 q 468 86 243 86 q 635 187 592 86 q 678 432 678 288 z "},"Ộ":{"ha":921,"x_min":42,"x_max":879,"o":"m 42 0 m 463 872 q 778 750 676 872 q 879 432 879 628 q 777 111 879 235 q 463 -12 675 -12 q 226 47 321 -12 q 87 206 132 106 q 42 432 42 306 q 85 656 42 557 q 224 814 129 756 q 463 872 318 872 m 678 432 q 631 673 678 571 q 454 775 583 775 q 287 674 331 775 q 243 432 243 572 q 468 86 243 86 q 635 187 592 86 q 678 432 678 288 m 578 -178 q 544 -257 578 -225 q 464 -289 511 -289 q 381 -256 417 -289 q 344 -178 344 -224 q 381 -96 344 -131 q 464 -61 417 -61 q 544 -96 511 -61 q 578 -178 578 -131 m 640 889 l 461 996 l 286 889 l 250 924 l 403 1111 l 521 1111 l 672 924 l 640 889 z "},"Ồ":{"ha":921,"x_min":42,"x_max":879,"o":"m 699 958 l 460 1222 l 476 1249 l 622 1249 l 747 990 l 699 958 m 599 889 l 419 996 l 244 889 l 208 924 l 361 1111 l 479 1111 l 631 924 l 599 889 m 463 872 q 778 750 676 872 q 879 432 879 628 q 777 111 879 235 q 463 -12 675 -12 q 226 47 321 -12 q 87 206 132 106 q 42 432 42 306 q 85 656 42 557 q 224 814 129 756 q 463 872 318 872 m 678 432 q 631 673 678 571 q 454 775 583 775 q 287 674 331 775 q 243 432 243 572 q 468 86 243 86 q 635 187 592 86 q 678 432 678 288 z "},"Ổ":{"ha":921,"x_min":42,"x_max":879,"o":"m 42 0 m 463 872 q 778 750 676 872 q 879 432 879 628 q 777 111 879 235 q 463 -12 675 -12 q 226 47 321 -12 q 87 206 132 106 q 42 432 42 306 q 85 656 42 557 q 224 814 129 756 q 463 872 318 872 m 678 432 q 631 673 678 571 q 454 775 583 775 q 287 674 331 775 q 243 432 243 572 q 468 86 243 86 q 635 187 592 86 q 678 432 678 288 m 640 889 l 461 996 l 286 889 l 250 924 l 403 1111 l 521 1111 l 672 924 l 640 889 m 788 1175 q 682 1100 788 1117 l 674 1068 l 599 1068 l 593 1129 q 685 1171 685 1129 q 632 1201 685 1201 q 593 1199 621 1201 l 583 1161 l 528 1161 l 519 1235 q 647 1250 589 1250 q 751 1231 714 1250 q 788 1175 788 1211 z "},"Ỗ":{"ha":921,"x_min":42,"x_max":879,"o":"m 42 0 m 463 872 q 778 750 676 872 q 879 432 879 628 q 777 111 879 235 q 463 -12 675 -12 q 226 47 321 -12 q 87 206 132 106 q 42 432 42 306 q 85 656 42 557 q 224 814 129 756 q 463 872 318 872 m 678 432 q 631 673 678 571 q 454 775 583 775 q 287 674 331 775 q 243 432 243 572 q 468 86 243 86 q 635 187 592 86 q 678 432 678 288 m 640 889 l 461 996 l 286 889 l 250 924 l 403 1111 l 521 1111 l 672 924 l 640 889 m 706 1265 q 586 1121 646 1121 q 450 1149 547 1121 q 342 1172 368 1172 q 315 1163 326 1172 q 295 1142 303 1153 q 286 1129 288 1132 l 221 1156 q 276 1259 243 1218 q 342 1300 308 1300 q 476 1272 382 1300 q 586 1249 558 1249 q 615 1258 601 1249 q 635 1278 628 1268 q 644 1292 643 1289 l 706 1265 z "},"Ȍ":{"ha":921,"x_min":42,"x_max":879,"o":"m 42 0 m 463 872 q 778 750 676 872 q 879 432 879 628 q 777 111 879 235 q 463 -12 675 -12 q 226 47 321 -12 q 87 206 132 106 q 42 432 42 306 q 85 656 42 557 q 224 814 129 756 q 463 872 318 872 m 678 432 q 631 673 678 571 q 454 775 583 775 q 287 674 331 775 q 243 432 243 572 q 468 86 243 86 q 635 187 592 86 q 678 432 678 288 m 350 876 l 138 1100 l 138 1131 l 265 1131 l 393 908 l 350 876 m 574 876 l 361 1100 l 361 1131 l 489 1131 l 617 908 l 574 876 z "},"Ö":{"ha":921,"x_min":42,"x_max":879,"o":"m 406 999 q 376 927 406 956 q 303 899 346 899 q 226 927 258 899 q 194 999 194 956 q 227 1070 194 1040 q 303 1100 260 1100 q 375 1070 344 1100 q 406 999 406 1040 m 726 999 q 696 927 726 956 q 625 899 665 899 q 549 927 581 899 q 518 999 518 956 q 549 1071 518 1042 q 625 1100 581 1100 q 696 1070 665 1100 q 726 999 726 1040 m 463 872 q 778 750 676 872 q 879 432 879 628 q 777 111 879 235 q 463 -12 675 -12 q 226 47 321 -12 q 87 206 132 106 q 42 432 42 306 q 85 656 42 557 q 224 814 129 756 q 463 872 318 872 m 678 432 q 631 673 678 571 q 454 775 583 775 q 287 674 331 775 q 243 432 243 572 q 468 86 243 86 q 635 187 592 86 q 678 432 678 288 z "},"Ọ":{"ha":921,"x_min":42,"x_max":879,"o":"m 42 0 m 463 872 q 778 750 676 872 q 879 432 879 628 q 777 111 879 235 q 463 -12 675 -12 q 226 47 321 -12 q 87 206 132 106 q 42 432 42 306 q 85 656 42 557 q 224 814 129 756 q 463 872 318 872 m 678 432 q 631 673 678 571 q 454 775 583 775 q 287 674 331 775 q 243 432 243 572 q 468 86 243 86 q 635 187 592 86 q 678 432 678 288 m 578 -178 q 544 -257 578 -225 q 464 -289 511 -289 q 381 -256 417 -289 q 344 -178 344 -224 q 381 -96 344 -131 q 464 -61 417 -61 q 544 -96 511 -61 q 578 -178 578 -131 z "},"Ò":{"ha":921,"x_min":42,"x_max":879,"o":"m 578 881 l 256 1032 l 261 1064 l 396 1111 l 610 929 l 578 881 m 463 872 q 778 750 676 872 q 879 432 879 628 q 777 111 879 235 q 463 -12 675 -12 q 226 47 321 -12 q 87 206 132 106 q 42 432 42 306 q 85 656 42 557 q 224 814 129 756 q 463 872 318 872 m 678 432 q 631 673 678 571 q 454 775 583 775 q 287 674 331 775 q 243 432 243 572 q 468 86 243 86 q 635 187 592 86 q 678 432 678 288 z "},"Ỏ":{"ha":921,"x_min":42,"x_max":879,"o":"m 42 0 m 463 872 q 778 750 676 872 q 879 432 879 628 q 777 111 879 235 q 463 -12 675 -12 q 226 47 321 -12 q 87 206 132 106 q 42 432 42 306 q 85 656 42 557 q 224 814 129 756 q 463 872 318 872 m 678 432 q 631 673 678 571 q 454 775 583 775 q 287 674 331 775 q 243 432 243 572 q 468 86 243 86 q 635 187 592 86 q 678 432 678 288 m 613 1033 q 507 958 613 975 l 499 926 l 424 926 l 418 988 q 510 1029 510 988 q 457 1060 510 1060 q 418 1057 446 1060 l 408 1019 l 353 1019 l 344 1093 q 472 1108 414 1108 q 576 1089 539 1108 q 613 1033 613 1069 z "},"Ơ":{"ha":921,"x_min":42,"x_max":946,"o":"m 946 901 q 898 805 946 844 q 778 749 850 765 q 879 432 879 633 q 777 111 879 235 q 463 -12 675 -12 q 226 47 321 -12 q 87 206 132 106 q 42 432 42 306 q 85 656 42 557 q 224 814 129 756 q 463 872 318 872 q 703 813 606 872 l 732 813 q 790 828 771 813 q 810 886 810 843 q 803 943 810 913 l 811 961 l 928 981 q 941 940 936 963 q 946 901 946 918 m 468 86 q 635 187 592 86 q 678 432 678 288 q 631 673 678 571 q 454 775 583 775 q 287 674 331 775 q 243 432 243 572 q 468 86 243 86 z "},"Ớ":{"ha":921,"x_min":42,"x_max":946,"o":"m 42 0 m 946 901 q 898 805 946 844 q 778 749 850 765 q 879 432 879 633 q 777 111 879 235 q 463 -12 675 -12 q 226 47 321 -12 q 87 206 132 106 q 42 432 42 306 q 85 656 42 557 q 224 814 129 756 q 463 872 318 872 q 703 813 606 872 l 732 813 q 790 828 771 813 q 810 886 810 843 q 803 943 810 913 l 811 961 l 928 981 q 941 940 936 963 q 946 901 946 918 m 468 86 q 635 187 592 86 q 678 432 678 288 q 631 673 678 571 q 454 775 583 775 q 287 674 331 775 q 243 432 243 572 q 468 86 243 86 m 408 881 l 371 929 l 588 1111 l 725 1064 l 725 1032 l 408 881 z "},"Ợ":{"ha":921,"x_min":42,"x_max":946,"o":"m 42 0 m 946 901 q 898 805 946 844 q 778 749 850 765 q 879 432 879 633 q 777 111 879 235 q 463 -12 675 -12 q 226 47 321 -12 q 87 206 132 106 q 42 432 42 306 q 85 656 42 557 q 224 814 129 756 q 463 872 318 872 q 703 813 606 872 l 732 813 q 790 828 771 813 q 810 886 810 843 q 803 943 810 913 l 811 961 l 928 981 q 941 940 936 963 q 946 901 946 918 m 468 86 q 635 187 592 86 q 678 432 678 288 q 631 673 678 571 q 454 775 583 775 q 287 674 331 775 q 243 432 243 572 q 468 86 243 86 m 578 -178 q 544 -257 578 -225 q 464 -289 511 -289 q 381 -256 417 -289 q 344 -178 344 -224 q 381 -96 344 -131 q 464 -61 417 -61 q 544 -96 511 -61 q 578 -178 578 -131 z "},"Ờ":{"ha":921,"x_min":42,"x_max":946,"o":"m 540 929 l 508 881 l 186 1032 l 192 1064 l 326 1111 l 540 929 m 946 901 q 898 805 946 844 q 778 749 850 765 q 879 432 879 633 q 777 111 879 235 q 463 -12 675 -12 q 226 47 321 -12 q 87 206 132 106 q 42 432 42 306 q 85 656 42 557 q 224 814 129 756 q 463 872 318 872 q 703 813 606 872 l 732 813 q 790 828 771 813 q 810 886 810 843 q 803 943 810 913 l 811 961 l 928 981 q 941 940 936 963 q 946 901 946 918 m 468 86 q 635 187 592 86 q 678 432 678 288 q 631 673 678 571 q 454 775 583 775 q 287 674 331 775 q 243 432 243 572 q 468 86 243 86 z "},"Ở":{"ha":921,"x_min":42,"x_max":946,"o":"m 42 0 m 946 901 q 898 805 946 844 q 778 749 850 765 q 879 432 879 633 q 777 111 879 235 q 463 -12 675 -12 q 226 47 321 -12 q 87 206 132 106 q 42 432 42 306 q 85 656 42 557 q 224 814 129 756 q 463 872 318 872 q 703 813 606 872 l 732 813 q 790 828 771 813 q 810 886 810 843 q 803 943 810 913 l 811 961 l 928 981 q 941 940 936 963 q 946 901 946 918 m 468 86 q 635 187 592 86 q 678 432 678 288 q 631 673 678 571 q 454 775 583 775 q 287 674 331 775 q 243 432 243 572 q 468 86 243 86 m 613 1033 q 507 958 613 975 l 499 926 l 424 926 l 418 988 q 510 1029 510 988 q 457 1060 510 1060 q 418 1057 446 1060 l 408 1019 l 353 1019 l 344 1093 q 472 1108 414 1108 q 576 1089 539 1108 q 613 1033 613 1069 z "},"Ỡ":{"ha":921,"x_min":42,"x_max":946,"o":"m 42 0 m 946 901 q 898 805 946 844 q 778 749 850 765 q 879 432 879 633 q 777 111 879 235 q 463 -12 675 -12 q 226 47 321 -12 q 87 206 132 106 q 42 432 42 306 q 85 656 42 557 q 224 814 129 756 q 463 872 318 872 q 703 813 606 872 l 732 813 q 790 828 771 813 q 810 886 810 843 q 803 943 810 913 l 811 961 l 928 981 q 941 940 936 963 q 946 901 946 918 m 468 86 q 635 187 592 86 q 678 432 678 288 q 631 673 678 571 q 454 775 583 775 q 287 674 331 775 q 243 432 243 572 q 468 86 243 86 m 703 1063 q 583 918 643 918 q 447 946 544 918 q 339 969 365 969 q 312 960 324 969 q 292 940 300 950 q 283 926 285 929 l 218 953 q 273 1056 240 1015 q 339 1097 306 1097 q 474 1069 379 1097 q 583 1046 556 1046 q 612 1056 599 1046 q 633 1076 625 1065 q 642 1089 640 1086 l 703 1063 z "},"Ő":{"ha":921,"x_min":42,"x_max":879,"o":"m 318 876 l 275 908 l 403 1131 l 531 1131 l 531 1100 l 318 876 m 542 876 l 499 908 l 626 1131 l 754 1131 l 754 1100 l 542 876 m 463 -12 q 226 47 321 -12 q 87 206 132 106 q 42 432 42 306 q 85 656 42 557 q 224 814 129 756 q 463 872 318 872 q 778 750 676 872 q 879 432 879 628 q 777 111 879 235 q 463 -12 675 -12 m 468 86 q 635 187 592 86 q 678 432 678 288 q 631 673 678 571 q 454 775 583 775 q 287 674 331 775 q 243 432 243 572 q 468 86 243 86 z "},"Ȏ":{"ha":921,"x_min":42,"x_max":879,"o":"m 42 0 m 463 872 q 778 750 676 872 q 879 432 879 628 q 777 111 879 235 q 463 -12 675 -12 q 226 47 321 -12 q 87 206 132 106 q 42 432 42 306 q 85 656 42 557 q 224 814 129 756 q 463 872 318 872 m 678 432 q 631 673 678 571 q 454 775 583 775 q 287 674 331 775 q 243 432 243 572 q 468 86 243 86 q 635 187 592 86 q 678 432 678 288 m 465 1108 q 596 1058 563 1108 q 629 921 629 1008 l 547 918 q 527 978 547 953 q 460 1003 507 1003 q 390 978 410 1003 q 369 918 369 953 l 292 921 q 329 1057 292 1006 q 465 1108 367 1108 z "},"Ō":{"ha":921,"x_min":42,"x_max":879,"o":"m 293 1053 l 628 1053 l 628 943 l 293 943 l 293 1053 m 463 872 q 778 750 676 872 q 879 432 879 628 q 777 111 879 235 q 463 -12 675 -12 q 226 47 321 -12 q 87 206 132 106 q 42 432 42 306 q 85 656 42 557 q 224 814 129 756 q 463 872 318 872 m 678 432 q 631 673 678 571 q 454 775 583 775 q 287 674 331 775 q 243 432 243 572 q 468 86 243 86 q 635 187 592 86 q 678 432 678 288 z "},"Ǫ":{"ha":921,"x_min":42,"x_max":879,"o":"m 701 -185 q 786 -154 743 -185 l 818 -185 q 660 -271 764 -271 q 557 -236 590 -271 q 524 -154 524 -201 q 542 -78 524 -119 q 597 4 561 -37 q 463 -12 538 -12 q 226 47 321 -12 q 87 206 132 106 q 42 432 42 306 q 85 656 42 557 q 224 814 129 756 q 463 872 318 872 q 778 750 676 872 q 879 432 879 628 q 844 224 879 317 q 736 71 808 131 q 668 -19 694 36 q 642 -119 642 -75 q 701 -185 642 -185 m 468 86 q 635 187 592 86 q 678 432 678 288 q 631 673 678 571 q 454 775 583 775 q 287 674 331 775 q 243 432 243 572 q 468 86 243 86 z "},"Ø":{"ha":921,"x_min":42,"x_max":879,"o":"m 243 36 q 92 193 142 89 q 42 432 42 297 q 85 656 42 557 q 224 814 129 756 q 463 872 318 872 q 564 864 518 872 l 611 983 l 728 983 l 668 831 q 828 676 776 781 q 879 432 879 571 q 777 111 879 235 q 463 -12 675 -12 q 343 0 397 -12 l 292 -131 l 179 -131 l 243 36 m 529 772 q 454 785 496 785 q 243 432 243 785 q 296 169 243 258 l 529 772 m 468 75 q 635 178 592 75 q 678 432 678 282 q 617 700 678 610 l 379 92 q 468 75 417 75 z "},"Ǿ":{"ha":921,"x_min":42,"x_max":879,"o":"m 42 0 m 243 36 q 92 193 142 89 q 42 432 42 297 q 85 656 42 557 q 224 814 129 756 q 463 872 318 872 q 564 864 518 872 l 611 983 l 728 983 l 668 831 q 828 676 776 781 q 879 432 879 571 q 777 111 879 235 q 463 -12 675 -12 q 343 0 397 -12 l 292 -131 l 179 -131 l 243 36 m 529 772 q 454 785 496 785 q 243 432 243 785 q 296 169 243 258 l 529 772 m 468 75 q 635 178 592 75 q 678 432 678 282 q 617 700 678 610 l 379 92 q 468 75 417 75 m 311 881 l 274 929 l 490 1111 l 628 1064 l 628 1032 l 311 881 z "},"Õ":{"ha":921,"x_min":42,"x_max":879,"o":"m 703 1063 q 583 918 643 918 q 447 946 544 918 q 339 969 365 969 q 312 960 324 969 q 292 940 300 950 q 283 926 285 929 l 218 953 q 273 1056 240 1015 q 339 1097 306 1097 q 474 1069 379 1097 q 583 1046 556 1046 q 612 1056 599 1046 q 633 1076 625 1065 q 642 1089 640 1086 l 703 1063 m 463 872 q 778 750 676 872 q 879 432 879 628 q 777 111 879 235 q 463 -12 675 -12 q 226 47 321 -12 q 87 206 132 106 q 42 432 42 306 q 85 656 42 557 q 224 814 129 756 q 463 872 318 872 m 678 432 q 631 673 678 571 q 454 775 583 775 q 287 674 331 775 q 243 432 243 572 q 468 86 243 86 q 635 187 592 86 q 678 432 678 288 z "},"Œ":{"ha":1129,"x_min":42,"x_max":1106,"o":"m 1078 650 l 1000 650 l 969 758 l 749 758 l 749 458 l 888 458 l 911 550 l 985 550 l 985 285 l 911 285 l 885 381 l 749 381 l 749 96 l 992 96 l 1028 225 l 1106 225 l 1106 0 l 449 0 q 143 119 244 0 q 42 432 42 239 q 142 738 42 624 q 447 853 242 853 l 1078 853 l 1078 650 m 565 758 q 440 778 510 778 q 240 432 240 778 q 286 178 240 282 q 454 75 332 75 q 565 96 514 75 l 565 758 z "},"P":{"ha":763,"x_min":49,"x_max":749,"o":"m 446 853 q 594 824 525 853 q 706 740 664 796 q 749 607 749 685 q 702 455 749 515 q 583 366 656 394 q 429 338 510 338 q 390 339 418 338 q 354 343 363 340 l 354 96 l 501 64 l 501 0 l 50 0 l 50 63 l 167 96 l 167 758 l 49 790 l 49 853 l 446 853 m 354 411 q 396 407 368 407 q 516 460 474 407 q 558 597 558 514 q 524 719 558 674 q 431 765 489 765 q 354 758 383 765 l 354 411 z "},"Þ":{"ha":753,"x_min":49,"x_max":718,"o":"m 50 63 l 167 96 l 167 758 l 49 790 l 49 853 l 472 853 l 472 790 l 354 758 l 354 660 l 425 660 q 637 601 556 660 q 718 433 718 542 q 676 292 718 349 q 566 210 633 236 q 424 185 499 185 q 388 186 413 185 q 354 190 363 188 l 354 96 l 472 63 l 472 0 l 50 0 l 50 63 m 393 254 q 504 301 465 254 q 543 424 543 347 q 506 535 543 496 q 393 574 468 574 l 354 574 l 354 258 q 393 254 368 254 z "},"Q":{"ha":919,"x_min":42,"x_max":944,"o":"m 944 -169 q 867 -203 914 -187 q 782 -218 819 -218 q 694 -200 743 -218 q 567 -133 644 -182 l 351 0 q 119 149 197 32 q 42 432 42 265 q 145 749 42 626 q 461 872 249 872 q 776 750 675 872 q 878 432 878 628 q 799 144 878 265 q 556 -7 719 24 q 843 -118 796 -118 l 939 -118 l 944 -169 m 242 432 q 467 88 242 88 q 635 187 593 88 q 678 432 678 286 q 630 673 678 571 q 453 775 582 775 q 285 674 329 775 q 242 432 242 572 z "},"R":{"ha":831,"x_min":49,"x_max":838,"o":"m 581 0 q 485 253 517 176 q 433 351 453 331 q 389 372 414 372 l 354 372 l 354 96 l 457 63 l 457 0 l 50 0 l 50 63 l 167 96 l 167 758 l 49 790 l 49 853 l 442 853 q 676 797 600 853 q 753 646 753 742 q 554 410 753 471 q 608 381 589 399 q 646 326 628 363 q 704 197 664 290 l 749 94 l 838 63 l 838 0 l 581 0 m 411 449 q 524 496 483 449 q 564 622 564 543 q 526 731 564 694 q 421 768 488 768 q 354 758 381 768 l 354 449 l 411 449 z "},"Ŕ":{"ha":831,"x_min":49,"x_max":838,"o":"m 303 881 l 265 929 l 482 1111 l 619 1064 l 619 1032 l 303 881 m 581 0 q 485 253 517 176 q 433 351 453 331 q 389 372 414 372 l 354 372 l 354 96 l 457 63 l 457 0 l 50 0 l 50 63 l 167 96 l 167 758 l 49 790 l 49 853 l 442 853 q 676 797 600 853 q 753 646 753 742 q 554 410 753 471 q 608 381 589 399 q 646 326 628 363 q 704 197 664 290 l 749 94 l 838 63 l 838 0 l 581 0 m 411 449 q 524 496 483 449 q 564 622 564 543 q 526 731 564 694 q 421 768 488 768 q 354 758 381 768 l 354 449 l 411 449 z "},"Ř":{"ha":831,"x_min":49,"x_max":838,"o":"m 360 890 l 207 1076 l 243 1111 l 418 1004 l 597 1111 l 629 1076 l 478 890 l 360 890 m 50 63 l 167 96 l 167 758 l 49 790 l 49 853 l 442 853 q 676 797 600 853 q 753 646 753 742 q 554 410 753 471 q 608 381 589 399 q 646 326 628 363 q 704 197 664 290 l 749 94 l 838 63 l 838 0 l 581 0 q 485 253 517 176 q 433 351 453 331 q 389 372 414 372 l 354 372 l 354 96 l 457 63 l 457 0 l 50 0 l 50 63 m 411 449 q 524 496 483 449 q 564 622 564 543 q 526 731 564 694 q 421 768 488 768 q 354 758 381 768 l 354 449 l 411 449 z "},"Ŗ":{"ha":831,"x_min":49,"x_max":838,"o":"m 50 63 l 167 96 l 167 758 l 49 790 l 49 853 l 442 853 q 676 797 600 853 q 753 646 753 742 q 554 410 753 471 q 608 381 589 399 q 646 326 628 363 q 704 197 664 290 l 749 94 l 838 63 l 838 0 l 581 0 q 485 253 517 176 q 433 351 453 331 q 389 372 414 372 l 354 372 l 354 96 l 457 63 l 457 0 l 50 0 l 50 63 m 411 449 q 524 496 483 449 q 564 622 564 543 q 526 731 564 694 q 421 768 488 768 q 354 758 381 768 l 354 449 l 411 449 m 382 -318 l 394 -61 l 519 -33 l 554 -67 l 443 -328 l 382 -318 z "},"Ȑ":{"ha":831,"x_min":49,"x_max":838,"o":"m 49 0 m 581 0 q 485 253 517 176 q 433 351 453 331 q 389 372 414 372 l 354 372 l 354 96 l 457 63 l 457 0 l 50 0 l 50 63 l 167 96 l 167 758 l 49 790 l 49 853 l 442 853 q 676 797 600 853 q 753 646 753 742 q 554 410 753 471 q 608 381 589 399 q 646 326 628 363 q 704 197 664 290 l 749 94 l 838 63 l 838 0 l 581 0 m 411 449 q 524 496 483 449 q 564 622 564 543 q 526 731 564 694 q 421 768 488 768 q 354 758 381 768 l 354 449 l 411 449 m 304 876 l 92 1100 l 92 1131 l 219 1131 l 347 908 l 304 876 m 528 876 l 315 1100 l 315 1131 l 443 1131 l 571 908 l 528 876 z "},"Ṛ":{"ha":831,"x_min":49,"x_max":838,"o":"m 49 0 m 581 0 q 485 253 517 176 q 433 351 453 331 q 389 372 414 372 l 354 372 l 354 96 l 457 63 l 457 0 l 50 0 l 50 63 l 167 96 l 167 758 l 49 790 l 49 853 l 442 853 q 676 797 600 853 q 753 646 753 742 q 554 410 753 471 q 608 381 589 399 q 646 326 628 363 q 704 197 664 290 l 749 94 l 838 63 l 838 0 l 581 0 m 411 449 q 524 496 483 449 q 564 622 564 543 q 526 731 564 694 q 421 768 488 768 q 354 758 381 768 l 354 449 l 411 449 m 532 -178 q 499 -257 532 -225 q 418 -289 465 -289 q 335 -256 371 -289 q 299 -178 299 -224 q 335 -96 299 -131 q 418 -61 371 -61 q 499 -96 465 -61 q 532 -178 532 -131 z "},"Ȓ":{"ha":831,"x_min":49,"x_max":838,"o":"m 49 0 m 581 0 q 485 253 517 176 q 433 351 453 331 q 389 372 414 372 l 354 372 l 354 96 l 457 63 l 457 0 l 50 0 l 50 63 l 167 96 l 167 758 l 49 790 l 49 853 l 442 853 q 676 797 600 853 q 753 646 753 742 q 554 410 753 471 q 608 381 589 399 q 646 326 628 363 q 704 197 664 290 l 749 94 l 838 63 l 838 0 l 581 0 m 411 449 q 524 496 483 449 q 564 622 564 543 q 526 731 564 694 q 421 768 488 768 q 354 758 381 768 l 354 449 l 411 449 m 419 1108 q 550 1058 517 1108 q 583 921 583 1008 l 501 918 q 481 978 501 953 q 414 1003 461 1003 q 344 978 364 1003 q 324 918 324 953 l 246 921 q 283 1057 246 1006 q 419 1108 321 1108 z "},"S":{"ha":671,"x_min":42,"x_max":625,"o":"m 57 618 q 135 806 57 739 q 353 872 213 872 q 596 835 479 872 l 581 633 l 507 633 l 476 760 q 426 770 460 765 q 369 775 392 775 q 258 749 300 775 q 215 664 215 724 q 247 584 215 615 q 338 528 278 553 l 464 475 q 587 383 549 439 q 625 249 625 328 q 542 57 625 126 q 299 -12 458 -12 q 166 -1 236 -12 q 42 31 96 10 l 63 229 l 140 229 l 163 108 q 296 88 235 88 q 412 115 369 88 q 454 194 454 143 q 427 269 454 242 q 335 326 400 297 l 207 382 q 101 467 146 408 q 57 618 57 525 z "},"Ś":{"ha":671,"x_min":42,"x_max":625,"o":"m 225 881 l 188 929 l 404 1111 l 542 1064 l 542 1032 l 225 881 m 57 618 q 135 806 57 739 q 353 872 213 872 q 596 835 479 872 l 581 633 l 507 633 l 476 760 q 426 770 460 765 q 369 775 392 775 q 258 749 300 775 q 215 664 215 724 q 247 584 215 615 q 338 528 278 553 l 464 475 q 587 383 549 439 q 625 249 625 328 q 542 57 625 126 q 299 -12 458 -12 q 166 -1 236 -12 q 42 31 96 10 l 63 229 l 140 229 l 163 108 q 296 88 235 88 q 412 115 369 88 q 454 194 454 143 q 427 269 454 242 q 335 326 400 297 l 207 382 q 101 467 146 408 q 57 618 57 525 z "},"Ꞌ":{"ha":211,"x_min":25,"x_max":218,"o":"m 96 364 l 25 376 l 42 851 l 176 853 l 218 814 l 96 364 z "},"Š":{"ha":671,"x_min":42,"x_max":625,"o":"m 288 890 l 135 1076 l 171 1111 l 346 1004 l 525 1111 l 557 1076 l 406 890 l 288 890 m 299 -12 q 166 -1 236 -12 q 42 31 96 10 l 63 229 l 140 229 l 163 108 q 296 88 235 88 q 412 115 369 88 q 454 194 454 143 q 427 269 454 242 q 335 326 400 297 l 207 382 q 101 467 146 408 q 57 618 57 525 q 135 806 57 739 q 353 872 213 872 q 596 835 479 872 l 581 633 l 507 633 l 476 760 q 426 770 460 765 q 369 775 392 775 q 258 749 300 775 q 215 664 215 724 q 247 584 215 615 q 338 528 278 553 l 464 475 q 587 383 549 439 q 625 249 625 328 q 542 57 625 126 q 299 -12 458 -12 z "},"Ş":{"ha":671,"x_min":42,"x_max":625,"o":"m 268 -306 q 193 -290 225 -306 l 204 -235 q 243 -244 222 -244 q 302 -225 281 -244 q 324 -182 324 -206 q 306 -144 324 -160 q 247 -128 288 -129 l 238 -101 l 269 -11 q 149 2 210 -8 q 42 31 89 13 l 63 229 l 140 229 l 163 108 q 296 88 235 88 q 412 115 369 88 q 454 194 454 143 q 427 269 454 242 q 335 326 400 297 l 207 382 q 101 467 146 408 q 57 618 57 525 q 135 806 57 739 q 353 872 213 872 q 596 835 479 872 l 581 633 l 507 633 l 476 760 q 426 770 460 765 q 369 775 392 775 q 258 749 300 775 q 215 664 215 724 q 247 584 215 615 q 338 528 278 553 l 464 475 q 587 383 549 439 q 625 249 625 328 q 551 65 625 133 q 335 -11 476 -3 l 319 -64 q 422 -92 388 -64 q 457 -164 457 -119 q 431 -234 457 -201 q 360 -286 404 -267 q 268 -306 317 -306 z "},"Ŝ":{"ha":671,"x_min":42,"x_max":625,"o":"m 42 0 m 57 618 q 135 806 57 739 q 353 872 213 872 q 596 835 479 872 l 581 633 l 507 633 l 476 760 q 426 770 460 765 q 369 775 392 775 q 258 749 300 775 q 215 664 215 724 q 247 584 215 615 q 338 528 278 553 l 464 475 q 587 383 549 439 q 625 249 625 328 q 542 57 625 126 q 299 -12 458 -12 q 166 -1 236 -12 q 42 31 96 10 l 63 229 l 140 229 l 163 108 q 296 88 235 88 q 412 115 369 88 q 454 194 454 143 q 427 269 454 242 q 335 326 400 297 l 207 382 q 101 467 146 408 q 57 618 57 525 m 515 889 l 336 996 l 161 889 l 125 924 l 278 1111 l 396 1111 l 547 924 l 515 889 z "},"Ș":{"ha":671,"x_min":42,"x_max":625,"o":"m 299 -12 q 166 -1 236 -12 q 42 31 96 10 l 63 229 l 140 229 l 163 108 q 296 88 235 88 q 412 115 369 88 q 454 194 454 143 q 427 269 454 242 q 335 326 400 297 l 207 382 q 101 467 146 408 q 57 618 57 525 q 135 806 57 739 q 353 872 213 872 q 596 835 479 872 l 581 633 l 507 633 l 476 760 q 426 770 460 765 q 369 775 392 775 q 258 749 300 775 q 215 664 215 724 q 247 584 215 615 q 338 528 278 553 l 464 475 q 587 383 549 439 q 625 249 625 328 q 542 57 625 126 q 299 -12 458 -12 m 250 -318 l 263 -61 l 388 -33 l 422 -67 l 311 -328 l 250 -318 z "},"Ṣ":{"ha":671,"x_min":42,"x_max":625,"o":"m 42 0 m 57 618 q 135 806 57 739 q 353 872 213 872 q 596 835 479 872 l 581 633 l 507 633 l 476 760 q 426 770 460 765 q 369 775 392 775 q 258 749 300 775 q 215 664 215 724 q 247 584 215 615 q 338 528 278 553 l 464 475 q 587 383 549 439 q 625 249 625 328 q 542 57 625 126 q 299 -12 458 -12 q 166 -1 236 -12 q 42 31 96 10 l 63 229 l 140 229 l 163 108 q 296 88 235 88 q 412 115 369 88 q 454 194 454 143 q 427 269 454 242 q 335 326 400 297 l 207 382 q 101 467 146 408 q 57 618 57 525 m 453 -178 q 419 -257 453 -225 q 339 -289 386 -289 q 256 -256 292 -289 q 219 -178 219 -224 q 256 -96 219 -131 q 339 -61 292 -61 q 419 -96 386 -61 q 453 -178 453 -131 z "},"ẞ":{"ha":867,"x_min":8,"x_max":835,"o":"m 8 63 l 126 96 l 126 536 q 167 708 126 632 q 290 828 208 785 q 488 872 371 872 q 642 849 565 872 q 763 792 719 826 l 769 746 l 594 446 q 776 377 717 438 q 835 225 835 317 q 765 54 835 121 q 568 -12 694 -12 q 464 -1 518 -12 q 368 31 410 10 l 389 229 l 467 229 l 490 104 q 565 88 526 88 q 638 118 611 88 q 664 206 664 149 q 601 324 664 288 q 408 361 538 361 l 383 407 l 590 754 q 478 768 538 768 q 351 713 388 768 q 314 556 314 657 l 314 0 l 8 0 l 8 63 z "},"Ə":{"ha":907,"x_min":42,"x_max":865,"o":"m 440 -12 q 142 97 243 -12 q 42 426 42 207 q 43 465 42 449 l 663 465 q 601 686 657 601 q 424 771 546 771 q 238 724 332 771 l 203 604 l 129 604 l 118 800 q 435 872 272 872 q 762 749 658 872 q 865 428 865 626 q 755 102 865 217 q 440 -12 644 -12 m 453 86 q 663 383 650 86 l 244 383 q 453 86 258 86 z "},"T":{"ha":749,"x_min":10,"x_max":739,"o":"m 10 853 l 739 853 l 731 632 l 651 632 l 624 758 l 468 758 l 468 96 l 586 63 l 586 0 l 164 0 l 164 63 l 281 96 l 281 758 l 122 758 l 96 632 l 19 632 l 10 853 z "},"Ŧ":{"ha":749,"x_min":10,"x_max":739,"o":"m 624 758 l 468 758 l 468 476 l 699 476 l 699 400 l 468 400 l 468 96 l 586 63 l 586 0 l 164 0 l 164 63 l 281 96 l 281 400 l 54 400 l 54 476 l 281 476 l 281 758 l 122 758 l 96 632 l 19 632 l 10 853 l 739 853 l 731 632 l 651 632 l 624 758 z "},"Ť":{"ha":749,"x_min":10,"x_max":739,"o":"m 318 890 l 165 1076 l 201 1111 l 376 1004 l 556 1111 l 588 1076 l 436 890 l 318 890 m 164 0 l 164 63 l 281 96 l 281 758 l 122 758 l 96 632 l 19 632 l 10 853 l 739 853 l 731 632 l 651 632 l 624 758 l 468 758 l 468 96 l 586 63 l 586 0 l 164 0 z "},"Ţ":{"ha":749,"x_min":10,"x_max":739,"o":"m 338 -306 q 263 -290 294 -306 l 274 -235 q 313 -244 292 -244 q 372 -225 350 -244 q 393 -182 393 -206 q 375 -144 393 -160 q 317 -128 357 -129 l 307 -101 l 344 0 l 164 0 l 164 63 l 281 96 l 281 758 l 122 758 l 96 632 l 19 632 l 10 853 l 739 853 l 731 632 l 651 632 l 624 758 l 468 758 l 468 96 l 586 63 l 586 0 l 408 0 l 389 -64 q 492 -92 457 -64 q 526 -164 526 -119 q 500 -234 526 -201 q 430 -286 474 -267 q 338 -306 386 -306 z "},"Ț":{"ha":749,"x_min":10,"x_max":739,"o":"m 164 0 l 164 63 l 281 96 l 281 758 l 122 758 l 96 632 l 19 632 l 10 853 l 739 853 l 731 632 l 651 632 l 624 758 l 468 758 l 468 96 l 586 63 l 586 0 l 164 0 m 292 -318 l 304 -61 l 429 -33 l 464 -67 l 353 -328 l 292 -318 z "},"Ṭ":{"ha":749,"x_min":10,"x_max":739,"o":"m 10 0 m 10 853 l 739 853 l 731 632 l 651 632 l 624 758 l 468 758 l 468 96 l 586 63 l 586 0 l 164 0 l 164 63 l 281 96 l 281 758 l 122 758 l 96 632 l 19 632 l 10 853 m 492 -178 q 458 -257 492 -225 q 378 -289 425 -289 q 294 -256 331 -289 q 258 -178 258 -224 q 294 -96 258 -131 q 378 -61 331 -61 q 458 -96 425 -61 q 492 -178 492 -131 z "},"U":{"ha":918,"x_min":8,"x_max":913,"o":"m 794 328 q 769 180 794 257 q 670 45 743 103 q 467 -12 597 -12 q 256 38 331 -12 q 153 170 181 88 q 126 368 126 253 l 126 758 l 8 790 l 8 853 l 432 853 l 432 790 l 314 758 l 314 368 q 327 218 314 278 q 380 123 340 158 q 494 88 419 88 q 642 156 594 88 q 690 340 690 225 l 690 758 l 572 790 l 572 853 l 913 853 l 913 790 l 794 758 l 794 328 z "},"Ú":{"ha":918,"x_min":8,"x_max":913,"o":"m 360 881 l 322 929 l 539 1111 l 676 1064 l 676 1032 l 360 881 m 794 328 q 769 180 794 257 q 670 45 743 103 q 467 -12 597 -12 q 256 38 331 -12 q 153 170 181 88 q 126 368 126 253 l 126 758 l 8 790 l 8 853 l 432 853 l 432 790 l 314 758 l 314 368 q 327 218 314 278 q 380 123 340 158 q 494 88 419 88 q 642 156 594 88 q 690 340 690 225 l 690 758 l 572 790 l 572 853 l 913 853 l 913 790 l 794 758 l 794 328 z "},"Ŭ":{"ha":918,"x_min":8,"x_max":913,"o":"m 8 0 m 794 328 q 769 180 794 257 q 670 45 743 103 q 467 -12 597 -12 q 256 38 331 -12 q 153 170 181 88 q 126 368 126 253 l 126 758 l 8 790 l 8 853 l 432 853 l 432 790 l 314 758 l 314 368 q 327 218 314 278 q 380 123 340 158 q 494 88 419 88 q 642 156 594 88 q 690 340 690 225 l 690 758 l 572 790 l 572 853 l 913 853 l 913 790 l 794 758 l 794 328 m 454 904 q 324 954 357 904 q 290 1092 290 1004 l 372 1094 q 392 1035 372 1060 q 460 1010 413 1010 q 530 1035 510 1010 q 550 1094 550 1060 l 628 1092 q 590 956 628 1007 q 454 904 553 904 z "},"Ǔ":{"ha":918,"x_min":8,"x_max":913,"o":"m 8 0 m 794 328 q 769 180 794 257 q 670 45 743 103 q 467 -12 597 -12 q 256 38 331 -12 q 153 170 181 88 q 126 368 126 253 l 126 758 l 8 790 l 8 853 l 432 853 l 432 790 l 314 758 l 314 368 q 327 218 314 278 q 380 123 340 158 q 494 88 419 88 q 642 156 594 88 q 690 340 690 225 l 690 758 l 572 790 l 572 853 l 913 853 l 913 790 l 794 758 l 794 328 m 401 890 l 249 1076 l 285 1111 l 460 1004 l 639 1111 l 671 1076 l 519 890 l 401 890 z "},"Û":{"ha":918,"x_min":8,"x_max":913,"o":"m 665 889 l 486 996 l 311 889 l 275 924 l 428 1111 l 546 1111 l 697 924 l 665 889 m 794 328 q 769 180 794 257 q 670 45 743 103 q 467 -12 597 -12 q 256 38 331 -12 q 153 170 181 88 q 126 368 126 253 l 126 758 l 8 790 l 8 853 l 432 853 l 432 790 l 314 758 l 314 368 q 327 218 314 278 q 380 123 340 158 q 494 88 419 88 q 642 156 594 88 q 690 340 690 225 l 690 758 l 572 790 l 572 853 l 913 853 l 913 790 l 794 758 l 794 328 z "},"Ȕ":{"ha":918,"x_min":8,"x_max":913,"o":"m 8 0 m 794 328 q 769 180 794 257 q 670 45 743 103 q 467 -12 597 -12 q 256 38 331 -12 q 153 170 181 88 q 126 368 126 253 l 126 758 l 8 790 l 8 853 l 432 853 l 432 790 l 314 758 l 314 368 q 327 218 314 278 q 380 123 340 158 q 494 88 419 88 q 642 156 594 88 q 690 340 690 225 l 690 758 l 572 790 l 572 853 l 913 853 l 913 790 l 794 758 l 794 328 m 349 876 l 136 1100 l 136 1131 l 264 1131 l 392 908 l 349 876 m 572 876 l 360 1100 l 360 1131 l 488 1131 l 615 908 l 572 876 z "},"Ü":{"ha":918,"x_min":8,"x_max":913,"o":"m 436 999 q 406 927 436 956 q 333 899 376 899 q 257 927 289 899 q 225 999 225 956 q 258 1070 225 1040 q 333 1100 290 1100 q 406 1070 375 1100 q 436 999 436 1040 m 757 999 q 726 927 757 956 q 656 899 696 899 q 580 927 611 899 q 549 999 549 956 q 580 1071 549 1042 q 656 1100 611 1100 q 726 1070 696 1100 q 757 999 757 1040 m 794 328 q 769 180 794 257 q 670 45 743 103 q 467 -12 597 -12 q 256 38 331 -12 q 153 170 181 88 q 126 368 126 253 l 126 758 l 8 790 l 8 853 l 432 853 l 432 790 l 314 758 l 314 368 q 327 218 314 278 q 380 123 340 158 q 494 88 419 88 q 642 156 594 88 q 690 340 690 225 l 690 758 l 572 790 l 572 853 l 913 853 l 913 790 l 794 758 l 794 328 z "},"Ǘ":{"ha":918,"x_min":8,"x_max":913,"o":"m 8 0 m 794 328 q 769 180 794 257 q 670 45 743 103 q 467 -12 597 -12 q 256 38 331 -12 q 153 170 181 88 q 126 368 126 253 l 126 758 l 8 790 l 8 853 l 432 853 l 432 790 l 314 758 l 314 368 q 327 218 314 278 q 380 123 340 158 q 494 88 419 88 q 642 156 594 88 q 690 340 690 225 l 690 758 l 572 790 l 572 853 l 913 853 l 913 790 l 794 758 l 794 328 m 404 999 q 374 927 404 956 q 301 899 344 899 q 225 927 257 899 q 193 999 193 956 q 226 1070 193 1040 q 301 1100 258 1100 q 374 1070 343 1100 q 404 999 404 1040 m 725 999 q 694 927 725 956 q 624 899 664 899 q 548 927 579 899 q 517 999 517 956 q 548 1071 517 1042 q 624 1100 579 1100 q 694 1070 664 1100 q 725 999 725 1040 m 410 1128 l 372 1176 l 589 1358 l 726 1311 l 726 1279 l 410 1128 z "},"Ǚ":{"ha":918,"x_min":8,"x_max":913,"o":"m 8 0 m 794 328 q 769 180 794 257 q 670 45 743 103 q 467 -12 597 -12 q 256 38 331 -12 q 153 170 181 88 q 126 368 126 253 l 126 758 l 8 790 l 8 853 l 432 853 l 432 790 l 314 758 l 314 368 q 327 218 314 278 q 380 123 340 158 q 494 88 419 88 q 642 156 594 88 q 690 340 690 225 l 690 758 l 572 790 l 572 853 l 913 853 l 913 790 l 794 758 l 794 328 m 404 999 q 374 927 404 956 q 301 899 344 899 q 225 927 257 899 q 193 999 193 956 q 226 1070 193 1040 q 301 1100 258 1100 q 374 1070 343 1100 q 404 999 404 1040 m 725 999 q 694 927 725 956 q 624 899 664 899 q 548 927 579 899 q 517 999 517 956 q 548 1071 517 1042 q 624 1100 579 1100 q 694 1070 664 1100 q 725 999 725 1040 m 404 1138 l 251 1324 l 288 1358 l 463 1251 l 642 1358 l 674 1324 l 522 1138 l 404 1138 z "},"Ǜ":{"ha":918,"x_min":8,"x_max":913,"o":"m 8 0 m 794 328 q 769 180 794 257 q 670 45 743 103 q 467 -12 597 -12 q 256 38 331 -12 q 153 170 181 88 q 126 368 126 253 l 126 758 l 8 790 l 8 853 l 432 853 l 432 790 l 314 758 l 314 368 q 327 218 314 278 q 380 123 340 158 q 494 88 419 88 q 642 156 594 88 q 690 340 690 225 l 690 758 l 572 790 l 572 853 l 913 853 l 913 790 l 794 758 l 794 328 m 404 999 q 374 927 404 956 q 301 899 344 899 q 225 927 257 899 q 193 999 193 956 q 226 1070 193 1040 q 301 1100 258 1100 q 374 1070 343 1100 q 404 999 404 1040 m 725 999 q 694 927 725 956 q 624 899 664 899 q 548 927 579 899 q 517 999 517 956 q 548 1071 517 1042 q 624 1100 579 1100 q 694 1070 664 1100 q 725 999 725 1040 m 510 1128 l 188 1279 l 193 1311 l 328 1358 l 542 1176 l 510 1128 z "},"Ǖ":{"ha":918,"x_min":8,"x_max":913,"o":"m 8 0 m 794 328 q 769 180 794 257 q 670 45 743 103 q 467 -12 597 -12 q 256 38 331 -12 q 153 170 181 88 q 126 368 126 253 l 126 758 l 8 790 l 8 853 l 432 853 l 432 790 l 314 758 l 314 368 q 327 218 314 278 q 380 123 340 158 q 494 88 419 88 q 642 156 594 88 q 690 340 690 225 l 690 758 l 572 790 l 572 853 l 913 853 l 913 790 l 794 758 l 794 328 m 404 999 q 374 927 404 956 q 301 899 344 899 q 225 927 257 899 q 193 999 193 956 q 226 1070 193 1040 q 301 1100 258 1100 q 374 1070 343 1100 q 404 999 404 1040 m 725 999 q 694 927 725 956 q 624 899 664 899 q 548 927 579 899 q 517 999 517 956 q 548 1071 517 1042 q 624 1100 579 1100 q 694 1070 664 1100 q 725 999 725 1040 m 294 1300 l 629 1300 l 629 1190 l 294 1190 l 294 1300 z "},"Ụ":{"ha":918,"x_min":8,"x_max":913,"o":"m 8 0 m 794 328 q 769 180 794 257 q 670 45 743 103 q 467 -12 597 -12 q 256 38 331 -12 q 153 170 181 88 q 126 368 126 253 l 126 758 l 8 790 l 8 853 l 432 853 l 432 790 l 314 758 l 314 368 q 327 218 314 278 q 380 123 340 158 q 494 88 419 88 q 642 156 594 88 q 690 340 690 225 l 690 758 l 572 790 l 572 853 l 913 853 l 913 790 l 794 758 l 794 328 m 576 -178 q 543 -257 576 -225 q 463 -289 510 -289 q 379 -256 415 -289 q 343 -178 343 -224 q 379 -96 343 -131 q 463 -61 415 -61 q 543 -96 510 -61 q 576 -178 576 -131 z "},"Ù":{"ha":918,"x_min":8,"x_max":913,"o":"m 592 881 l 269 1032 l 275 1064 l 410 1111 l 624 929 l 592 881 m 794 328 q 769 180 794 257 q 670 45 743 103 q 467 -12 597 -12 q 256 38 331 -12 q 153 170 181 88 q 126 368 126 253 l 126 758 l 8 790 l 8 853 l 432 853 l 432 790 l 314 758 l 314 368 q 327 218 314 278 q 380 123 340 158 q 494 88 419 88 q 642 156 594 88 q 690 340 690 225 l 690 758 l 572 790 l 572 853 l 913 853 l 913 790 l 794 758 l 794 328 z "},"Ủ":{"ha":918,"x_min":8,"x_max":913,"o":"m 8 0 m 794 328 q 769 180 794 257 q 670 45 743 103 q 467 -12 597 -12 q 256 38 331 -12 q 153 170 181 88 q 126 368 126 253 l 126 758 l 8 790 l 8 853 l 432 853 l 432 790 l 314 758 l 314 368 q 327 218 314 278 q 380 123 340 158 q 494 88 419 88 q 642 156 594 88 q 690 340 690 225 l 690 758 l 572 790 l 572 853 l 913 853 l 913 790 l 794 758 l 794 328 m 611 1033 q 506 958 611 975 l 497 926 l 422 926 l 417 988 q 508 1029 508 988 q 456 1060 508 1060 q 417 1057 444 1060 l 407 1019 l 351 1019 l 343 1093 q 471 1108 413 1108 q 574 1089 538 1108 q 611 1033 611 1069 z "},"Ư":{"ha":918,"x_min":8,"x_max":951,"o":"m 951 942 q 890 835 951 879 l 794 758 l 794 328 q 769 180 794 257 q 670 45 743 103 q 467 -12 597 -12 q 256 38 331 -12 q 153 170 181 88 q 126 368 126 253 l 126 758 l 8 790 l 8 853 l 432 853 l 432 790 l 314 758 l 314 368 q 327 218 314 278 q 380 123 340 158 q 494 88 419 88 q 642 156 594 88 q 690 340 690 225 l 690 758 l 572 790 l 572 853 l 738 853 q 796 868 776 853 q 815 926 815 883 q 808 983 815 953 l 817 1001 l 933 1021 q 947 981 942 1003 q 951 942 951 958 z "},"Ứ":{"ha":918,"x_min":8,"x_max":951,"o":"m 8 0 m 951 942 q 890 835 951 879 l 794 758 l 794 328 q 769 180 794 257 q 670 45 743 103 q 467 -12 597 -12 q 256 38 331 -12 q 153 170 181 88 q 126 368 126 253 l 126 758 l 8 790 l 8 853 l 432 853 l 432 790 l 314 758 l 314 368 q 327 218 314 278 q 380 123 340 158 q 494 88 419 88 q 642 156 594 88 q 690 340 690 225 l 690 758 l 572 790 l 572 853 l 738 853 q 796 868 776 853 q 815 926 815 883 q 808 983 815 953 l 817 1001 l 933 1021 q 947 981 942 1003 q 951 942 951 958 m 407 881 l 369 929 l 586 1111 l 724 1064 l 724 1032 l 407 881 z "},"Ự":{"ha":918,"x_min":8,"x_max":951,"o":"m 8 0 m 951 942 q 890 835 951 879 l 794 758 l 794 328 q 769 180 794 257 q 670 45 743 103 q 467 -12 597 -12 q 256 38 331 -12 q 153 170 181 88 q 126 368 126 253 l 126 758 l 8 790 l 8 853 l 432 853 l 432 790 l 314 758 l 314 368 q 327 218 314 278 q 380 123 340 158 q 494 88 419 88 q 642 156 594 88 q 690 340 690 225 l 690 758 l 572 790 l 572 853 l 738 853 q 796 868 776 853 q 815 926 815 883 q 808 983 815 953 l 817 1001 l 933 1021 q 947 981 942 1003 q 951 942 951 958 m 576 -178 q 543 -257 576 -225 q 463 -289 510 -289 q 379 -256 415 -289 q 343 -178 343 -224 q 379 -96 343 -131 q 463 -61 415 -61 q 543 -96 510 -61 q 576 -178 576 -131 z "},"Ừ":{"ha":918,"x_min":8,"x_max":951,"o":"m 8 0 m 951 942 q 890 835 951 879 l 794 758 l 794 328 q 769 180 794 257 q 670 45 743 103 q 467 -12 597 -12 q 256 38 331 -12 q 153 170 181 88 q 126 368 126 253 l 126 758 l 8 790 l 8 853 l 432 853 l 432 790 l 314 758 l 314 368 q 327 218 314 278 q 380 123 340 158 q 494 88 419 88 q 642 156 594 88 q 690 340 690 225 l 690 758 l 572 790 l 572 853 l 738 853 q 796 868 776 853 q 815 926 815 883 q 808 983 815 953 l 817 1001 l 933 1021 q 947 981 942 1003 q 951 942 951 958 m 507 881 l 185 1032 l 190 1064 l 325 1111 l 539 929 l 507 881 z "},"Ử":{"ha":918,"x_min":8,"x_max":951,"o":"m 8 0 m 951 942 q 890 835 951 879 l 794 758 l 794 328 q 769 180 794 257 q 670 45 743 103 q 467 -12 597 -12 q 256 38 331 -12 q 153 170 181 88 q 126 368 126 253 l 126 758 l 8 790 l 8 853 l 432 853 l 432 790 l 314 758 l 314 368 q 327 218 314 278 q 380 123 340 158 q 494 88 419 88 q 642 156 594 88 q 690 340 690 225 l 690 758 l 572 790 l 572 853 l 738 853 q 796 868 776 853 q 815 926 815 883 q 808 983 815 953 l 817 1001 l 933 1021 q 947 981 942 1003 q 951 942 951 958 m 611 1033 q 506 958 611 975 l 497 926 l 422 926 l 417 988 q 508 1029 508 988 q 456 1060 508 1060 q 417 1057 444 1060 l 407 1019 l 351 1019 l 343 1093 q 471 1108 413 1108 q 574 1089 538 1108 q 611 1033 611 1069 z "},"Ữ":{"ha":918,"x_min":8,"x_max":951,"o":"m 8 0 m 951 942 q 890 835 951 879 l 794 758 l 794 328 q 769 180 794 257 q 670 45 743 103 q 467 -12 597 -12 q 256 38 331 -12 q 153 170 181 88 q 126 368 126 253 l 126 758 l 8 790 l 8 853 l 432 853 l 432 790 l 314 758 l 314 368 q 327 218 314 278 q 380 123 340 158 q 494 88 419 88 q 642 156 594 88 q 690 340 690 225 l 690 758 l 572 790 l 572 853 l 738 853 q 796 868 776 853 q 815 926 815 883 q 808 983 815 953 l 817 1001 l 933 1021 q 947 981 942 1003 q 951 942 951 958 m 701 1063 q 582 918 642 918 q 446 946 543 918 q 338 969 364 969 q 310 960 322 969 q 291 940 299 950 q 282 926 283 929 l 217 953 q 272 1056 239 1015 q 338 1097 304 1097 q 472 1069 378 1097 q 582 1046 554 1046 q 610 1056 597 1046 q 631 1076 624 1065 q 640 1089 639 1086 l 701 1063 z "},"Ű":{"ha":918,"x_min":8,"x_max":913,"o":"m 344 876 l 301 908 l 429 1131 l 557 1131 l 557 1100 l 344 876 m 568 876 l 525 908 l 653 1131 l 781 1131 l 781 1100 l 568 876 m 794 328 q 769 180 794 257 q 670 45 743 103 q 467 -12 597 -12 q 256 38 331 -12 q 153 170 181 88 q 126 368 126 253 l 126 758 l 8 790 l 8 853 l 432 853 l 432 790 l 314 758 l 314 368 q 327 218 314 278 q 380 123 340 158 q 494 88 419 88 q 642 156 594 88 q 690 340 690 225 l 690 758 l 572 790 l 572 853 l 913 853 l 913 790 l 794 758 l 794 328 z "},"Ȗ":{"ha":918,"x_min":8,"x_max":913,"o":"m 8 0 m 794 328 q 769 180 794 257 q 670 45 743 103 q 467 -12 597 -12 q 256 38 331 -12 q 153 170 181 88 q 126 368 126 253 l 126 758 l 8 790 l 8 853 l 432 853 l 432 790 l 314 758 l 314 368 q 327 218 314 278 q 380 123 340 158 q 494 88 419 88 q 642 156 594 88 q 690 340 690 225 l 690 758 l 572 790 l 572 853 l 913 853 l 913 790 l 794 758 l 794 328 m 464 1108 q 594 1058 561 1108 q 628 921 628 1008 l 546 918 q 526 978 546 953 q 458 1003 506 1003 q 388 978 408 1003 q 368 918 368 953 l 290 921 q 328 1057 290 1006 q 464 1108 365 1108 z "},"Ū":{"ha":918,"x_min":8,"x_max":913,"o":"m 335 1053 l 669 1053 l 669 943 l 335 943 l 335 1053 m 794 328 q 769 180 794 257 q 670 45 743 103 q 467 -12 597 -12 q 256 38 331 -12 q 153 170 181 88 q 126 368 126 253 l 126 758 l 8 790 l 8 853 l 432 853 l 432 790 l 314 758 l 314 368 q 327 218 314 278 q 380 123 340 158 q 494 88 419 88 q 642 156 594 88 q 690 340 690 225 l 690 758 l 572 790 l 572 853 l 913 853 l 913 790 l 794 758 l 794 328 z "},"Ų":{"ha":918,"x_min":8,"x_max":913,"o":"m 524 -324 q 415 -290 449 -324 q 382 -204 382 -256 q 418 -104 382 -156 q 521 -4 454 -53 q 467 -12 494 -12 q 256 38 331 -12 q 153 170 181 88 q 126 368 126 253 l 126 758 l 8 790 l 8 853 l 432 853 l 432 790 l 314 758 l 314 368 q 327 218 314 278 q 380 123 340 158 q 494 88 419 88 q 642 156 594 88 q 690 340 690 225 l 690 758 l 572 790 l 572 853 l 913 853 l 913 790 l 794 758 l 794 328 q 763 165 794 249 q 653 33 732 82 q 538 -58 576 -12 q 500 -175 500 -103 q 560 -237 500 -237 q 644 -207 601 -237 l 676 -237 q 658 -262 676 -240 q 605 -304 639 -285 q 524 -324 571 -324 z "},"Ů":{"ha":918,"x_min":8,"x_max":913,"o":"m 503 871 q 387 907 428 871 q 346 1001 346 943 q 387 1099 346 1061 q 503 1138 428 1138 q 620 1099 579 1138 q 661 1001 661 1061 q 621 907 661 943 q 503 871 581 871 m 503 936 q 547 953 536 936 q 558 1001 558 971 q 547 1052 558 1033 q 503 1071 536 1071 q 459 1052 469 1071 q 449 1001 449 1033 q 459 953 449 971 q 503 936 469 936 m 467 -12 q 256 38 331 -12 q 153 170 181 88 q 126 368 126 253 l 126 758 l 8 790 l 8 853 l 432 853 l 432 790 l 314 758 l 314 368 q 327 218 314 278 q 380 123 340 158 q 494 88 419 88 q 642 156 594 88 q 690 340 690 225 l 690 758 l 572 790 l 572 853 l 913 853 l 913 790 l 794 758 l 794 328 q 769 180 794 257 q 670 45 743 103 q 467 -12 597 -12 z "},"Ũ":{"ha":918,"x_min":8,"x_max":913,"o":"m 735 1063 q 615 918 675 918 q 479 946 576 918 q 371 969 397 969 q 344 960 356 969 q 324 940 332 950 q 315 926 317 929 l 250 953 q 305 1056 272 1015 q 371 1097 338 1097 q 506 1069 411 1097 q 615 1046 588 1046 q 644 1056 631 1046 q 665 1076 657 1065 q 674 1089 672 1086 l 735 1063 m 794 328 q 769 180 794 257 q 670 45 743 103 q 467 -12 597 -12 q 256 38 331 -12 q 153 170 181 88 q 126 368 126 253 l 126 758 l 8 790 l 8 853 l 432 853 l 432 790 l 314 758 l 314 368 q 327 210 314 272 q 380 112 340 149 q 494 75 419 75 q 642 147 594 75 q 690 340 690 219 l 690 758 l 572 790 l 572 853 l 913 853 l 913 790 l 794 758 l 794 328 z "},"V":{"ha":813,"x_min":-6,"x_max":833,"o":"m 371 -14 l 93 757 l -6 790 l -6 853 l 381 853 l 381 790 l 290 763 l 454 268 l 460 250 l 465 269 l 622 758 l 528 790 l 528 853 l 833 853 l 833 792 l 735 757 l 478 4 l 371 -14 z "},"W":{"ha":1113,"x_min":-4,"x_max":1132,"o":"m 826 853 l 1132 853 l 1132 792 l 1033 758 l 858 4 l 751 -14 l 569 556 l 418 4 l 311 -14 l 94 757 l -4 790 l -4 853 l 382 853 l 382 790 l 292 763 l 396 283 l 510 750 l 683 782 l 826 276 l 924 758 l 826 790 l 826 853 z "},"Ẃ":{"ha":1113,"x_min":-4,"x_max":1132,"o":"m 0 0 m 826 853 l 1132 853 l 1132 792 l 1033 758 l 858 4 l 751 -14 l 569 556 l 418 4 l 311 -14 l 94 757 l -4 790 l -4 853 l 382 853 l 382 790 l 292 763 l 396 283 l 510 750 l 683 782 l 826 276 l 924 758 l 826 790 l 826 853 m 497 881 l 460 929 l 676 1111 l 814 1064 l 814 1032 l 497 881 z "},"Ŵ":{"ha":1113,"x_min":-4,"x_max":1132,"o":"m 0 0 m 826 853 l 1132 853 l 1132 792 l 1033 758 l 858 4 l 751 -14 l 569 556 l 418 4 l 311 -14 l 94 757 l -4 790 l -4 853 l 382 853 l 382 790 l 292 763 l 396 283 l 510 750 l 683 782 l 826 276 l 924 758 l 826 790 l 826 853 m 729 889 l 550 996 l 375 889 l 339 924 l 492 1111 l 610 1111 l 761 924 l 729 889 z "},"Ẅ":{"ha":1113,"x_min":-4,"x_max":1132,"o":"m 0 0 m 826 853 l 1132 853 l 1132 792 l 1033 758 l 858 4 l 751 -14 l 569 556 l 418 4 l 311 -14 l 94 757 l -4 790 l -4 853 l 382 853 l 382 790 l 292 763 l 396 283 l 510 750 l 683 782 l 826 276 l 924 758 l 826 790 l 826 853 m 494 999 q 465 927 494 956 q 392 899 435 899 q 315 927 347 899 q 283 999 283 956 q 316 1070 283 1040 q 392 1100 349 1100 q 464 1070 433 1100 q 494 999 494 1040 m 815 999 q 785 927 815 956 q 714 899 754 899 q 638 927 669 899 q 607 999 607 956 q 638 1071 607 1042 q 714 1100 669 1100 q 785 1070 754 1100 q 815 999 815 1040 z "},"Ẁ":{"ha":1113,"x_min":-4,"x_max":1132,"o":"m 0 0 m 826 853 l 1132 853 l 1132 792 l 1033 758 l 858 4 l 751 -14 l 569 556 l 418 4 l 311 -14 l 94 757 l -4 790 l -4 853 l 382 853 l 382 790 l 292 763 l 396 283 l 510 750 l 683 782 l 826 276 l 924 758 l 826 790 l 826 853 m 597 881 l 275 1032 l 281 1064 l 415 1111 l 629 929 l 597 881 z "},"X":{"ha":853,"x_min":10,"x_max":843,"o":"m 325 64 l 325 0 l 10 0 l 10 63 l 103 90 l 328 421 l 113 763 l 19 790 l 19 853 l 411 853 l 411 785 l 311 763 l 454 540 l 604 763 l 504 785 l 504 853 l 821 853 l 821 790 l 728 763 l 513 450 l 736 90 l 843 63 l 843 0 l 451 0 l 451 68 l 538 90 l 385 328 l 226 90 l 325 64 z "},"Y":{"ha":799,"x_min":13,"x_max":803,"o":"m 497 789 l 497 853 l 803 853 l 803 792 l 704 757 l 507 356 l 507 96 l 626 63 l 626 0 l 204 0 l 204 63 l 321 96 l 321 356 l 111 757 l 13 790 l 13 853 l 406 853 l 406 788 l 311 758 l 457 478 l 596 761 l 497 789 z "},"Ý":{"ha":799,"x_min":13,"x_max":803,"o":"m 329 881 l 292 929 l 508 1111 l 646 1064 l 646 1032 l 329 881 m 497 789 l 497 853 l 803 853 l 803 792 l 704 757 l 507 356 l 507 96 l 626 63 l 626 0 l 204 0 l 204 63 l 321 96 l 321 356 l 111 757 l 13 790 l 13 853 l 406 853 l 406 788 l 311 758 l 457 478 l 596 761 l 497 789 z "},"Ŷ":{"ha":799,"x_min":13,"x_max":803,"o":"m 603 889 l 424 996 l 249 889 l 213 924 l 365 1111 l 483 1111 l 635 924 l 603 889 m 497 789 l 497 853 l 803 853 l 803 792 l 704 757 l 507 356 l 507 96 l 626 63 l 626 0 l 204 0 l 204 63 l 321 96 l 321 356 l 111 757 l 13 790 l 13 853 l 406 853 l 406 788 l 311 758 l 457 478 l 596 761 l 497 789 z "},"Ÿ":{"ha":799,"x_min":13,"x_max":803,"o":"m 274 899 q 197 927 229 899 q 165 999 165 956 q 198 1070 165 1040 q 274 1100 231 1100 q 346 1070 315 1100 q 376 999 376 1040 q 347 927 376 956 q 274 899 317 899 m 596 899 q 520 927 551 899 q 489 999 489 956 q 520 1071 489 1042 q 596 1100 551 1100 q 667 1070 636 1100 q 697 999 697 1040 q 667 927 697 956 q 596 899 636 899 m 204 0 l 204 63 l 321 96 l 321 356 l 111 757 l 13 790 l 13 853 l 406 853 l 406 788 l 311 758 l 457 478 l 596 761 l 497 789 l 497 853 l 803 853 l 803 792 l 704 757 l 507 356 l 507 96 l 626 63 l 626 0 l 204 0 z "},"Ỵ":{"ha":799,"x_min":13,"x_max":803,"o":"m 13 0 m 497 789 l 497 853 l 803 853 l 803 792 l 704 757 l 507 356 l 507 96 l 626 63 l 626 0 l 204 0 l 204 63 l 321 96 l 321 356 l 111 757 l 13 790 l 13 853 l 406 853 l 406 788 l 311 758 l 457 478 l 596 761 l 497 789 m 517 -178 q 483 -257 517 -225 q 403 -289 450 -289 q 319 -256 356 -289 q 283 -178 283 -224 q 319 -96 283 -131 q 403 -61 356 -61 q 483 -96 450 -61 q 517 -178 517 -131 z "},"Ỳ":{"ha":799,"x_min":13,"x_max":803,"o":"m 550 881 l 228 1032 l 233 1064 l 368 1111 l 582 929 l 550 881 m 204 0 l 204 63 l 321 96 l 321 356 l 111 757 l 13 790 l 13 853 l 406 853 l 406 788 l 311 758 l 457 478 l 596 761 l 497 789 l 497 853 l 803 853 l 803 792 l 704 757 l 507 356 l 507 96 l 626 63 l 626 0 l 204 0 z "},"Ỷ":{"ha":799,"x_min":13,"x_max":803,"o":"m 13 0 m 497 789 l 497 853 l 803 853 l 803 792 l 704 757 l 507 356 l 507 96 l 626 63 l 626 0 l 204 0 l 204 63 l 321 96 l 321 356 l 111 757 l 13 790 l 13 853 l 406 853 l 406 788 l 311 758 l 457 478 l 596 761 l 497 789 m 551 1033 q 446 958 551 975 l 438 926 l 363 926 l 357 988 q 449 1029 449 988 q 396 1060 449 1060 q 357 1057 385 1060 l 347 1019 l 292 1019 l 283 1093 q 411 1108 353 1108 q 515 1089 478 1108 q 551 1033 551 1069 z "},"Ȳ":{"ha":799,"x_min":13,"x_max":803,"o":"m 13 0 m 497 789 l 497 853 l 803 853 l 803 792 l 704 757 l 507 356 l 507 96 l 626 63 l 626 0 l 204 0 l 204 63 l 321 96 l 321 356 l 111 757 l 13 790 l 13 853 l 406 853 l 406 788 l 311 758 l 457 478 l 596 761 l 497 789 m 232 1053 l 567 1053 l 567 943 l 232 943 l 232 1053 z "},"Ỹ":{"ha":799,"x_min":13,"x_max":803,"o":"m 675 1063 q 556 918 615 918 q 419 946 517 918 q 311 969 338 969 q 284 960 296 969 q 265 940 272 950 q 256 926 257 929 l 190 953 q 245 1056 213 1015 q 311 1097 278 1097 q 446 1069 351 1097 q 556 1046 528 1046 q 584 1056 571 1046 q 605 1076 597 1065 q 614 1089 613 1086 l 675 1063 m 497 789 l 497 853 l 803 853 l 803 792 l 704 757 l 507 356 l 507 96 l 626 63 l 626 0 l 204 0 l 204 63 l 321 96 l 321 356 l 111 757 l 13 790 l 13 853 l 406 853 l 406 788 l 311 758 l 457 478 l 596 761 l 497 789 z "},"Z":{"ha":694,"x_min":29,"x_max":667,"o":"m 656 225 l 644 0 l 54 0 l 29 46 l 454 758 l 182 758 l 149 650 l 68 650 l 54 853 l 660 853 l 667 807 l 249 96 l 525 96 l 578 225 l 656 225 z "},"Ź":{"ha":694,"x_min":29,"x_max":667,"o":"m 250 881 l 213 929 l 429 1111 l 567 1064 l 567 1032 l 250 881 m 656 225 l 644 0 l 54 0 l 29 46 l 454 758 l 182 758 l 149 650 l 68 650 l 54 853 l 660 853 l 667 807 l 249 96 l 525 96 l 578 225 l 656 225 z "},"Ž":{"ha":694,"x_min":29,"x_max":667,"o":"m 311 890 l 158 1076 l 194 1111 l 369 1004 l 549 1111 l 581 1076 l 429 890 l 311 890 m 54 0 l 29 46 l 454 758 l 182 758 l 149 650 l 68 650 l 54 853 l 660 853 l 667 807 l 249 96 l 525 96 l 578 225 l 656 225 l 644 0 l 54 0 z "},"Ż":{"ha":694,"x_min":29,"x_max":667,"o":"m 482 993 q 449 914 482 946 q 368 882 415 882 q 285 915 321 882 q 249 993 249 947 q 285 1075 249 1040 q 368 1110 321 1110 q 449 1075 415 1110 q 482 993 482 1040 m 656 225 l 644 0 l 54 0 l 29 46 l 454 758 l 182 758 l 149 650 l 68 650 l 54 853 l 660 853 l 667 807 l 249 96 l 525 96 l 578 225 l 656 225 z "},"Ẓ":{"ha":694,"x_min":29,"x_max":667,"o":"m 29 0 m 656 225 l 644 0 l 54 0 l 29 46 l 454 758 l 182 758 l 149 650 l 68 650 l 54 853 l 660 853 l 667 807 l 249 96 l 525 96 l 578 225 l 656 225 m 464 -178 q 431 -257 464 -225 q 350 -289 397 -289 q 267 -256 303 -289 q 231 -178 231 -224 q 267 -96 231 -131 q 350 -61 303 -61 q 431 -96 397 -61 q 464 -178 464 -131 z "},"a":{"ha":717,"x_min":47,"x_max":708,"o":"m 324 592 q 224 575 271 592 l 193 458 l 111 458 l 88 646 q 375 697 226 697 q 544 660 488 697 q 600 524 600 622 l 600 115 l 708 76 l 708 17 q 622 -2 653 3 q 556 -7 592 -7 q 467 12 507 -7 q 417 67 428 31 q 314 6 361 25 q 211 -14 267 -14 q 91 32 135 -14 q 47 157 47 78 q 88 281 47 224 q 225 358 129 339 l 413 397 l 413 494 q 392 570 413 549 q 324 592 372 592 m 329 296 q 253 253 275 282 q 231 176 231 224 q 303 99 231 99 q 360 110 329 99 q 413 136 392 122 l 413 317 l 329 296 z "},"á":{"ha":717,"x_min":47,"x_max":708,"o":"m 47 0 m 324 592 q 224 575 271 592 l 193 458 l 111 458 l 88 646 q 375 697 226 697 q 544 660 488 697 q 600 524 600 622 l 600 115 l 708 76 l 708 17 q 622 -2 653 3 q 556 -7 592 -7 q 467 12 507 -7 q 417 67 428 31 q 314 6 361 25 q 211 -14 267 -14 q 91 32 135 -14 q 47 157 47 78 q 88 281 47 224 q 225 358 129 339 l 413 397 l 413 494 q 392 570 413 549 q 324 592 372 592 m 329 296 q 253 253 275 282 q 231 176 231 224 q 303 99 231 99 q 360 110 329 99 q 413 136 392 122 l 413 317 l 329 296 m 246 775 l 208 824 l 425 1014 l 563 958 l 563 926 l 246 775 z "},"ă":{"ha":717,"x_min":47,"x_max":708,"o":"m 340 797 q 213 847 244 797 q 181 985 181 896 l 260 988 q 278 928 260 953 q 343 903 297 903 q 439 988 439 903 l 518 985 q 340 797 518 797 m 324 592 q 224 575 271 592 l 193 458 l 111 458 l 88 646 q 375 697 226 697 q 544 660 488 697 q 600 524 600 622 l 600 115 l 708 76 l 708 17 q 622 -2 653 3 q 556 -7 592 -7 q 467 12 507 -7 q 417 67 428 31 q 314 6 361 25 q 211 -14 267 -14 q 91 32 135 -14 q 47 157 47 78 q 88 281 47 224 q 225 358 129 339 l 413 397 l 413 494 q 392 570 413 549 q 324 592 372 592 m 329 296 q 253 253 275 282 q 231 176 231 224 q 303 99 231 99 q 360 110 329 99 q 413 136 392 122 l 413 317 l 329 296 z "},"ắ":{"ha":717,"x_min":47,"x_max":708,"o":"m 47 0 m 324 592 q 224 575 271 592 l 193 458 l 111 458 l 88 646 q 375 697 226 697 q 544 660 488 697 q 600 524 600 622 l 600 115 l 708 76 l 708 17 q 622 -2 653 3 q 556 -7 592 -7 q 467 12 507 -7 q 417 67 428 31 q 314 6 361 25 q 211 -14 267 -14 q 91 32 135 -14 q 47 157 47 78 q 88 281 47 224 q 225 358 129 339 l 413 397 l 413 494 q 392 570 413 549 q 324 592 372 592 m 329 296 q 253 253 275 282 q 231 176 231 224 q 303 99 231 99 q 360 110 329 99 q 413 136 392 122 l 413 317 l 329 296 m 353 735 q 222 785 256 735 q 189 922 189 835 l 271 925 q 291 865 271 890 q 358 840 311 840 q 428 865 408 840 q 449 925 449 890 l 526 922 q 489 786 526 838 q 353 735 451 735 m 308 914 l 271 963 l 488 1144 l 625 1097 l 625 1065 l 308 914 z "},"ặ":{"ha":717,"x_min":47,"x_max":708,"o":"m 47 0 m 324 592 q 224 575 271 592 l 193 458 l 111 458 l 88 646 q 375 697 226 697 q 544 660 488 697 q 600 524 600 622 l 600 115 l 708 76 l 708 17 q 622 -2 653 3 q 556 -7 592 -7 q 467 12 507 -7 q 417 67 428 31 q 314 6 361 25 q 211 -14 267 -14 q 91 32 135 -14 q 47 157 47 78 q 88 281 47 224 q 225 358 129 339 l 413 397 l 413 494 q 392 570 413 549 q 324 592 372 592 m 329 296 q 253 253 275 282 q 231 176 231 224 q 303 99 231 99 q 360 110 329 99 q 413 136 392 122 l 413 317 l 329 296 m 475 -178 q 442 -257 475 -225 q 361 -289 408 -289 q 278 -256 314 -289 q 242 -178 242 -224 q 278 -96 242 -131 q 361 -61 314 -61 q 442 -96 408 -61 q 475 -178 475 -131 m 349 797 q 221 847 253 797 q 189 985 189 896 l 268 988 q 287 928 268 953 q 351 903 306 903 q 447 988 447 903 l 526 985 q 349 797 526 797 z "},"ằ":{"ha":717,"x_min":47,"x_max":708,"o":"m 47 0 m 324 592 q 224 575 271 592 l 193 458 l 111 458 l 88 646 q 375 697 226 697 q 544 660 488 697 q 600 524 600 622 l 600 115 l 708 76 l 708 17 q 622 -2 653 3 q 556 -7 592 -7 q 467 12 507 -7 q 417 67 428 31 q 314 6 361 25 q 211 -14 267 -14 q 91 32 135 -14 q 47 157 47 78 q 88 281 47 224 q 225 358 129 339 l 413 397 l 413 494 q 392 570 413 549 q 324 592 372 592 m 329 296 q 253 253 275 282 q 231 176 231 224 q 303 99 231 99 q 360 110 329 99 q 413 136 392 122 l 413 317 l 329 296 m 353 735 q 222 785 256 735 q 189 922 189 835 l 271 925 q 291 865 271 890 q 358 840 311 840 q 428 865 408 840 q 449 925 449 890 l 526 922 q 489 786 526 838 q 353 735 451 735 m 408 914 l 86 1065 l 92 1097 l 226 1144 l 440 963 l 408 914 z "},"ẳ":{"ha":717,"x_min":47,"x_max":708,"o":"m 47 0 m 324 592 q 224 575 271 592 l 193 458 l 111 458 l 88 646 q 375 697 226 697 q 544 660 488 697 q 600 524 600 622 l 600 115 l 708 76 l 708 17 q 622 -2 653 3 q 556 -7 592 -7 q 467 12 507 -7 q 417 67 428 31 q 314 6 361 25 q 211 -14 267 -14 q 91 32 135 -14 q 47 157 47 78 q 88 281 47 224 q 225 358 129 339 l 413 397 l 413 494 q 392 570 413 549 q 324 592 372 592 m 329 296 q 253 253 275 282 q 231 176 231 224 q 303 99 231 99 q 360 110 329 99 q 413 136 392 122 l 413 317 l 329 296 m 353 735 q 222 785 256 735 q 189 922 189 835 l 271 925 q 291 865 271 890 q 358 840 311 840 q 428 865 408 840 q 449 925 449 890 l 526 922 q 489 786 526 838 q 353 735 451 735 m 513 1067 q 407 992 513 1008 l 399 960 l 324 960 l 318 1021 q 410 1063 410 1021 q 357 1093 410 1093 q 318 1090 346 1093 l 308 1053 l 253 1053 l 244 1126 q 372 1142 314 1142 q 476 1122 439 1142 q 513 1067 513 1103 z "},"ẵ":{"ha":717,"x_min":47,"x_max":708,"o":"m 47 0 m 324 592 q 224 575 271 592 l 193 458 l 111 458 l 88 646 q 375 697 226 697 q 544 660 488 697 q 600 524 600 622 l 600 115 l 708 76 l 708 17 q 622 -2 653 3 q 556 -7 592 -7 q 467 12 507 -7 q 417 67 428 31 q 314 6 361 25 q 211 -14 267 -14 q 91 32 135 -14 q 47 157 47 78 q 88 281 47 224 q 225 358 129 339 l 413 397 l 413 494 q 392 570 413 549 q 324 592 372 592 m 329 296 q 253 253 275 282 q 231 176 231 224 q 303 99 231 99 q 360 110 329 99 q 413 136 392 122 l 413 317 l 329 296 m 353 735 q 222 785 256 735 q 189 922 189 835 l 271 925 q 291 865 271 890 q 358 840 311 840 q 428 865 408 840 q 449 925 449 890 l 526 922 q 489 786 526 838 q 353 735 451 735 m 603 1096 q 483 951 543 951 q 347 979 444 951 q 239 1003 265 1003 q 212 993 224 1003 q 192 973 200 983 q 183 960 185 963 l 118 986 q 173 1090 140 1049 q 239 1131 206 1131 q 374 1103 279 1131 q 483 1079 456 1079 q 512 1089 499 1079 q 533 1109 525 1099 q 542 1122 540 1119 l 603 1096 z "},"ǎ":{"ha":717,"x_min":47,"x_max":708,"o":"m 47 0 m 324 592 q 224 575 271 592 l 193 458 l 111 458 l 88 646 q 375 697 226 697 q 544 660 488 697 q 600 524 600 622 l 600 115 l 708 76 l 708 17 q 622 -2 653 3 q 556 -7 592 -7 q 467 12 507 -7 q 417 67 428 31 q 314 6 361 25 q 211 -14 267 -14 q 91 32 135 -14 q 47 157 47 78 q 88 281 47 224 q 225 358 129 339 l 413 397 l 413 494 q 392 570 413 549 q 324 592 372 592 m 329 296 q 253 253 275 282 q 231 176 231 224 q 303 99 231 99 q 360 110 329 99 q 413 136 392 122 l 413 317 l 329 296 m 197 1017 l 358 907 l 522 1017 l 569 983 l 418 786 l 299 786 l 147 983 l 197 1017 z "},"â":{"ha":717,"x_min":47,"x_max":708,"o":"m 494 776 l 329 894 l 168 776 l 118 818 l 271 1014 l 389 1014 l 540 818 l 494 776 m 324 592 q 224 575 271 592 l 193 458 l 111 458 l 88 646 q 375 697 226 697 q 544 660 488 697 q 600 524 600 622 l 600 115 l 708 76 l 708 17 q 622 -2 653 3 q 556 -7 592 -7 q 467 12 507 -7 q 417 67 428 31 q 314 6 361 25 q 211 -14 267 -14 q 91 32 135 -14 q 47 157 47 78 q 88 281 47 224 q 225 358 129 339 l 413 397 l 413 494 q 392 570 413 549 q 324 592 372 592 m 329 296 q 253 253 275 282 q 231 176 231 224 q 303 99 231 99 q 360 110 329 99 q 413 136 392 122 l 413 317 l 329 296 z "},"ấ":{"ha":717,"x_min":47,"x_max":839,"o":"m 600 863 l 551 894 l 676 1153 l 822 1153 l 839 1126 l 600 863 m 524 776 l 358 894 l 197 776 l 147 818 l 300 1014 l 418 1014 l 569 818 l 524 776 m 324 592 q 224 575 271 592 l 193 458 l 111 458 l 88 646 q 375 697 226 697 q 544 660 488 697 q 600 524 600 622 l 600 115 l 708 76 l 708 17 q 622 -2 653 3 q 556 -7 592 -7 q 467 12 507 -7 q 417 67 428 31 q 314 6 361 25 q 211 -14 267 -14 q 91 32 135 -14 q 47 157 47 78 q 88 281 47 224 q 225 358 129 339 l 413 397 l 413 494 q 392 570 413 549 q 324 592 372 592 m 329 296 q 253 253 275 282 q 231 176 231 224 q 303 99 231 99 q 360 110 329 99 q 413 136 392 122 l 413 317 l 329 296 z "},"ậ":{"ha":717,"x_min":47,"x_max":708,"o":"m 47 0 m 324 592 q 224 575 271 592 l 193 458 l 111 458 l 88 646 q 375 697 226 697 q 544 660 488 697 q 600 524 600 622 l 600 115 l 708 76 l 708 17 q 622 -2 653 3 q 556 -7 592 -7 q 467 12 507 -7 q 417 67 428 31 q 314 6 361 25 q 211 -14 267 -14 q 91 32 135 -14 q 47 157 47 78 q 88 281 47 224 q 225 358 129 339 l 413 397 l 413 494 q 392 570 413 549 q 324 592 372 592 m 329 296 q 253 253 275 282 q 231 176 231 224 q 303 99 231 99 q 360 110 329 99 q 413 136 392 122 l 413 317 l 329 296 m 475 -178 q 442 -257 475 -225 q 361 -289 408 -289 q 278 -256 314 -289 q 242 -178 242 -224 q 278 -96 242 -131 q 361 -61 314 -61 q 442 -96 408 -61 q 475 -178 475 -131 m 524 776 l 358 894 l 197 776 l 147 818 l 300 1014 l 418 1014 l 569 818 l 524 776 z "},"ầ":{"ha":717,"x_min":47,"x_max":708,"o":"m 624 863 l 385 1126 l 401 1153 l 547 1153 l 672 894 l 624 863 m 510 776 l 344 894 l 183 776 l 133 818 l 286 1014 l 404 1014 l 556 818 l 510 776 m 324 592 q 224 575 271 592 l 193 458 l 111 458 l 88 646 q 375 697 226 697 q 544 660 488 697 q 600 524 600 622 l 600 115 l 708 76 l 708 17 q 622 -2 653 3 q 556 -7 592 -7 q 467 12 507 -7 q 417 67 428 31 q 314 6 361 25 q 211 -14 267 -14 q 91 32 135 -14 q 47 157 47 78 q 88 281 47 224 q 225 358 129 339 l 413 397 l 413 494 q 392 570 413 549 q 324 592 372 592 m 329 296 q 253 253 275 282 q 231 176 231 224 q 303 99 231 99 q 360 110 329 99 q 413 136 392 122 l 413 317 l 329 296 z "},"ẩ":{"ha":717,"x_min":47,"x_max":708,"o":"m 47 0 m 324 592 q 224 575 271 592 l 193 458 l 111 458 l 88 646 q 375 697 226 697 q 544 660 488 697 q 600 524 600 622 l 600 115 l 708 76 l 708 17 q 622 -2 653 3 q 556 -7 592 -7 q 467 12 507 -7 q 417 67 428 31 q 314 6 361 25 q 211 -14 267 -14 q 91 32 135 -14 q 47 157 47 78 q 88 281 47 224 q 225 358 129 339 l 413 397 l 413 494 q 392 570 413 549 q 324 592 372 592 m 329 296 q 253 253 275 282 q 231 176 231 224 q 303 99 231 99 q 360 110 329 99 q 413 136 392 122 l 413 317 l 329 296 m 524 776 l 358 894 l 197 776 l 147 818 l 300 1014 l 418 1014 l 569 818 l 524 776 m 686 1078 q 581 1003 686 1019 l 572 971 l 497 971 l 492 1032 q 583 1074 583 1032 q 531 1104 583 1104 q 492 1101 519 1104 l 482 1064 l 426 1064 l 418 1138 q 546 1153 488 1153 q 649 1133 613 1153 q 686 1078 686 1114 z "},"ẫ":{"ha":717,"x_min":47,"x_max":708,"o":"m 47 0 m 324 592 q 224 575 271 592 l 193 458 l 111 458 l 88 646 q 375 697 226 697 q 544 660 488 697 q 600 524 600 622 l 600 115 l 708 76 l 708 17 q 622 -2 653 3 q 556 -7 592 -7 q 467 12 507 -7 q 417 67 428 31 q 314 6 361 25 q 211 -14 267 -14 q 91 32 135 -14 q 47 157 47 78 q 88 281 47 224 q 225 358 129 339 l 413 397 l 413 494 q 392 570 413 549 q 324 592 372 592 m 329 296 q 253 253 275 282 q 231 176 231 224 q 303 99 231 99 q 360 110 329 99 q 413 136 392 122 l 413 317 l 329 296 m 538 719 l 358 826 l 183 719 l 147 754 l 300 942 l 418 942 l 569 754 l 538 719 m 603 1096 q 483 951 543 951 q 347 979 444 951 q 239 1003 265 1003 q 212 993 224 1003 q 192 973 200 983 q 183 960 185 963 l 118 986 q 173 1090 140 1049 q 239 1131 206 1131 q 374 1103 279 1131 q 483 1079 456 1079 q 512 1089 499 1079 q 533 1109 525 1099 q 542 1122 540 1119 l 603 1096 z "},"ȁ":{"ha":717,"x_min":47,"x_max":708,"o":"m 47 0 m 324 592 q 224 575 271 592 l 193 458 l 111 458 l 88 646 q 375 697 226 697 q 544 660 488 697 q 600 524 600 622 l 600 115 l 708 76 l 708 17 q 622 -2 653 3 q 556 -7 592 -7 q 467 12 507 -7 q 417 67 428 31 q 314 6 361 25 q 211 -14 267 -14 q 91 32 135 -14 q 47 157 47 78 q 88 281 47 224 q 225 358 129 339 l 413 397 l 413 494 q 392 570 413 549 q 324 592 372 592 m 329 296 q 253 253 275 282 q 231 176 231 224 q 303 99 231 99 q 360 110 329 99 q 413 136 392 122 l 413 317 l 329 296 m 264 767 l 51 990 l 51 1021 l 179 1021 l 307 799 l 264 767 m 488 767 l 275 990 l 275 1021 l 403 1021 l 531 799 l 488 767 z "},"ä":{"ha":717,"x_min":47,"x_max":708,"o":"m 294 900 q 265 828 294 857 q 192 800 235 800 q 115 828 147 800 q 83 900 83 857 q 116 972 83 942 q 192 1001 149 1001 q 264 972 233 1001 q 294 900 294 942 m 615 900 q 585 828 615 857 q 514 800 554 800 q 438 828 469 800 q 407 900 407 857 q 438 972 407 943 q 514 1001 469 1001 q 585 972 554 1001 q 615 900 615 942 m 324 592 q 224 575 271 592 l 193 458 l 111 458 l 88 646 q 375 697 226 697 q 544 660 488 697 q 600 524 600 622 l 600 115 l 708 76 l 708 17 q 622 -2 653 3 q 556 -7 592 -7 q 467 12 507 -7 q 417 67 428 31 q 314 6 361 25 q 211 -14 267 -14 q 91 32 135 -14 q 47 157 47 78 q 88 281 47 224 q 225 358 129 339 l 413 397 l 413 494 q 392 570 413 549 q 324 592 372 592 m 329 296 q 253 253 275 282 q 231 176 231 224 q 303 99 231 99 q 360 110 329 99 q 413 136 392 122 l 413 317 l 329 296 z "},"ạ":{"ha":717,"x_min":47,"x_max":708,"o":"m 47 0 m 324 592 q 224 575 271 592 l 193 458 l 111 458 l 88 646 q 375 697 226 697 q 544 660 488 697 q 600 524 600 622 l 600 115 l 708 76 l 708 17 q 622 -2 653 3 q 556 -7 592 -7 q 467 12 507 -7 q 417 67 428 31 q 314 6 361 25 q 211 -14 267 -14 q 91 32 135 -14 q 47 157 47 78 q 88 281 47 224 q 225 358 129 339 l 413 397 l 413 494 q 392 570 413 549 q 324 592 372 592 m 329 296 q 253 253 275 282 q 231 176 231 224 q 303 99 231 99 q 360 110 329 99 q 413 136 392 122 l 413 317 l 329 296 m 475 -178 q 442 -257 475 -225 q 361 -289 408 -289 q 278 -256 314 -289 q 242 -178 242 -224 q 278 -96 242 -131 q 361 -61 314 -61 q 442 -96 408 -61 q 475 -178 475 -131 z "},"à":{"ha":717,"x_min":47,"x_max":708,"o":"m 450 775 l 128 926 l 133 958 l 268 1014 l 482 824 l 450 775 m 324 592 q 224 575 271 592 l 193 458 l 111 458 l 88 646 q 375 697 226 697 q 544 660 488 697 q 600 524 600 622 l 600 115 l 708 76 l 708 17 q 622 -2 653 3 q 556 -7 592 -7 q 467 12 507 -7 q 417 67 428 31 q 314 6 361 25 q 211 -14 267 -14 q 91 32 135 -14 q 47 157 47 78 q 88 281 47 224 q 225 358 129 339 l 413 397 l 413 494 q 392 570 413 549 q 324 592 372 592 m 329 296 q 253 253 275 282 q 231 176 231 224 q 303 99 231 99 q 360 110 329 99 q 413 136 392 122 l 413 317 l 329 296 z "},"ả":{"ha":717,"x_min":47,"x_max":708,"o":"m 47 0 m 324 592 q 224 575 271 592 l 193 458 l 111 458 l 88 646 q 375 697 226 697 q 544 660 488 697 q 600 524 600 622 l 600 115 l 708 76 l 708 17 q 622 -2 653 3 q 556 -7 592 -7 q 467 12 507 -7 q 417 67 428 31 q 314 6 361 25 q 211 -14 267 -14 q 91 32 135 -14 q 47 157 47 78 q 88 281 47 224 q 225 358 129 339 l 413 397 l 413 494 q 392 570 413 549 q 324 592 372 592 m 329 296 q 253 253 275 282 q 231 176 231 224 q 303 99 231 99 q 360 110 329 99 q 413 136 392 122 l 413 317 l 329 296 m 510 864 q 404 789 510 806 l 396 757 l 321 757 l 315 818 q 407 860 407 818 q 354 890 407 890 q 315 888 343 890 l 306 850 l 250 850 l 242 924 q 369 939 311 939 q 473 919 436 939 q 510 864 510 900 z "},"ȃ":{"ha":717,"x_min":47,"x_max":708,"o":"m 47 0 m 324 592 q 224 575 271 592 l 193 458 l 111 458 l 88 646 q 375 697 226 697 q 544 660 488 697 q 600 524 600 622 l 600 115 l 708 76 l 708 17 q 622 -2 653 3 q 556 -7 592 -7 q 467 12 507 -7 q 417 67 428 31 q 314 6 361 25 q 211 -14 267 -14 q 91 32 135 -14 q 47 157 47 78 q 88 281 47 224 q 225 358 129 339 l 413 397 l 413 494 q 392 570 413 549 q 324 592 372 592 m 329 296 q 253 253 275 282 q 231 176 231 224 q 303 99 231 99 q 360 110 329 99 q 413 136 392 122 l 413 317 l 329 296 m 367 1001 q 494 952 463 1001 q 526 814 526 903 l 447 811 q 428 871 447 846 q 364 896 410 896 q 268 811 268 896 l 189 814 q 367 1001 189 1001 z "},"ā":{"ha":717,"x_min":47,"x_max":708,"o":"m 168 951 l 503 951 l 503 842 l 168 842 l 168 951 m 324 592 q 224 575 271 592 l 193 458 l 111 458 l 88 646 q 375 697 226 697 q 544 660 488 697 q 600 524 600 622 l 600 115 l 708 76 l 708 17 q 622 -2 653 3 q 556 -7 592 -7 q 467 12 507 -7 q 417 67 428 31 q 314 6 361 25 q 211 -14 267 -14 q 91 32 135 -14 q 47 157 47 78 q 88 281 47 224 q 225 358 129 339 l 413 397 l 413 494 q 392 570 413 549 q 324 592 372 592 m 329 296 q 253 253 275 282 q 231 176 231 224 q 303 99 231 99 q 360 110 329 99 q 413 136 392 122 l 413 317 l 329 296 z "},"ą":{"ha":733,"x_min":47,"x_max":725,"o":"m 725 -237 q 667 -297 704 -271 q 574 -324 629 -324 q 465 -290 499 -324 q 431 -207 431 -257 q 465 -103 431 -157 q 557 -7 499 -50 q 466 12 506 -7 q 417 67 426 31 q 314 6 361 25 q 211 -14 267 -14 q 91 32 135 -14 q 47 157 47 78 q 88 281 47 224 q 225 358 129 339 l 413 397 l 413 494 q 392 570 413 549 q 324 592 372 592 q 224 575 271 592 l 193 458 l 111 458 l 88 646 q 375 697 226 697 q 544 660 488 697 q 600 524 600 622 l 600 115 l 708 76 l 708 17 q 618 -28 654 6 q 565 -101 582 -61 q 549 -174 549 -140 q 610 -237 549 -237 q 693 -207 649 -237 l 725 -237 m 413 317 l 329 296 q 253 253 275 282 q 231 176 231 224 q 303 99 231 99 q 360 110 329 99 q 413 136 392 122 l 413 317 z "},"å":{"ha":717,"x_min":47,"x_max":708,"o":"m 497 906 q 457 801 497 842 q 339 761 417 761 q 223 801 264 761 q 182 906 182 842 q 223 1013 182 971 q 339 1056 264 1056 q 456 1013 415 1056 q 497 906 497 971 m 339 982 q 295 963 306 982 q 285 906 285 943 q 295 851 285 869 q 339 833 306 833 q 383 851 372 833 q 394 906 394 869 q 383 963 394 943 q 339 982 372 982 m 324 592 q 224 575 271 592 l 193 458 l 111 458 l 88 646 q 375 697 226 697 q 544 660 488 697 q 600 524 600 622 l 600 115 l 708 76 l 708 17 q 622 -2 653 3 q 556 -7 592 -7 q 467 12 507 -7 q 417 67 428 31 q 314 6 361 25 q 211 -14 267 -14 q 91 32 135 -14 q 47 157 47 78 q 88 281 47 224 q 225 358 129 339 l 413 397 l 413 494 q 392 570 413 549 q 324 592 372 592 m 329 296 q 253 253 275 282 q 231 176 231 224 q 303 99 231 99 q 360 110 329 99 q 413 136 392 122 l 413 317 l 329 296 z "},"ǻ":{"ha":717,"x_min":47,"x_max":708,"o":"m 357 701 q 241 738 282 701 q 200 832 200 774 q 228 915 200 881 q 307 963 256 950 l 271 1010 l 488 1192 l 625 1144 l 625 1113 l 315 964 q 357 968 335 968 q 474 930 433 968 q 515 832 515 892 q 475 738 515 774 q 357 701 435 701 m 357 901 q 313 883 324 901 q 303 832 303 864 q 313 784 303 801 q 357 767 324 767 q 401 784 390 767 q 413 832 413 801 q 401 883 413 864 q 357 901 390 901 m 708 76 l 708 17 q 622 -2 653 3 q 556 -7 592 -7 q 467 12 507 -7 q 417 67 428 31 q 314 6 361 25 q 211 -14 267 -14 q 91 32 135 -14 q 47 157 47 78 q 88 281 47 224 q 225 358 129 339 l 413 397 l 413 494 q 392 570 413 549 q 324 592 372 592 q 224 575 271 592 l 193 458 l 111 458 l 88 646 q 375 697 226 697 q 544 660 488 697 q 600 524 600 622 l 600 115 l 708 76 m 413 317 l 329 296 q 253 253 275 282 q 231 176 231 224 q 303 99 231 99 q 360 110 329 99 q 413 136 392 122 l 413 317 z "},"ã":{"ha":717,"x_min":47,"x_max":708,"o":"m 582 954 q 463 810 522 810 q 326 838 424 810 q 218 861 244 861 q 191 851 203 861 q 172 831 179 842 q 163 818 164 821 l 97 844 q 218 989 158 989 q 353 961 258 989 q 463 938 435 938 q 491 947 478 938 q 512 967 504 957 q 521 981 519 978 l 582 954 m 324 592 q 224 575 271 592 l 193 458 l 111 458 l 88 646 q 375 697 226 697 q 544 660 488 697 q 600 524 600 622 l 600 115 l 708 76 l 708 17 q 622 -2 653 3 q 556 -7 592 -7 q 467 12 507 -7 q 417 67 428 31 q 314 6 361 25 q 211 -14 267 -14 q 91 32 135 -14 q 47 157 47 78 q 88 281 47 224 q 225 358 129 339 l 413 397 l 413 494 q 392 570 413 549 q 324 592 372 592 m 329 296 q 253 253 275 282 q 231 176 231 224 q 303 99 231 99 q 360 110 329 99 q 413 136 392 122 l 413 317 l 329 296 z "},"æ":{"ha":1025,"x_min":40,"x_max":990,"o":"m 204 -14 q 85 28 129 -14 q 40 135 40 71 q 92 267 40 211 q 244 340 143 324 l 406 368 l 406 494 q 385 570 406 549 q 317 592 365 592 q 217 575 264 592 l 186 458 l 104 458 l 81 646 q 368 697 219 697 q 538 629 485 697 q 622 680 575 663 q 732 697 668 697 q 921 629 851 697 q 990 428 990 561 q 986 392 990 404 l 593 321 q 611 183 593 233 q 669 112 629 133 q 781 90 710 90 q 972 124 853 90 l 983 63 q 725 -14 882 -14 q 478 94 551 -14 q 204 -14 343 -14 m 801 439 q 784 565 801 529 q 718 601 767 601 q 625 549 650 601 q 596 397 600 497 l 801 439 m 296 99 q 353 110 322 99 q 406 136 385 122 l 406 288 l 322 272 q 224 176 224 254 q 296 99 224 99 z "},"ǽ":{"ha":1025,"x_min":40,"x_max":990,"o":"m 40 0 m 204 -14 q 85 28 129 -14 q 40 135 40 71 q 92 267 40 211 q 244 340 143 324 l 406 368 l 406 494 q 385 570 406 549 q 317 592 365 592 q 217 575 264 592 l 186 458 l 104 458 l 81 646 q 368 697 219 697 q 538 629 485 697 q 622 680 575 663 q 732 697 668 697 q 921 629 851 697 q 990 428 990 561 q 986 392 990 404 l 593 321 q 611 183 593 233 q 669 112 629 133 q 781 90 710 90 q 972 124 853 90 l 983 63 q 725 -14 882 -14 q 478 94 551 -14 q 204 -14 343 -14 m 801 439 q 784 565 801 529 q 718 601 767 601 q 625 549 650 601 q 596 397 600 497 l 801 439 m 296 99 q 353 110 322 99 q 406 136 385 122 l 406 288 l 322 272 q 224 176 224 254 q 296 99 224 99 m 400 775 l 363 824 l 579 1014 l 717 958 l 717 926 l 400 775 z "},"b":{"ha":765,"x_min":-10,"x_max":731,"o":"m 286 660 q 351 686 311 675 q 431 697 392 697 q 652 610 574 697 q 731 347 731 524 q 651 89 731 192 q 376 -14 572 -14 q 234 -3 317 -14 q 99 24 151 8 l 99 879 l -10 894 l -10 961 l 225 1015 l 286 1015 l 286 660 m 286 99 q 382 81 313 81 q 497 144 465 81 q 529 344 529 208 q 499 542 529 479 q 383 604 468 604 q 286 576 331 604 l 286 99 z "},"c":{"ha":622,"x_min":35,"x_max":601,"o":"m 354 -14 q 113 85 192 -14 q 35 339 35 183 q 113 599 35 500 q 354 697 190 697 q 481 686 424 697 q 599 653 538 675 l 571 458 l 489 458 l 460 586 q 375 604 415 604 q 265 536 293 604 q 236 342 236 468 q 253 186 236 240 q 302 111 269 132 q 389 90 335 90 q 590 124 475 90 l 601 63 q 490 8 556 29 q 354 -14 424 -14 z "},"ć":{"ha":622,"x_min":35,"x_max":601,"o":"m 250 775 l 213 824 l 429 1014 l 567 958 l 567 926 l 250 775 m 354 -14 q 113 85 192 -14 q 35 339 35 183 q 113 599 35 500 q 354 697 190 697 q 481 686 424 697 q 599 653 538 675 l 571 458 l 489 458 l 460 586 q 375 604 415 604 q 265 536 293 604 q 236 342 236 468 q 253 186 236 240 q 302 111 269 132 q 389 90 335 90 q 590 124 475 90 l 601 63 q 490 8 556 29 q 354 -14 424 -14 z "},"č":{"ha":622,"x_min":35,"x_max":601,"o":"m 185 1017 l 346 907 l 510 1017 l 557 983 l 406 786 l 286 786 l 135 983 l 185 1017 m 354 -14 q 113 85 192 -14 q 35 339 35 183 q 113 599 35 500 q 354 697 190 697 q 481 686 424 697 q 599 653 538 675 l 571 458 l 489 458 l 460 586 q 375 604 415 604 q 265 536 293 604 q 236 342 236 468 q 253 186 236 240 q 302 111 269 132 q 389 90 335 90 q 590 124 475 90 l 601 63 q 490 8 556 29 q 354 -14 424 -14 z "},"ç":{"ha":622,"x_min":35,"x_max":601,"o":"m 304 -306 q 229 -290 261 -306 l 240 -235 q 279 -244 258 -244 q 338 -225 317 -244 q 360 -182 360 -206 q 342 -144 360 -160 q 283 -128 324 -129 l 274 -101 l 307 -11 q 101 100 168 4 q 35 339 35 196 q 113 599 35 500 q 354 697 190 697 q 481 686 424 697 q 599 653 538 675 l 571 458 l 489 458 l 460 586 q 375 604 415 604 q 265 536 293 604 q 236 342 236 468 q 253 186 236 240 q 302 111 269 132 q 389 90 335 90 q 590 124 475 90 l 601 63 q 497 10 558 31 q 371 -14 435 -11 l 356 -64 q 458 -92 424 -64 q 493 -164 493 -119 q 467 -234 493 -201 q 397 -286 440 -267 q 304 -306 353 -306 z "},"ĉ":{"ha":622,"x_min":35,"x_max":601,"o":"m 35 0 m 354 -14 q 113 85 192 -14 q 35 339 35 183 q 113 599 35 500 q 354 697 190 697 q 481 686 424 697 q 599 653 538 675 l 571 458 l 489 458 l 460 586 q 375 604 415 604 q 265 536 293 604 q 236 342 236 468 q 253 186 236 240 q 302 111 269 132 q 389 90 335 90 q 590 124 475 90 l 601 63 q 490 8 556 29 q 354 -14 424 -14 m 532 776 l 367 894 l 206 776 l 156 818 l 308 1014 l 426 1014 l 578 818 l 532 776 z "},"ċ":{"ha":622,"x_min":35,"x_max":601,"o":"m 35 0 m 354 -14 q 113 85 192 -14 q 35 339 35 183 q 113 599 35 500 q 354 697 190 697 q 481 686 424 697 q 599 653 538 675 l 571 458 l 489 458 l 460 586 q 375 604 415 604 q 265 536 293 604 q 236 342 236 468 q 253 186 236 240 q 302 111 269 132 q 389 90 335 90 q 590 124 475 90 l 601 63 q 490 8 556 29 q 354 -14 424 -14 m 483 897 q 450 818 483 850 q 369 786 417 786 q 286 819 322 786 q 250 897 250 851 q 286 979 250 944 q 369 1014 322 1014 q 450 979 417 1014 q 483 897 483 944 z "},"d":{"ha":774,"x_min":35,"x_max":774,"o":"m 482 67 q 264 -14 382 -14 q 94 88 153 -14 q 35 339 35 190 q 113 602 35 507 q 329 697 190 697 q 422 683 378 697 q 478 660 467 668 l 478 879 l 369 894 l 369 961 l 604 1015 l 665 1015 l 665 115 l 774 76 l 774 17 q 619 -7 683 -7 q 532 13 571 -7 q 482 67 493 32 m 356 99 q 426 113 390 99 q 478 146 461 128 l 478 567 q 429 594 460 583 q 372 604 399 604 q 270 535 304 604 q 236 342 236 465 q 265 163 236 228 q 356 99 294 99 z "},"ð":{"ha":747,"x_min":35,"x_max":722,"o":"m 375 -14 q 119 85 203 -14 q 35 339 35 183 q 117 599 35 500 q 375 697 200 697 q 493 683 435 697 q 422 817 463 760 l 272 731 l 231 803 l 371 883 q 250 999 326 936 l 300 1067 q 390 1024 340 1053 q 489 951 440 996 l 638 1038 l 681 965 l 550 890 q 722 385 721 692 q 644 99 722 211 q 375 -14 565 -14 m 381 81 q 490 148 461 81 q 519 342 519 215 q 488 536 519 468 q 372 604 456 604 q 265 536 294 604 q 236 342 236 468 q 267 149 236 217 q 381 81 299 81 z "},"ď":{"ha":860,"x_min":40,"x_max":881,"o":"m 781 735 l 724 1050 l 786 1050 l 881 1018 l 836 735 l 781 735 m 269 -14 q 99 88 158 -14 q 40 339 40 190 q 118 602 40 507 q 335 697 196 697 q 428 683 383 697 q 483 660 472 668 l 483 879 l 375 894 l 375 961 l 610 1015 l 671 1015 l 671 115 l 779 76 l 779 17 q 625 -7 689 -7 q 538 13 576 -7 q 488 67 499 32 q 269 -14 388 -14 m 361 99 q 431 113 396 99 q 483 146 467 128 l 483 567 q 435 594 465 583 q 378 604 404 604 q 276 535 310 604 q 242 342 242 465 q 271 163 242 228 q 361 99 300 99 z "},"đ":{"ha":789,"x_min":40,"x_max":779,"o":"m 779 76 l 779 17 q 625 -7 689 -7 q 538 13 576 -7 q 488 67 499 32 q 269 -14 388 -14 q 99 88 158 -14 q 40 339 40 190 q 118 602 40 507 q 335 697 196 697 q 428 683 383 697 q 483 660 472 668 l 483 782 l 260 782 l 260 865 l 483 865 l 483 907 l 375 922 l 375 989 l 610 1015 l 671 1015 l 671 865 l 750 865 l 750 782 l 671 782 l 671 115 l 779 76 m 483 567 q 435 594 465 583 q 378 604 404 604 q 276 535 310 604 q 242 342 242 465 q 271 163 242 228 q 361 99 300 99 q 431 113 396 99 q 483 146 467 128 l 483 567 z "},"ḍ":{"ha":774,"x_min":35,"x_max":774,"o":"m 35 0 m 482 67 q 264 -14 382 -14 q 94 88 153 -14 q 35 339 35 190 q 113 602 35 507 q 329 697 190 697 q 422 683 378 697 q 478 660 467 668 l 478 879 l 369 894 l 369 961 l 604 1015 l 665 1015 l 665 115 l 774 76 l 774 17 q 619 -7 683 -7 q 532 13 571 -7 q 482 67 493 32 m 356 99 q 426 113 390 99 q 478 146 461 128 l 478 567 q 429 594 460 583 q 372 604 399 604 q 270 535 304 604 q 236 342 236 465 q 265 163 236 228 q 356 99 294 99 m 504 -178 q 471 -257 504 -225 q 390 -289 438 -289 q 307 -256 343 -289 q 271 -178 271 -224 q 307 -96 271 -131 q 390 -61 343 -61 q 471 -96 438 -61 q 504 -178 504 -131 z "},"ǳ":{"ha":1440,"x_min":35,"x_max":1407,"o":"m 35 0 m 482 67 q 264 -14 382 -14 q 94 88 153 -14 q 35 339 35 190 q 113 602 35 507 q 329 697 190 697 q 422 683 378 697 q 478 660 467 668 l 478 879 l 369 894 l 369 961 l 604 1015 l 665 1015 l 665 115 l 774 76 l 774 17 q 619 -7 683 -7 q 532 13 571 -7 q 482 67 493 32 m 356 99 q 426 113 390 99 q 478 146 461 128 l 478 567 q 429 594 460 583 q 372 604 399 604 q 270 535 304 604 q 236 342 236 465 q 265 163 236 228 q 356 99 294 99 m 1174 582 l 956 582 l 921 458 l 856 458 l 831 683 l 1375 683 l 1407 618 l 1050 99 l 1285 99 l 1335 226 l 1404 226 l 1389 0 l 849 0 l 818 64 l 1174 582 z "},"ǆ":{"ha":1440,"x_min":35,"x_max":1407,"o":"m 35 0 m 482 67 q 264 -14 382 -14 q 94 88 153 -14 q 35 339 35 190 q 113 602 35 507 q 329 697 190 697 q 422 683 378 697 q 478 660 467 668 l 478 879 l 369 894 l 369 961 l 604 1015 l 665 1015 l 665 115 l 774 76 l 774 17 q 619 -7 683 -7 q 532 13 571 -7 q 482 67 493 32 m 356 99 q 426 113 390 99 q 478 146 461 128 l 478 567 q 429 594 460 583 q 372 604 399 604 q 270 535 304 604 q 236 342 236 465 q 265 163 236 228 q 356 99 294 99 m 1174 582 l 956 582 l 921 458 l 856 458 l 831 683 l 1375 683 l 1407 618 l 1050 99 l 1285 99 l 1335 226 l 1404 226 l 1389 0 l 849 0 l 818 64 l 1174 582 m 946 1017 l 1107 907 l 1271 1017 l 1318 983 l 1167 786 l 1047 786 l 896 983 l 946 1017 z "},"e":{"ha":668,"x_min":35,"x_max":633,"o":"m 368 -14 q 35 339 35 -14 q 124 614 35 531 q 354 697 213 697 q 567 633 500 697 q 633 431 633 568 q 628 339 633 371 l 236 339 l 236 306 q 282 137 236 183 q 424 90 328 90 q 615 124 496 90 l 626 63 q 368 -14 525 -14 m 444 429 l 444 458 q 428 565 444 528 q 361 601 411 601 q 267 556 292 601 q 239 414 242 511 l 444 429 z "},"é":{"ha":668,"x_min":35,"x_max":633,"o":"m 240 775 l 203 824 l 419 1014 l 557 958 l 557 926 l 240 775 m 368 -14 q 35 339 35 -14 q 124 614 35 531 q 354 697 213 697 q 567 633 500 697 q 633 431 633 568 q 628 339 633 371 l 236 339 l 236 306 q 282 137 236 183 q 424 90 328 90 q 615 124 496 90 l 626 63 q 368 -14 525 -14 m 444 429 l 444 458 q 428 565 444 528 q 361 601 411 601 q 267 556 292 601 q 239 414 242 511 l 444 429 z "},"ĕ":{"ha":668,"x_min":35,"x_max":633,"o":"m 35 0 m 368 -14 q 35 339 35 -14 q 124 614 35 531 q 354 697 213 697 q 567 633 500 697 q 633 431 633 568 q 628 339 633 371 l 236 339 l 236 306 q 282 137 236 183 q 424 90 328 90 q 615 124 496 90 l 626 63 q 368 -14 525 -14 m 444 429 l 444 458 q 428 565 444 528 q 361 601 411 601 q 267 556 292 601 q 239 414 242 511 l 444 429 m 325 797 q 197 847 229 797 q 165 985 165 896 l 244 988 q 263 928 244 953 q 328 903 282 903 q 424 988 424 903 l 503 985 q 325 797 503 797 z "},"ě":{"ha":668,"x_min":35,"x_max":633,"o":"m 288 786 l 136 983 l 186 1017 l 347 907 l 511 1017 l 558 983 l 407 786 l 288 786 m 368 -14 q 35 339 35 -14 q 124 614 35 531 q 354 697 213 697 q 567 633 500 697 q 633 431 633 568 q 628 339 633 371 l 236 339 l 236 306 q 282 137 236 183 q 424 90 328 90 q 615 124 496 90 l 626 63 q 368 -14 525 -14 m 444 429 l 444 458 q 428 565 444 528 q 361 601 411 601 q 267 556 292 601 q 239 414 242 511 l 444 429 z "},"ê":{"ha":668,"x_min":35,"x_max":633,"o":"m 185 776 l 135 818 l 288 1014 l 406 1014 l 557 818 l 511 776 l 346 894 l 185 776 m 368 -14 q 35 339 35 -14 q 124 614 35 531 q 354 697 213 697 q 567 633 500 697 q 633 431 633 568 q 628 339 633 371 l 236 339 l 236 306 q 282 137 236 183 q 424 90 328 90 q 615 124 496 90 l 626 63 q 368 -14 525 -14 m 444 429 l 444 458 q 428 565 444 528 q 361 601 411 601 q 267 556 292 601 q 239 414 242 511 l 444 429 z "},"ế":{"ha":668,"x_min":35,"x_max":815,"o":"m 576 863 l 528 894 l 653 1153 l 799 1153 l 815 1126 l 576 863 m 500 776 l 335 894 l 174 776 l 124 818 l 276 1014 l 394 1014 l 546 818 l 500 776 m 368 -14 q 35 339 35 -14 q 124 614 35 531 q 354 697 213 697 q 567 633 500 697 q 633 431 633 568 q 628 339 633 371 l 236 339 l 236 306 q 282 137 236 183 q 424 90 328 90 q 615 124 496 90 l 626 63 q 368 -14 525 -14 m 444 429 l 444 458 q 428 565 444 528 q 361 601 411 601 q 267 556 292 601 q 239 414 242 511 l 444 429 z "},"ệ":{"ha":668,"x_min":35,"x_max":633,"o":"m 35 0 m 368 -14 q 35 339 35 -14 q 124 614 35 531 q 354 697 213 697 q 567 633 500 697 q 633 431 633 568 q 628 339 633 371 l 236 339 l 236 306 q 282 137 236 183 q 424 90 328 90 q 615 124 496 90 l 626 63 q 368 -14 525 -14 m 444 429 l 444 458 q 428 565 444 528 q 361 601 411 601 q 267 556 292 601 q 239 414 242 511 l 444 429 m 451 -178 q 418 -257 451 -225 q 338 -289 385 -289 q 254 -256 290 -289 q 218 -178 218 -224 q 254 -96 218 -131 q 338 -61 290 -61 q 418 -96 385 -61 q 451 -178 451 -131 m 500 776 l 335 894 l 174 776 l 124 818 l 276 1014 l 394 1014 l 546 818 l 500 776 z "},"ề":{"ha":668,"x_min":35,"x_max":649,"o":"m 600 863 l 361 1126 l 378 1153 l 524 1153 l 649 894 l 600 863 m 486 776 l 321 894 l 160 776 l 110 818 l 263 1014 l 381 1014 l 532 818 l 486 776 m 368 -14 q 35 339 35 -14 q 124 614 35 531 q 354 697 213 697 q 567 633 500 697 q 633 431 633 568 q 628 339 633 371 l 236 339 l 236 306 q 282 137 236 183 q 424 90 328 90 q 615 124 496 90 l 626 63 q 368 -14 525 -14 m 444 429 l 444 458 q 428 565 444 528 q 361 601 411 601 q 267 556 292 601 q 239 414 242 511 l 444 429 z "},"ể":{"ha":668,"x_min":35,"x_max":663,"o":"m 35 0 m 368 -14 q 35 339 35 -14 q 124 614 35 531 q 354 697 213 697 q 567 633 500 697 q 633 431 633 568 q 628 339 633 371 l 236 339 l 236 306 q 282 137 236 183 q 424 90 328 90 q 615 124 496 90 l 626 63 q 368 -14 525 -14 m 444 429 l 444 458 q 428 565 444 528 q 361 601 411 601 q 267 556 292 601 q 239 414 242 511 l 444 429 m 500 776 l 335 894 l 174 776 l 124 818 l 276 1014 l 394 1014 l 546 818 l 500 776 m 663 1078 q 557 1003 663 1019 l 549 971 l 474 971 l 468 1032 q 560 1074 560 1032 q 507 1104 560 1104 q 468 1101 496 1104 l 458 1064 l 403 1064 l 394 1138 q 522 1153 464 1153 q 626 1133 589 1153 q 663 1078 663 1114 z "},"ễ":{"ha":668,"x_min":35,"x_max":633,"o":"m 35 0 m 368 -14 q 35 339 35 -14 q 124 614 35 531 q 354 697 213 697 q 567 633 500 697 q 633 431 633 568 q 628 339 633 371 l 236 339 l 236 306 q 282 137 236 183 q 424 90 328 90 q 615 124 496 90 l 626 63 q 368 -14 525 -14 m 444 429 l 444 458 q 428 565 444 528 q 361 601 411 601 q 267 556 292 601 q 239 414 242 511 l 444 429 m 514 719 l 335 826 l 160 719 l 124 754 l 276 942 l 394 942 l 546 754 l 514 719 m 579 1096 q 460 951 519 951 q 324 979 421 951 q 215 1003 242 1003 q 188 993 200 1003 q 169 973 176 983 q 160 960 161 963 l 94 986 q 149 1090 117 1049 q 215 1131 182 1131 q 350 1103 256 1131 q 460 1079 432 1079 q 488 1089 475 1079 q 509 1109 501 1099 q 518 1122 517 1119 l 579 1096 z "},"ȅ":{"ha":668,"x_min":28,"x_max":633,"o":"m 28 0 m 368 -14 q 35 339 35 -14 q 124 614 35 531 q 354 697 213 697 q 567 633 500 697 q 633 431 633 568 q 628 339 633 371 l 236 339 l 236 306 q 282 137 236 183 q 424 90 328 90 q 615 124 496 90 l 626 63 q 368 -14 525 -14 m 444 429 l 444 458 q 428 565 444 528 q 361 601 411 601 q 267 556 292 601 q 239 414 242 511 l 444 429 m 240 767 l 28 990 l 28 1021 l 156 1021 l 283 799 l 240 767 m 464 767 l 251 990 l 251 1021 l 379 1021 l 507 799 l 464 767 z "},"ë":{"ha":668,"x_min":35,"x_max":633,"o":"m 182 800 q 106 828 138 800 q 74 900 74 857 q 106 972 74 942 q 182 1001 139 1001 q 254 972 224 1001 q 285 900 285 942 q 255 828 285 857 q 182 800 225 800 m 504 800 q 428 828 460 800 q 397 900 397 857 q 428 972 397 943 q 504 1001 460 1001 q 575 972 544 1001 q 606 900 606 942 q 575 828 606 857 q 504 800 544 800 m 368 -14 q 35 339 35 -14 q 124 614 35 531 q 354 697 213 697 q 567 633 500 697 q 633 431 633 568 q 628 339 633 371 l 236 339 l 236 306 q 282 137 236 183 q 424 90 328 90 q 615 124 496 90 l 626 63 q 368 -14 525 -14 m 444 429 l 444 458 q 428 565 444 528 q 361 601 411 601 q 267 556 292 601 q 239 414 242 511 l 444 429 z "},"ė":{"ha":668,"x_min":35,"x_max":633,"o":"m 349 786 q 265 819 301 786 q 229 897 229 851 q 265 979 229 944 q 349 1014 301 1014 q 429 979 396 1014 q 463 897 463 944 q 429 818 463 850 q 349 786 396 786 m 368 -14 q 35 339 35 -14 q 124 614 35 531 q 354 697 213 697 q 567 633 500 697 q 633 431 633 568 q 628 339 633 371 l 236 339 l 236 306 q 282 137 236 183 q 424 90 328 90 q 615 124 496 90 l 626 63 q 368 -14 525 -14 m 444 429 l 444 458 q 428 565 444 528 q 361 601 411 601 q 267 556 292 601 q 239 414 242 511 l 444 429 z "},"ẹ":{"ha":668,"x_min":35,"x_max":633,"o":"m 35 0 m 368 -14 q 35 339 35 -14 q 124 614 35 531 q 354 697 213 697 q 567 633 500 697 q 633 431 633 568 q 628 339 633 371 l 236 339 l 236 306 q 282 137 236 183 q 424 90 328 90 q 615 124 496 90 l 626 63 q 368 -14 525 -14 m 444 429 l 444 458 q 428 565 444 528 q 361 601 411 601 q 267 556 292 601 q 239 414 242 511 l 444 429 m 451 -178 q 418 -257 451 -225 q 338 -289 385 -289 q 254 -256 290 -289 q 218 -178 218 -224 q 254 -96 218 -131 q 338 -61 290 -61 q 418 -96 385 -61 q 451 -178 451 -131 z "},"è":{"ha":668,"x_min":35,"x_max":633,"o":"m 463 775 l 140 926 l 146 958 l 281 1014 l 494 824 l 463 775 m 368 -14 q 35 339 35 -14 q 124 614 35 531 q 354 697 213 697 q 567 633 500 697 q 633 431 633 568 q 628 339 633 371 l 236 339 l 236 306 q 282 137 236 183 q 424 90 328 90 q 615 124 496 90 l 626 63 q 368 -14 525 -14 m 444 429 l 444 458 q 428 565 444 528 q 361 601 411 601 q 267 556 292 601 q 239 414 242 511 l 444 429 z "},"ẻ":{"ha":668,"x_min":35,"x_max":633,"o":"m 35 0 m 368 -14 q 35 339 35 -14 q 124 614 35 531 q 354 697 213 697 q 567 633 500 697 q 633 431 633 568 q 628 339 633 371 l 236 339 l 236 306 q 282 137 236 183 q 424 90 328 90 q 615 124 496 90 l 626 63 q 368 -14 525 -14 m 444 429 l 444 458 q 428 565 444 528 q 361 601 411 601 q 267 556 292 601 q 239 414 242 511 l 444 429 m 486 864 q 381 789 486 806 l 372 757 l 297 757 l 292 818 q 383 860 383 818 q 331 890 383 890 q 292 888 319 890 l 282 850 l 226 850 l 218 924 q 346 939 288 939 q 449 919 413 939 q 486 864 486 900 z "},"ȇ":{"ha":668,"x_min":35,"x_max":633,"o":"m 35 0 m 368 -14 q 35 339 35 -14 q 124 614 35 531 q 354 697 213 697 q 567 633 500 697 q 633 431 633 568 q 628 339 633 371 l 236 339 l 236 306 q 282 137 236 183 q 424 90 328 90 q 615 124 496 90 l 626 63 q 368 -14 525 -14 m 444 429 l 444 458 q 428 565 444 528 q 361 601 411 601 q 267 556 292 601 q 239 414 242 511 l 444 429 m 343 1001 q 471 952 439 1001 q 503 814 503 903 l 424 811 q 405 871 424 846 q 340 896 386 896 q 244 811 244 896 l 165 814 q 343 1001 165 1001 z "},"ē":{"ha":668,"x_min":35,"x_max":633,"o":"m 169 842 l 169 951 l 504 951 l 504 842 l 169 842 m 368 -14 q 35 339 35 -14 q 124 614 35 531 q 354 697 213 697 q 567 633 500 697 q 633 431 633 568 q 628 339 633 371 l 236 339 l 236 306 q 282 137 236 183 q 424 90 328 90 q 615 124 496 90 l 626 63 q 368 -14 525 -14 m 444 429 l 444 458 q 428 565 444 528 q 361 601 411 601 q 267 556 292 601 q 239 414 242 511 l 444 429 z "},"ę":{"ha":668,"x_min":35,"x_max":633,"o":"m 468 -324 q 359 -290 393 -324 q 325 -206 325 -257 q 361 -99 325 -153 q 450 -7 397 -46 q 368 -14 408 -14 q 35 339 35 -14 q 124 614 35 531 q 354 697 213 697 q 567 633 500 697 q 633 431 633 568 q 628 339 633 371 l 236 339 l 236 306 q 282 137 236 183 q 424 90 328 90 q 615 124 496 90 l 626 63 l 600 43 q 485 -56 526 -8 q 443 -174 443 -104 q 504 -237 443 -237 q 588 -207 543 -237 l 619 -237 q 560 -297 599 -271 q 468 -324 522 -324 m 444 429 l 444 458 q 428 565 444 528 q 361 601 411 601 q 267 556 292 601 q 239 414 242 511 l 444 429 z "},"ẽ":{"ha":668,"x_min":35,"x_max":633,"o":"m 465 810 q 329 838 426 810 q 221 861 247 861 q 194 851 206 861 q 174 831 182 842 q 165 818 167 821 l 100 844 q 221 989 161 989 q 356 961 261 989 q 465 938 438 938 q 494 947 481 938 q 515 967 507 957 q 524 981 522 978 l 585 954 q 465 810 525 810 m 368 -14 q 35 339 35 -14 q 124 614 35 531 q 354 697 213 697 q 567 633 500 697 q 633 431 633 568 q 628 339 633 371 l 236 339 l 236 306 q 282 137 236 183 q 424 90 328 90 q 615 124 496 90 l 626 63 q 368 -14 525 -14 m 444 429 l 444 458 q 428 565 444 528 q 361 601 411 601 q 267 556 292 601 q 239 414 242 511 l 444 429 z "},"ə":{"ha":668,"x_min":35,"x_max":633,"o":"m 300 697 q 633 344 633 697 q 544 69 633 153 q 314 -14 456 -14 q 101 51 168 -14 q 35 253 35 115 q 40 344 35 313 l 432 344 l 432 378 q 386 547 432 500 q 244 593 340 593 q 53 560 172 593 l 42 621 q 300 697 143 697 m 224 254 l 224 225 q 240 119 224 156 q 307 82 257 82 q 401 127 376 82 q 429 269 426 172 l 224 254 z "},"f":{"ha":536,"x_min":35,"x_max":613,"o":"m 42 69 l 150 97 l 150 583 l 35 583 l 35 650 l 150 704 q 233 933 150 851 q 469 1015 317 1015 q 553 1004 507 1015 q 613 982 600 993 l 586 781 l 496 781 l 471 892 q 429 900 449 900 q 352 856 369 900 q 335 724 335 813 l 335 683 l 543 683 l 543 574 l 338 586 l 338 103 l 501 76 l 501 0 l 42 0 l 42 69 z "},"g":{"ha":715,"x_min":35,"x_max":706,"o":"m 325 -246 q 97 -208 158 -246 q 35 -110 35 -169 q 56 -41 35 -74 q 135 24 78 -8 q 92 58 107 32 q 76 111 76 85 q 101 181 76 147 q 172 260 126 215 q 96 344 119 290 q 72 465 72 397 q 144 636 72 571 q 347 701 217 701 q 518 661 444 701 l 706 717 l 706 597 l 575 597 q 611 538 597 575 q 625 465 625 500 q 558 288 625 354 q 347 222 490 222 q 291 226 321 222 q 249 233 261 229 q 236 189 236 203 q 276 143 236 143 l 453 143 q 631 106 568 143 q 694 -18 694 68 q 653 -128 694 -76 q 528 -213 611 -181 q 325 -246 444 -246 m 350 313 q 446 465 446 313 q 346 615 446 615 q 278 577 299 615 q 257 465 257 539 q 350 313 257 313 m 329 -153 q 473 -122 426 -153 q 519 -33 519 -90 q 501 9 519 1 q 435 17 482 17 l 246 17 q 219 -28 226 -7 q 211 -78 211 -50 q 238 -133 211 -114 q 329 -153 264 -153 z "},"ǵ":{"ha":715,"x_min":35,"x_max":706,"o":"m 35 0 m 325 -246 q 97 -208 158 -246 q 35 -110 35 -169 q 56 -41 35 -74 q 135 24 78 -8 q 92 58 107 32 q 76 111 76 85 q 101 181 76 147 q 172 260 126 215 q 96 344 119 290 q 72 465 72 397 q 144 636 72 571 q 347 701 217 701 q 518 661 444 701 l 706 717 l 706 597 l 575 597 q 611 538 597 575 q 625 465 625 500 q 558 288 625 354 q 347 222 490 222 q 291 226 321 222 q 249 233 261 229 q 236 189 236 203 q 276 143 236 143 l 453 143 q 631 106 568 143 q 694 -18 694 68 q 653 -128 694 -76 q 528 -213 611 -181 q 325 -246 444 -246 m 350 313 q 446 465 446 313 q 346 615 446 615 q 278 577 299 615 q 257 465 257 539 q 350 313 257 313 m 329 -153 q 473 -122 426 -153 q 519 -33 519 -90 q 501 9 519 1 q 435 17 482 17 l 246 17 q 219 -28 226 -7 q 211 -78 211 -50 q 238 -133 211 -114 q 329 -153 264 -153 m 246 775 l 208 824 l 425 1014 l 563 958 l 563 926 l 246 775 z "},"ğ":{"ha":736,"x_min":29,"x_max":708,"o":"m 339 797 q 211 847 243 797 q 179 985 179 896 l 258 988 q 277 928 258 953 q 342 903 296 903 q 438 988 438 903 l 517 985 q 339 797 517 797 m 322 -246 q 29 -110 29 -246 q 138 24 29 -37 q 94 58 110 32 q 79 111 79 85 q 104 181 79 147 q 175 260 129 215 q 99 344 122 290 q 75 465 75 397 q 147 636 75 571 q 350 701 219 701 q 521 661 447 701 l 708 717 l 708 597 l 578 597 q 614 538 600 575 q 628 465 628 500 q 560 288 628 354 q 350 222 493 222 q 294 226 324 222 q 251 233 264 229 q 239 189 239 203 q 279 143 239 143 l 467 143 q 645 106 582 143 q 708 -18 708 68 q 663 -128 708 -76 q 529 -213 617 -181 q 322 -246 442 -246 m 353 313 q 449 465 449 313 q 349 615 449 615 q 281 577 301 615 q 260 465 260 539 q 353 313 260 313 m 326 -153 q 479 -121 425 -153 q 533 -33 533 -89 q 515 9 533 1 q 449 17 496 17 l 249 17 q 216 -33 226 -12 q 206 -78 206 -53 q 233 -133 206 -114 q 326 -153 261 -153 z "},"ǧ":{"ha":715,"x_min":35,"x_max":706,"o":"m 35 0 m 325 -246 q 97 -208 158 -246 q 35 -110 35 -169 q 56 -41 35 -74 q 135 24 78 -8 q 92 58 107 32 q 76 111 76 85 q 101 181 76 147 q 172 260 126 215 q 96 344 119 290 q 72 465 72 397 q 144 636 72 571 q 347 701 217 701 q 518 661 444 701 l 706 717 l 706 597 l 575 597 q 611 538 597 575 q 625 465 625 500 q 558 288 625 354 q 347 222 490 222 q 291 226 321 222 q 249 233 261 229 q 236 189 236 203 q 276 143 236 143 l 453 143 q 631 106 568 143 q 694 -18 694 68 q 653 -128 694 -76 q 528 -213 611 -181 q 325 -246 444 -246 m 350 313 q 446 465 446 313 q 346 615 446 615 q 278 577 299 615 q 257 465 257 539 q 350 313 257 313 m 329 -153 q 473 -122 426 -153 q 519 -33 519 -90 q 501 9 519 1 q 435 17 482 17 l 246 17 q 219 -28 226 -7 q 211 -78 211 -50 q 238 -133 211 -114 q 329 -153 264 -153 m 197 1017 l 358 907 l 522 1017 l 569 983 l 418 786 l 299 786 l 147 983 l 197 1017 z "},"ĝ":{"ha":715,"x_min":35,"x_max":706,"o":"m 35 0 m 325 -246 q 97 -208 158 -246 q 35 -110 35 -169 q 56 -41 35 -74 q 135 24 78 -8 q 92 58 107 32 q 76 111 76 85 q 101 181 76 147 q 172 260 126 215 q 96 344 119 290 q 72 465 72 397 q 144 636 72 571 q 347 701 217 701 q 518 661 444 701 l 706 717 l 706 597 l 575 597 q 611 538 597 575 q 625 465 625 500 q 558 288 625 354 q 347 222 490 222 q 291 226 321 222 q 249 233 261 229 q 236 189 236 203 q 276 143 236 143 l 453 143 q 631 106 568 143 q 694 -18 694 68 q 653 -128 694 -76 q 528 -213 611 -181 q 325 -246 444 -246 m 350 313 q 446 465 446 313 q 346 615 446 615 q 278 577 299 615 q 257 465 257 539 q 350 313 257 313 m 329 -153 q 473 -122 426 -153 q 519 -33 519 -90 q 501 9 519 1 q 435 17 482 17 l 246 17 q 219 -28 226 -7 q 211 -78 211 -50 q 238 -133 211 -114 q 329 -153 264 -153 m 524 776 l 358 894 l 197 776 l 147 818 l 300 1014 l 418 1014 l 569 818 l 524 776 z "},"ģ":{"ha":736,"x_min":29,"x_max":708,"o":"m 304 779 l 269 813 l 381 1074 l 442 1064 l 429 807 l 304 779 m 322 -246 q 29 -110 29 -246 q 138 24 29 -37 q 94 58 110 32 q 79 111 79 85 q 104 181 79 147 q 175 260 129 215 q 99 344 122 290 q 75 465 75 397 q 147 636 75 571 q 350 701 219 701 q 521 661 447 701 l 708 717 l 708 597 l 578 597 q 614 538 600 575 q 628 465 628 500 q 560 288 628 354 q 350 222 493 222 q 294 226 324 222 q 251 233 264 229 q 239 189 239 203 q 279 143 239 143 l 467 143 q 645 106 582 143 q 708 -18 708 68 q 663 -128 708 -76 q 529 -213 617 -181 q 322 -246 442 -246 m 353 313 q 449 465 449 313 q 349 615 449 615 q 281 577 301 615 q 260 465 260 539 q 353 313 260 313 m 326 -153 q 479 -121 425 -153 q 533 -33 533 -89 q 515 9 533 1 q 449 17 496 17 l 249 17 q 216 -33 226 -12 q 206 -78 206 -53 q 233 -133 206 -114 q 326 -153 261 -153 z "},"ġ":{"ha":715,"x_min":35,"x_max":706,"o":"m 35 0 m 325 -246 q 97 -208 158 -246 q 35 -110 35 -169 q 56 -41 35 -74 q 135 24 78 -8 q 92 58 107 32 q 76 111 76 85 q 101 181 76 147 q 172 260 126 215 q 96 344 119 290 q 72 465 72 397 q 144 636 72 571 q 347 701 217 701 q 518 661 444 701 l 706 717 l 706 597 l 575 597 q 611 538 597 575 q 625 465 625 500 q 558 288 625 354 q 347 222 490 222 q 291 226 321 222 q 249 233 261 229 q 236 189 236 203 q 276 143 236 143 l 453 143 q 631 106 568 143 q 694 -18 694 68 q 653 -128 694 -76 q 528 -213 611 -181 q 325 -246 444 -246 m 350 313 q 446 465 446 313 q 346 615 446 615 q 278 577 299 615 q 257 465 257 539 q 350 313 257 313 m 329 -153 q 473 -122 426 -153 q 519 -33 519 -90 q 501 9 519 1 q 435 17 482 17 l 246 17 q 219 -28 226 -7 q 211 -78 211 -50 q 238 -133 211 -114 q 329 -153 264 -153 m 475 897 q 442 818 475 850 q 361 786 408 786 q 278 819 314 786 q 242 897 242 851 q 278 979 242 944 q 361 1014 314 1014 q 442 979 408 1014 q 475 897 475 944 z "},"h":{"ha":865,"x_min":25,"x_max":847,"o":"m 467 0 l 467 63 l 550 97 l 550 506 q 533 569 550 554 q 460 585 515 585 q 321 568 379 585 l 321 97 l 404 63 l 404 0 l 25 0 l 25 69 l 133 97 l 133 879 l 25 894 l 25 961 l 260 1015 l 321 1015 l 321 642 q 436 679 361 661 q 568 697 511 697 q 690 662 642 697 q 738 553 738 626 l 738 97 l 847 63 l 847 0 l 467 0 z "},"ħ":{"ha":865,"x_min":25,"x_max":847,"o":"m 847 63 l 847 0 l 467 0 l 467 63 l 550 97 l 550 506 q 533 569 550 554 q 460 585 515 585 q 321 568 379 585 l 321 97 l 404 63 l 404 0 l 25 0 l 25 69 l 133 97 l 133 782 l 25 782 l 25 865 l 133 865 l 133 907 l 25 922 l 25 989 l 260 1015 l 321 1015 l 321 865 l 515 865 l 515 782 l 321 782 l 321 642 q 436 679 361 661 q 568 697 511 697 q 690 662 642 697 q 738 553 738 626 l 738 97 l 847 63 z "},"ĥ":{"ha":865,"x_min":17,"x_max":847,"o":"m 17 0 m 467 0 l 467 63 l 550 97 l 550 506 q 533 569 550 554 q 460 585 515 585 q 321 568 379 585 l 321 97 l 404 63 l 404 0 l 25 0 l 25 69 l 133 97 l 133 879 l 25 894 l 25 961 l 260 1015 l 321 1015 l 321 642 q 436 679 361 661 q 568 697 511 697 q 690 662 642 697 q 738 553 738 626 l 738 97 l 847 63 l 847 0 l 467 0 m 407 1022 l 228 1129 l 53 1022 l 17 1057 l 169 1244 l 288 1244 l 439 1057 l 407 1022 z "},"ḥ":{"ha":865,"x_min":25,"x_max":847,"o":"m 25 0 m 467 0 l 467 63 l 550 97 l 550 506 q 533 569 550 554 q 460 585 515 585 q 321 568 379 585 l 321 97 l 404 63 l 404 0 l 25 0 l 25 69 l 133 97 l 133 879 l 25 894 l 25 961 l 260 1015 l 321 1015 l 321 642 q 436 679 361 661 q 568 697 511 697 q 690 662 642 697 q 738 553 738 626 l 738 97 l 847 63 l 847 0 l 467 0 m 550 -178 q 517 -257 550 -225 q 436 -289 483 -289 q 353 -256 389 -289 q 317 -178 317 -224 q 353 -96 317 -131 q 436 -61 389 -61 q 517 -96 483 -61 q 550 -178 550 -131 z "},"i":{"ha":457,"x_min":35,"x_max":439,"o":"m 236 786 q 153 819 189 786 q 117 897 117 851 q 153 979 117 944 q 236 1014 189 1014 q 317 979 283 1014 q 350 897 350 944 q 317 818 350 850 q 236 786 283 786 m 35 0 l 35 69 l 143 97 l 143 561 l 35 576 l 35 643 l 269 697 l 331 697 l 331 97 l 439 69 l 439 0 l 35 0 z "},"ı":{"ha":457,"x_min":35,"x_max":439,"o":"m 439 69 l 439 0 l 35 0 l 35 69 l 143 97 l 143 561 l 35 576 l 35 643 l 269 697 l 331 697 l 331 97 l 439 69 z "},"í":{"ha":457,"x_min":35,"x_max":439,"o":"m 86 775 l 49 824 l 265 1014 l 403 958 l 403 926 l 86 775 m 439 69 l 439 0 l 35 0 l 35 69 l 143 97 l 143 561 l 35 576 l 35 643 l 269 697 l 331 697 l 331 97 l 439 69 z "},"ĭ":{"ha":457,"x_min":35,"x_max":439,"o":"m 35 0 m 439 69 l 439 0 l 35 0 l 35 69 l 143 97 l 143 561 l 35 576 l 35 643 l 269 697 l 331 697 l 331 97 l 439 69 m 219 797 q 92 847 124 797 q 60 985 60 896 l 139 988 q 158 928 139 953 q 222 903 176 903 q 318 988 318 903 l 397 985 q 219 797 397 797 z "},"ǐ":{"ha":457,"x_min":18,"x_max":440,"o":"m 18 0 m 439 69 l 439 0 l 35 0 l 35 69 l 143 97 l 143 561 l 35 576 l 35 643 l 269 697 l 331 697 l 331 97 l 439 69 m 68 1017 l 229 907 l 393 1017 l 440 983 l 289 786 l 169 786 l 18 983 l 68 1017 z "},"î":{"ha":457,"x_min":-6,"x_max":439,"o":"m 371 776 l 206 894 l 44 776 l -6 818 l 147 1014 l 265 1014 l 417 818 l 371 776 m 439 69 l 439 0 l 35 0 l 35 69 l 143 97 l 143 561 l 35 576 l 35 643 l 269 697 l 331 697 l 331 97 l 439 69 z "},"ȉ":{"ha":457,"x_min":-78,"x_max":439,"o":"m 0 0 m 439 69 l 439 0 l 35 0 l 35 69 l 143 97 l 143 561 l 35 576 l 35 643 l 269 697 l 331 697 l 331 97 l 439 69 m 135 767 l -78 990 l -78 1021 l 50 1021 l 178 799 l 135 767 m 358 767 l 146 990 l 146 1021 l 274 1021 l 401 799 l 358 767 z "},"ï":{"ha":457,"x_min":-51,"x_max":481,"o":"m 160 900 q 130 828 160 857 q 57 800 100 800 q -19 828 13 800 q -51 900 -51 857 q -19 972 -51 942 q 57 1001 14 1001 q 129 972 99 1001 q 160 900 160 942 m 481 900 q 450 828 481 857 q 379 800 419 800 q 303 828 335 800 q 272 900 272 857 q 303 972 272 943 q 379 1001 335 1001 q 450 972 419 1001 q 481 900 481 942 m 439 69 l 439 0 l 35 0 l 35 69 l 143 97 l 143 561 l 35 576 l 35 643 l 269 697 l 331 697 l 331 97 l 439 69 z "},"ị":{"ha":457,"x_min":35,"x_max":439,"o":"m 35 0 m 236 786 q 153 819 189 786 q 117 897 117 851 q 153 979 117 944 q 236 1014 189 1014 q 317 979 283 1014 q 350 897 350 944 q 317 818 350 850 q 236 786 283 786 m 35 0 l 35 69 l 143 97 l 143 561 l 35 576 l 35 643 l 269 697 l 331 697 l 331 97 l 439 69 l 439 0 l 35 0 m 346 -178 q 313 -257 346 -225 q 232 -289 279 -289 q 149 -256 185 -289 q 113 -178 113 -224 q 149 -96 113 -131 q 232 -61 185 -61 q 313 -96 279 -61 q 346 -178 346 -131 z "},"ì":{"ha":457,"x_min":0,"x_max":439,"o":"m 322 775 l 0 926 l 6 958 l 140 1014 l 354 824 l 322 775 m 439 69 l 439 0 l 35 0 l 35 69 l 143 97 l 143 561 l 35 576 l 35 643 l 269 697 l 331 697 l 331 97 l 439 69 z "},"ỉ":{"ha":457,"x_min":35,"x_max":439,"o":"m 35 0 m 439 69 l 439 0 l 35 0 l 35 69 l 143 97 l 143 561 l 35 576 l 35 643 l 269 697 l 331 697 l 331 97 l 439 69 m 381 864 q 275 789 381 806 l 267 757 l 192 757 l 186 818 q 278 860 278 818 q 225 890 278 890 q 186 888 214 890 l 176 850 l 121 850 l 113 924 q 240 939 182 939 q 344 919 307 939 q 381 864 381 900 z "},"ȋ":{"ha":457,"x_min":35,"x_max":439,"o":"m 35 0 m 439 69 l 439 0 l 35 0 l 35 69 l 143 97 l 143 561 l 35 576 l 35 643 l 269 697 l 331 697 l 331 97 l 439 69 m 238 1001 q 365 952 333 1001 q 397 814 397 903 l 318 811 q 299 871 318 846 q 235 896 281 896 q 139 811 139 896 l 60 814 q 238 1001 60 1001 z "},"ĳ":{"ha":915,"x_min":35,"x_max":813,"o":"m 35 0 m 236 786 q 153 819 189 786 q 117 897 117 851 q 153 979 117 944 q 236 1014 189 1014 q 317 979 283 1014 q 350 897 350 944 q 317 818 350 850 q 236 786 283 786 m 35 0 l 35 69 l 143 97 l 143 561 l 35 576 l 35 643 l 269 697 l 331 697 l 331 97 l 439 69 l 439 0 l 35 0 m 813 897 q 778 819 813 851 q 697 786 744 786 q 614 819 650 786 q 578 897 578 851 q 614 979 578 944 q 697 1014 650 1014 q 778 979 744 1014 q 813 897 813 944 m 736 697 l 797 697 l 797 78 q 737 -159 797 -85 q 590 -233 676 -233 q 521 -223 564 -233 q 438 -193 478 -212 l 446 -128 l 508 -128 q 585 -97 560 -128 q 610 -26 610 -67 l 610 561 l 501 576 l 501 643 l 736 697 z "},"ī":{"ha":457,"x_min":29,"x_max":439,"o":"m 29 951 l 364 951 l 364 842 l 29 842 l 29 951 m 439 69 l 439 0 l 35 0 l 35 69 l 143 97 l 143 561 l 35 576 l 35 643 l 269 697 l 331 697 l 331 97 l 439 69 z "},"į":{"ha":457,"x_min":35,"x_max":456,"o":"m 236 786 q 153 819 189 786 q 117 897 117 851 q 153 979 117 944 q 236 1014 189 1014 q 317 979 283 1014 q 350 897 350 944 q 317 818 350 850 q 236 786 283 786 m 304 -324 q 195 -290 229 -324 q 161 -207 161 -257 q 201 -94 161 -149 q 306 0 242 -40 l 35 0 l 35 69 l 143 97 l 143 561 l 35 576 l 35 643 l 269 697 l 331 697 l 331 97 l 439 69 l 439 0 q 319 -71 360 -19 q 279 -174 279 -122 q 340 -237 279 -237 q 424 -207 379 -237 l 456 -237 q 397 -297 435 -271 q 304 -324 360 -324 z "},"ĩ":{"ha":457,"x_min":-28,"x_max":457,"o":"m 457 915 q 338 771 397 771 q 201 799 299 771 q 93 822 119 822 q 66 813 78 822 q 47 792 54 803 q 38 779 39 782 l -28 806 q 93 950 33 950 q 228 922 133 950 q 338 899 310 899 q 366 908 353 899 q 387 928 379 918 q 396 942 394 939 l 457 915 m 439 69 l 439 0 l 35 0 l 35 69 l 143 97 l 143 561 l 35 576 l 35 643 l 269 697 l 331 697 l 331 97 l 439 69 z "},"j":{"ha":458,"x_min":-19,"x_max":356,"o":"m 356 897 q 322 819 356 851 q 240 786 288 786 q 157 819 193 786 q 121 897 121 851 q 157 979 121 944 q 240 1014 193 1014 q 322 979 288 1014 q 356 897 356 944 m 279 697 l 340 697 l 340 78 q 280 -159 340 -85 q 133 -233 219 -233 q 64 -223 107 -233 q -19 -193 21 -212 l -11 -128 l 51 -128 q 128 -97 103 -128 q 153 -26 153 -67 l 153 561 l 44 576 l 44 643 l 279 697 z "},"ȷ":{"ha":458,"x_min":-19,"x_max":340,"o":"m 279 697 l 340 697 l 340 78 q 280 -159 340 -85 q 133 -233 219 -233 q 64 -223 107 -233 q -19 -193 21 -212 l -11 -128 l 51 -128 q 128 -97 103 -128 q 153 -26 153 -67 l 153 561 l 44 576 l 44 643 l 279 697 z "},"ĵ":{"ha":458,"x_min":-19,"x_max":440,"o":"m 0 0 m 279 697 l 340 697 l 340 78 q 280 -159 340 -85 q 133 -233 219 -233 q 64 -223 107 -233 q -19 -193 21 -212 l -11 -128 l 51 -128 q 128 -97 103 -128 q 153 -26 153 -67 l 153 561 l 44 576 l 44 643 l 279 697 m 394 776 l 229 894 l 68 776 l 18 818 l 171 1014 l 289 1014 l 440 818 l 394 776 z "},"k":{"ha":811,"x_min":25,"x_max":832,"o":"m 404 0 l 25 0 l 25 69 l 133 97 l 133 879 l 25 894 l 25 961 l 258 1015 l 321 1015 l 321 97 l 404 72 l 404 0 m 832 0 l 478 0 l 478 72 l 538 96 l 328 358 l 521 593 l 431 614 l 431 683 l 786 683 l 786 614 l 656 589 l 507 410 l 756 99 l 832 72 l 832 0 z "},"ķ":{"ha":811,"x_min":25,"x_max":832,"o":"m 25 0 l 25 69 l 133 97 l 133 879 l 25 894 l 25 961 l 258 1015 l 321 1015 l 321 97 l 404 72 l 404 0 l 25 0 m 478 0 l 478 72 l 538 96 l 328 358 l 521 593 l 431 614 l 431 683 l 786 683 l 786 614 l 656 589 l 507 410 l 756 99 l 832 72 l 832 0 l 478 0 m 343 -318 l 356 -61 l 481 -33 l 515 -67 l 404 -328 l 343 -318 z "},"ĸ":{"ha":821,"x_min":35,"x_max":842,"o":"m 414 0 l 35 0 l 35 69 l 143 97 l 143 563 l 35 576 l 35 646 l 268 697 l 331 697 l 331 97 l 414 72 l 414 0 m 842 0 l 488 0 l 488 72 l 547 96 l 338 358 l 531 593 l 440 614 l 440 683 l 796 683 l 796 614 l 665 589 l 517 410 l 765 99 l 842 72 l 842 0 z "},"l":{"ha":447,"x_min":21,"x_max":425,"o":"m 21 0 l 21 69 l 129 97 l 129 879 l 21 894 l 21 961 l 256 1015 l 317 1015 l 317 97 l 425 69 l 425 0 l 21 0 z "},"ĺ":{"ha":447,"x_min":14,"x_max":429,"o":"m 51 988 l 14 1036 l 231 1218 l 368 1171 l 368 1139 l 51 988 m 25 0 l 25 69 l 133 97 l 133 879 l 25 894 l 25 961 l 260 1015 l 321 1015 l 321 97 l 429 69 l 429 0 l 25 0 z "},"ľ":{"ha":508,"x_min":25,"x_max":536,"o":"m 436 735 l 379 1050 l 442 1050 l 536 1018 l 492 735 l 436 735 m 25 0 l 25 69 l 133 97 l 133 879 l 25 894 l 25 961 l 260 1015 l 321 1015 l 321 97 l 429 69 l 429 0 l 25 0 z "},"ļ":{"ha":447,"x_min":25,"x_max":429,"o":"m 25 0 l 25 69 l 133 97 l 133 879 l 25 894 l 25 961 l 260 1015 l 321 1015 l 321 97 l 429 69 l 429 0 l 25 0 m 147 -318 l 160 -61 l 285 -33 l 319 -67 l 208 -328 l 147 -318 z "},"ŀ":{"ha":447,"x_min":21,"x_max":550,"o":"m 21 0 m 21 0 l 21 69 l 129 97 l 129 879 l 21 894 l 21 961 l 256 1015 l 317 1015 l 317 97 l 425 69 l 425 0 l 21 0 m 550 579 q 521 505 550 535 q 447 475 492 475 q 371 505 401 475 q 340 579 340 535 q 371 653 340 624 q 447 683 401 683 q 521 653 492 683 q 550 579 550 624 z "},"ǉ":{"ha":906,"x_min":21,"x_max":803,"o":"m 21 0 m 21 0 l 21 69 l 129 97 l 129 879 l 21 894 l 21 961 l 256 1015 l 317 1015 l 317 97 l 425 69 l 425 0 l 21 0 m 803 897 q 769 819 803 851 q 688 786 735 786 q 604 819 640 786 q 568 897 568 851 q 604 979 568 944 q 688 1014 640 1014 q 769 979 735 1014 q 803 897 803 944 m 726 697 l 788 697 l 788 78 q 727 -159 788 -85 q 581 -233 667 -233 q 511 -223 554 -233 q 428 -193 468 -212 l 436 -128 l 499 -128 q 575 -97 550 -128 q 600 -26 600 -67 l 600 561 l 492 576 l 492 643 l 726 697 z "},"ł":{"ha":447,"x_min":-4,"x_max":471,"o":"m 25 0 l 25 69 l 133 97 l 133 413 l 40 357 l -4 435 l 133 517 l 133 879 l 25 894 l 25 961 l 260 1015 l 321 1015 l 321 628 l 426 692 l 471 614 l 321 524 l 321 97 l 429 69 l 429 0 l 25 0 z "},"m":{"ha":1275,"x_min":35,"x_max":1257,"o":"m 35 63 l 143 97 l 143 563 l 35 576 l 35 646 l 269 697 l 331 697 l 331 642 q 442 679 371 661 q 567 697 514 697 q 718 633 674 697 q 849 677 778 657 q 972 697 919 697 q 1097 663 1047 697 q 1147 553 1147 629 l 1147 97 l 1257 63 l 1257 0 l 876 0 l 876 63 l 960 97 l 960 506 q 942 569 960 553 q 871 585 924 585 q 739 568 794 585 l 739 544 l 739 97 l 822 63 l 822 0 l 468 0 l 468 63 l 551 97 l 551 506 q 544 556 551 539 q 517 578 538 572 q 457 585 497 585 q 331 568 386 585 l 331 97 l 414 63 l 414 0 l 35 0 l 35 63 z "},"n":{"ha":875,"x_min":35,"x_max":857,"o":"m 331 642 q 442 678 367 658 q 575 697 517 697 q 699 663 650 697 q 747 553 747 628 l 747 97 l 857 63 l 857 0 l 476 0 l 476 63 l 560 97 l 560 506 q 551 557 560 540 q 524 579 543 574 q 464 585 504 585 q 331 568 390 585 l 331 97 l 414 63 l 414 0 l 35 0 l 35 63 l 143 97 l 143 563 l 35 576 l 35 646 l 269 697 l 331 697 l 331 642 z "},"ń":{"ha":875,"x_min":35,"x_max":857,"o":"m 326 775 l 289 824 l 506 1014 l 643 958 l 643 926 l 326 775 m 331 642 q 442 678 367 658 q 575 697 517 697 q 699 663 650 697 q 747 553 747 628 l 747 97 l 857 63 l 857 0 l 476 0 l 476 63 l 560 97 l 560 506 q 551 557 560 540 q 524 579 543 574 q 464 585 504 585 q 331 568 390 585 l 331 97 l 414 63 l 414 0 l 35 0 l 35 63 l 143 97 l 143 563 l 35 576 l 35 646 l 269 697 l 331 697 l 331 642 z "},"ŉ":{"ha":833,"x_min":35,"x_max":857,"o":"m 35 0 m 156 735 l 99 1050 l 161 1050 l 256 1018 l 211 735 l 156 735 m 331 642 q 442 678 367 658 q 575 697 517 697 q 699 663 650 697 q 747 553 747 628 l 747 97 l 857 63 l 857 0 l 476 0 l 476 63 l 560 97 l 560 506 q 551 557 560 540 q 524 579 543 574 q 464 585 504 585 q 331 568 390 585 l 331 97 l 414 63 l 414 0 l 35 0 l 35 63 l 143 97 l 143 563 l 35 576 l 35 646 l 269 697 l 331 697 l 331 642 z "},"ň":{"ha":875,"x_min":35,"x_max":857,"o":"m 275 1017 l 436 907 l 600 1017 l 647 983 l 496 786 l 376 786 l 225 983 l 275 1017 m 331 642 q 442 678 367 658 q 575 697 517 697 q 699 663 650 697 q 747 553 747 628 l 747 97 l 857 63 l 857 0 l 476 0 l 476 63 l 560 97 l 560 506 q 551 557 560 540 q 524 579 543 574 q 464 585 504 585 q 331 568 390 585 l 331 97 l 414 63 l 414 0 l 35 0 l 35 63 l 143 97 l 143 563 l 35 576 l 35 646 l 269 697 l 331 697 l 331 642 z "},"ņ":{"ha":875,"x_min":35,"x_max":857,"o":"m 35 63 l 143 97 l 143 563 l 35 576 l 35 646 l 269 697 l 331 697 l 331 642 q 442 678 367 658 q 575 697 517 697 q 699 663 650 697 q 747 553 747 628 l 747 97 l 857 63 l 857 0 l 476 0 l 476 63 l 560 97 l 560 506 q 551 557 560 540 q 524 579 543 574 q 464 585 504 585 q 331 568 390 585 l 331 97 l 414 63 l 414 0 l 35 0 l 35 63 m 358 -318 l 371 -61 l 496 -33 l 531 -67 l 419 -328 l 358 -318 z "},"ṅ":{"ha":875,"x_min":35,"x_max":857,"o":"m 35 0 m 331 642 q 442 678 367 658 q 575 697 517 697 q 699 663 650 697 q 747 553 747 628 l 747 97 l 857 63 l 857 0 l 476 0 l 476 63 l 560 97 l 560 506 q 551 557 560 540 q 524 579 543 574 q 464 585 504 585 q 331 568 390 585 l 331 97 l 414 63 l 414 0 l 35 0 l 35 63 l 143 97 l 143 563 l 35 576 l 35 646 l 269 697 l 331 697 l 331 642 m 554 897 q 521 818 554 850 q 440 786 488 786 q 357 819 393 786 q 321 897 321 851 q 357 979 321 944 q 440 1014 393 1014 q 521 979 488 1014 q 554 897 554 944 z "},"ŋ":{"ha":850,"x_min":35,"x_max":747,"o":"m 575 697 q 699 663 650 697 q 747 553 747 628 l 747 78 q 687 -159 747 -85 q 540 -233 626 -233 q 471 -223 514 -233 q 388 -193 428 -212 l 396 -128 l 458 -128 q 535 -97 510 -128 q 560 -26 560 -67 l 560 506 q 551 557 560 540 q 524 579 543 574 q 464 585 504 585 q 331 568 390 585 l 331 97 l 414 63 l 414 0 l 35 0 l 35 63 l 143 97 l 143 563 l 35 576 l 35 646 l 269 697 l 331 697 l 331 642 q 442 678 367 658 q 575 697 517 697 z "},"ɲ":{"ha":875,"x_min":-29,"x_max":857,"o":"m 857 63 l 857 0 l 476 0 l 476 63 l 560 97 l 560 506 q 551 557 560 540 q 524 579 543 574 q 464 585 504 585 q 331 568 390 585 l 331 78 q 270 -159 331 -85 q 124 -233 210 -233 q 54 -223 97 -233 q -29 -193 11 -212 l -21 -128 l 42 -128 q 118 -97 93 -128 q 143 -26 143 -67 l 143 563 l 35 576 l 35 646 l 269 697 l 331 697 l 331 642 q 442 678 367 658 q 575 697 517 697 q 699 663 650 697 q 747 553 747 628 l 747 97 l 857 63 z "},"ǌ":{"ha":1333,"x_min":35,"x_max":1231,"o":"m 35 0 m 331 642 q 442 678 367 658 q 575 697 517 697 q 699 663 650 697 q 747 553 747 628 l 747 97 l 857 63 l 857 0 l 476 0 l 476 63 l 560 97 l 560 506 q 551 557 560 540 q 524 579 543 574 q 464 585 504 585 q 331 568 390 585 l 331 97 l 414 63 l 414 0 l 35 0 l 35 63 l 143 97 l 143 563 l 35 576 l 35 646 l 269 697 l 331 697 l 331 642 m 1231 897 q 1197 819 1231 851 q 1115 786 1163 786 q 1032 819 1068 786 q 996 897 996 851 q 1032 979 996 944 q 1115 1014 1068 1014 q 1197 979 1163 1014 q 1231 897 1231 944 m 1154 697 l 1215 697 l 1215 78 q 1155 -159 1215 -85 q 1008 -233 1094 -233 q 939 -223 982 -233 q 856 -193 896 -212 l 864 -128 l 926 -128 q 1003 -97 978 -128 q 1028 -26 1028 -67 l 1028 561 l 919 576 l 919 643 l 1154 697 z "},"ñ":{"ha":875,"x_min":35,"x_max":857,"o":"m 682 954 q 563 810 622 810 q 426 838 524 810 q 318 861 344 861 q 291 851 303 861 q 272 831 279 842 q 263 818 264 821 l 197 844 q 318 989 258 989 q 453 961 358 989 q 563 938 535 938 q 591 947 578 938 q 612 967 604 957 q 621 981 619 978 l 682 954 m 331 642 q 442 678 367 658 q 575 697 517 697 q 699 663 650 697 q 747 553 747 628 l 747 97 l 857 63 l 857 0 l 476 0 l 476 63 l 560 97 l 560 506 q 551 557 560 540 q 524 579 543 574 q 464 585 504 585 q 331 568 390 585 l 331 97 l 414 63 l 414 0 l 35 0 l 35 63 l 143 97 l 143 563 l 35 576 l 35 646 l 269 697 l 331 697 l 331 642 z "},"o":{"ha":756,"x_min":35,"x_max":721,"o":"m 375 697 q 637 599 553 697 q 721 339 721 500 q 636 85 721 183 q 375 -14 551 -14 q 119 85 203 -14 q 35 339 35 183 q 117 599 35 500 q 375 697 200 697 m 519 342 q 488 536 519 468 q 372 604 456 604 q 265 536 294 604 q 236 342 236 468 q 267 149 236 217 q 381 81 299 81 q 490 148 461 81 q 519 342 519 215 z "},"ó":{"ha":756,"x_min":35,"x_max":721,"o":"m 35 0 m 375 697 q 637 599 553 697 q 721 339 721 500 q 636 85 721 183 q 375 -14 551 -14 q 119 85 203 -14 q 35 339 35 183 q 117 599 35 500 q 375 697 200 697 m 519 342 q 488 536 519 468 q 372 604 456 604 q 265 536 294 604 q 236 342 236 468 q 267 149 236 217 q 381 81 299 81 q 490 148 461 81 q 519 342 519 215 m 265 775 l 228 824 l 444 1014 l 582 958 l 582 926 l 265 775 z "},"ŏ":{"ha":756,"x_min":35,"x_max":721,"o":"m 35 0 m 375 697 q 637 599 553 697 q 721 339 721 500 q 636 85 721 183 q 375 -14 551 -14 q 119 85 203 -14 q 35 339 35 183 q 117 599 35 500 q 375 697 200 697 m 519 342 q 488 536 519 468 q 372 604 456 604 q 265 536 294 604 q 236 342 236 468 q 267 149 236 217 q 381 81 299 81 q 490 148 461 81 q 519 342 519 215 m 368 797 q 240 847 272 797 q 208 985 208 896 l 288 988 q 306 928 288 953 q 371 903 325 903 q 467 988 467 903 l 546 985 q 368 797 546 797 z "},"ǒ":{"ha":756,"x_min":35,"x_max":721,"o":"m 35 0 m 375 697 q 637 599 553 697 q 721 339 721 500 q 636 85 721 183 q 375 -14 551 -14 q 119 85 203 -14 q 35 339 35 183 q 117 599 35 500 q 375 697 200 697 m 519 342 q 488 536 519 468 q 372 604 456 604 q 265 536 294 604 q 236 342 236 468 q 267 149 236 217 q 381 81 299 81 q 490 148 461 81 q 519 342 519 215 m 217 1017 l 378 907 l 542 1017 l 589 983 l 438 786 l 318 786 l 167 983 l 217 1017 z "},"ô":{"ha":756,"x_min":35,"x_max":721,"o":"m 543 776 l 378 894 l 217 776 l 167 818 l 319 1014 l 438 1014 l 589 818 l 543 776 m 375 697 q 637 599 553 697 q 721 339 721 500 q 636 85 721 183 q 375 -14 551 -14 q 119 85 203 -14 q 35 339 35 183 q 117 599 35 500 q 375 697 200 697 m 519 342 q 488 536 519 468 q 372 604 456 604 q 265 536 294 604 q 236 342 236 468 q 267 149 236 217 q 381 81 299 81 q 490 148 461 81 q 519 342 519 215 z "},"ố":{"ha":756,"x_min":35,"x_max":858,"o":"m 619 863 l 571 894 l 696 1153 l 842 1153 l 858 1126 l 619 863 m 543 776 l 378 894 l 217 776 l 167 818 l 319 1014 l 438 1014 l 589 818 l 543 776 m 375 697 q 637 599 553 697 q 721 339 721 500 q 636 85 721 183 q 375 -14 551 -14 q 119 85 203 -14 q 35 339 35 183 q 117 599 35 500 q 375 697 200 697 m 519 342 q 488 536 519 468 q 372 604 456 604 q 265 536 294 604 q 236 342 236 468 q 267 149 236 217 q 381 81 299 81 q 490 148 461 81 q 519 342 519 215 z "},"ộ":{"ha":756,"x_min":35,"x_max":721,"o":"m 35 0 m 375 697 q 637 599 553 697 q 721 339 721 500 q 636 85 721 183 q 375 -14 551 -14 q 119 85 203 -14 q 35 339 35 183 q 117 599 35 500 q 375 697 200 697 m 519 342 q 488 536 519 468 q 372 604 456 604 q 265 536 294 604 q 236 342 236 468 q 267 149 236 217 q 381 81 299 81 q 490 148 461 81 q 519 342 519 215 m 494 -178 q 461 -257 494 -225 q 381 -289 428 -289 q 297 -256 333 -289 q 261 -178 261 -224 q 297 -96 261 -131 q 381 -61 333 -61 q 461 -96 428 -61 q 494 -178 494 -131 m 543 776 l 378 894 l 217 776 l 167 818 l 319 1014 l 438 1014 l 589 818 l 543 776 z "},"ồ":{"ha":756,"x_min":35,"x_max":721,"o":"m 643 863 l 404 1126 l 421 1153 l 567 1153 l 692 894 l 643 863 m 529 776 l 364 894 l 203 776 l 153 818 l 306 1014 l 424 1014 l 575 818 l 529 776 m 375 697 q 637 599 553 697 q 721 339 721 500 q 636 85 721 183 q 375 -14 551 -14 q 119 85 203 -14 q 35 339 35 183 q 117 599 35 500 q 375 697 200 697 m 519 342 q 488 536 519 468 q 372 604 456 604 q 265 536 294 604 q 236 342 236 468 q 267 149 236 217 q 381 81 299 81 q 490 148 461 81 q 519 342 519 215 z "},"ổ":{"ha":756,"x_min":35,"x_max":721,"o":"m 35 0 m 375 697 q 637 599 553 697 q 721 339 721 500 q 636 85 721 183 q 375 -14 551 -14 q 119 85 203 -14 q 35 339 35 183 q 117 599 35 500 q 375 697 200 697 m 519 342 q 488 536 519 468 q 372 604 456 604 q 265 536 294 604 q 236 342 236 468 q 267 149 236 217 q 381 81 299 81 q 490 148 461 81 q 519 342 519 215 m 543 776 l 378 894 l 217 776 l 167 818 l 319 1014 l 438 1014 l 589 818 l 543 776 m 706 1078 q 600 1003 706 1019 l 592 971 l 517 971 l 511 1032 q 603 1074 603 1032 q 550 1104 603 1104 q 511 1101 539 1104 l 501 1064 l 446 1064 l 438 1138 q 565 1153 507 1153 q 669 1133 632 1153 q 706 1078 706 1114 z "},"ỗ":{"ha":756,"x_min":35,"x_max":721,"o":"m 35 0 m 375 697 q 637 599 553 697 q 721 339 721 500 q 636 85 721 183 q 375 -14 551 -14 q 119 85 203 -14 q 35 339 35 183 q 117 599 35 500 q 375 697 200 697 m 519 342 q 488 536 519 468 q 372 604 456 604 q 265 536 294 604 q 236 342 236 468 q 267 149 236 217 q 381 81 299 81 q 490 148 461 81 q 519 342 519 215 m 557 719 l 378 826 l 203 719 l 167 754 l 319 942 l 438 942 l 589 754 l 557 719 m 622 1096 q 503 951 563 951 q 367 979 464 951 q 258 1003 285 1003 q 231 993 243 1003 q 212 973 219 983 q 203 960 204 963 l 138 986 q 192 1090 160 1049 q 258 1131 225 1131 q 393 1103 299 1131 q 503 1079 475 1079 q 531 1089 518 1079 q 552 1109 544 1099 q 561 1122 560 1119 l 622 1096 z "},"ȍ":{"ha":756,"x_min":35,"x_max":721,"o":"m 35 0 m 375 697 q 637 599 553 697 q 721 339 721 500 q 636 85 721 183 q 375 -14 551 -14 q 119 85 203 -14 q 35 339 35 183 q 117 599 35 500 q 375 697 200 697 m 519 342 q 488 536 519 468 q 372 604 456 604 q 265 536 294 604 q 236 342 236 468 q 267 149 236 217 q 381 81 299 81 q 490 148 461 81 q 519 342 519 215 m 283 767 l 71 990 l 71 1021 l 199 1021 l 326 799 l 283 767 m 507 767 l 294 990 l 294 1021 l 422 1021 l 550 799 l 507 767 z "},"ö":{"ha":756,"x_min":35,"x_max":721,"o":"m 321 900 q 291 828 321 857 q 218 800 261 800 q 142 828 174 800 q 110 900 110 857 q 142 972 110 942 q 218 1001 175 1001 q 290 972 260 1001 q 321 900 321 942 m 642 900 q 611 828 642 857 q 540 800 581 800 q 465 828 496 800 q 433 900 433 857 q 465 972 433 943 q 540 1001 496 1001 q 611 972 581 1001 q 642 900 642 942 m 375 697 q 637 599 553 697 q 721 339 721 500 q 636 85 721 183 q 375 -14 551 -14 q 119 85 203 -14 q 35 339 35 183 q 117 599 35 500 q 375 697 200 697 m 519 342 q 488 536 519 468 q 372 604 456 604 q 265 536 294 604 q 236 342 236 468 q 267 149 236 217 q 381 81 299 81 q 490 148 461 81 q 519 342 519 215 z "},"ọ":{"ha":756,"x_min":35,"x_max":721,"o":"m 35 0 m 375 697 q 637 599 553 697 q 721 339 721 500 q 636 85 721 183 q 375 -14 551 -14 q 119 85 203 -14 q 35 339 35 183 q 117 599 35 500 q 375 697 200 697 m 519 342 q 488 536 519 468 q 372 604 456 604 q 265 536 294 604 q 236 342 236 468 q 267 149 236 217 q 381 81 299 81 q 490 148 461 81 q 519 342 519 215 m 494 -178 q 461 -257 494 -225 q 381 -289 428 -289 q 297 -256 333 -289 q 261 -178 261 -224 q 297 -96 261 -131 q 381 -61 333 -61 q 461 -96 428 -61 q 494 -178 494 -131 z "},"ò":{"ha":756,"x_min":35,"x_max":721,"o":"m 493 775 l 171 926 l 176 958 l 311 1014 l 525 824 l 493 775 m 375 697 q 637 599 553 697 q 721 339 721 500 q 636 85 721 183 q 375 -14 551 -14 q 119 85 203 -14 q 35 339 35 183 q 117 599 35 500 q 375 697 200 697 m 519 342 q 488 536 519 468 q 372 604 456 604 q 265 536 294 604 q 236 342 236 468 q 267 149 236 217 q 381 81 299 81 q 490 148 461 81 q 519 342 519 215 z "},"ỏ":{"ha":756,"x_min":35,"x_max":721,"o":"m 35 0 m 375 697 q 637 599 553 697 q 721 339 721 500 q 636 85 721 183 q 375 -14 551 -14 q 119 85 203 -14 q 35 339 35 183 q 117 599 35 500 q 375 697 200 697 m 519 342 q 488 536 519 468 q 372 604 456 604 q 265 536 294 604 q 236 342 236 468 q 267 149 236 217 q 381 81 299 81 q 490 148 461 81 q 519 342 519 215 m 529 864 q 424 789 529 806 l 415 757 l 340 757 l 335 818 q 426 860 426 818 q 374 890 426 890 q 335 888 363 890 l 325 850 l 269 850 l 261 924 q 389 939 331 939 q 492 919 456 939 q 529 864 529 900 z "},"ơ":{"ha":756,"x_min":35,"x_max":783,"o":"m 783 746 q 742 656 783 693 q 636 599 701 618 q 721 339 721 506 q 636 85 721 183 q 375 -14 551 -14 q 119 85 203 -14 q 35 339 35 183 q 117 599 35 500 q 375 697 200 697 q 561 657 488 697 l 569 657 q 628 672 608 657 q 647 731 647 688 q 640 788 647 757 l 649 806 l 765 825 q 778 785 774 807 q 783 746 783 763 m 381 81 q 490 148 461 81 q 519 342 519 215 q 488 536 519 468 q 372 604 456 604 q 265 536 294 604 q 236 342 236 468 q 267 149 236 217 q 381 81 299 81 z "},"ớ":{"ha":756,"x_min":35,"x_max":783,"o":"m 35 0 m 783 746 q 742 656 783 693 q 636 599 701 618 q 721 339 721 506 q 636 85 721 183 q 375 -14 551 -14 q 119 85 203 -14 q 35 339 35 183 q 117 599 35 500 q 375 697 200 697 q 561 657 488 697 l 569 657 q 628 672 608 657 q 647 731 647 688 q 640 788 647 757 l 649 806 l 765 825 q 778 785 774 807 q 783 746 783 763 m 381 81 q 490 148 461 81 q 519 342 519 215 q 488 536 519 468 q 372 604 456 604 q 265 536 294 604 q 236 342 236 468 q 267 149 236 217 q 381 81 299 81 m 265 775 l 228 824 l 444 1014 l 582 958 l 582 926 l 265 775 z "},"ợ":{"ha":756,"x_min":35,"x_max":783,"o":"m 35 0 m 783 746 q 742 656 783 693 q 636 599 701 618 q 721 339 721 506 q 636 85 721 183 q 375 -14 551 -14 q 119 85 203 -14 q 35 339 35 183 q 117 599 35 500 q 375 697 200 697 q 561 657 488 697 l 569 657 q 628 672 608 657 q 647 731 647 688 q 640 788 647 757 l 649 806 l 765 825 q 778 785 774 807 q 783 746 783 763 m 381 81 q 490 148 461 81 q 519 342 519 215 q 488 536 519 468 q 372 604 456 604 q 265 536 294 604 q 236 342 236 468 q 267 149 236 217 q 381 81 299 81 m 494 -178 q 461 -257 494 -225 q 381 -289 428 -289 q 297 -256 333 -289 q 261 -178 261 -224 q 297 -96 261 -131 q 381 -61 333 -61 q 461 -96 428 -61 q 494 -178 494 -131 z "},"ờ":{"ha":756,"x_min":35,"x_max":783,"o":"m 35 0 m 783 746 q 742 656 783 693 q 636 599 701 618 q 721 339 721 506 q 636 85 721 183 q 375 -14 551 -14 q 119 85 203 -14 q 35 339 35 183 q 117 599 35 500 q 375 697 200 697 q 561 657 488 697 l 569 657 q 628 672 608 657 q 647 731 647 688 q 640 788 647 757 l 649 806 l 765 825 q 778 785 774 807 q 783 746 783 763 m 381 81 q 490 148 461 81 q 519 342 519 215 q 488 536 519 468 q 372 604 456 604 q 265 536 294 604 q 236 342 236 468 q 267 149 236 217 q 381 81 299 81 m 467 775 l 144 926 l 150 958 l 285 1014 l 499 824 l 467 775 z "},"ở":{"ha":756,"x_min":35,"x_max":783,"o":"m 35 0 m 783 746 q 742 656 783 693 q 636 599 701 618 q 721 339 721 506 q 636 85 721 183 q 375 -14 551 -14 q 119 85 203 -14 q 35 339 35 183 q 117 599 35 500 q 375 697 200 697 q 561 657 488 697 l 569 657 q 628 672 608 657 q 647 731 647 688 q 640 788 647 757 l 649 806 l 765 825 q 778 785 774 807 q 783 746 783 763 m 381 81 q 490 148 461 81 q 519 342 519 215 q 488 536 519 468 q 372 604 456 604 q 265 536 294 604 q 236 342 236 468 q 267 149 236 217 q 381 81 299 81 m 529 864 q 424 789 529 806 l 415 757 l 340 757 l 335 818 q 426 860 426 818 q 374 890 426 890 q 335 888 363 890 l 325 850 l 269 850 l 261 924 q 389 939 331 939 q 492 919 456 939 q 529 864 529 900 z "},"ỡ":{"ha":756,"x_min":35,"x_max":783,"o":"m 35 0 m 783 746 q 742 656 783 693 q 636 599 701 618 q 721 339 721 506 q 636 85 721 183 q 375 -14 551 -14 q 119 85 203 -14 q 35 339 35 183 q 117 599 35 500 q 375 697 200 697 q 561 657 488 697 l 569 657 q 628 672 608 657 q 647 731 647 688 q 640 788 647 757 l 649 806 l 765 825 q 778 785 774 807 q 783 746 783 763 m 381 81 q 490 148 461 81 q 519 342 519 215 q 488 536 519 468 q 372 604 456 604 q 265 536 294 604 q 236 342 236 468 q 267 149 236 217 q 381 81 299 81 m 619 954 q 500 810 560 810 q 364 838 461 810 q 256 861 282 861 q 228 851 240 861 q 209 831 217 842 q 200 818 201 821 l 135 844 q 256 989 196 989 q 390 961 296 989 q 500 938 472 938 q 528 947 515 938 q 549 967 542 957 q 558 981 557 978 l 619 954 z "},"ő":{"ha":756,"x_min":35,"x_max":721,"o":"m 213 767 l 169 799 l 297 1021 l 425 1021 l 425 990 l 213 767 m 436 767 l 393 799 l 521 1021 l 649 1021 l 649 990 l 436 767 m 375 697 q 637 599 553 697 q 721 339 721 500 q 636 85 721 183 q 375 -14 551 -14 q 119 85 203 -14 q 35 339 35 183 q 117 599 35 500 q 375 697 200 697 m 519 342 q 488 536 519 468 q 372 604 456 604 q 265 536 294 604 q 236 342 236 468 q 267 149 236 217 q 381 81 299 81 q 490 148 461 81 q 519 342 519 215 z "},"ȏ":{"ha":756,"x_min":35,"x_max":721,"o":"m 35 0 m 375 697 q 637 599 553 697 q 721 339 721 500 q 636 85 721 183 q 375 -14 551 -14 q 119 85 203 -14 q 35 339 35 183 q 117 599 35 500 q 375 697 200 697 m 519 342 q 488 536 519 468 q 372 604 456 604 q 265 536 294 604 q 236 342 236 468 q 267 149 236 217 q 381 81 299 81 q 490 148 461 81 q 519 342 519 215 m 386 1001 q 514 952 482 1001 q 546 814 546 903 l 467 811 q 448 871 467 846 q 383 896 429 896 q 288 811 288 896 l 208 814 q 386 1001 208 1001 z "},"ō":{"ha":756,"x_min":35,"x_max":721,"o":"m 210 951 l 544 951 l 544 842 l 210 842 l 210 951 m 375 697 q 637 599 553 697 q 721 339 721 500 q 636 85 721 183 q 375 -14 551 -14 q 119 85 203 -14 q 35 339 35 183 q 117 599 35 500 q 375 697 200 697 m 519 342 q 488 536 519 468 q 372 604 456 604 q 265 536 294 604 q 236 342 236 468 q 267 149 236 217 q 381 81 299 81 q 490 148 461 81 q 519 342 519 215 z "},"ǫ":{"ha":756,"x_min":35,"x_max":721,"o":"m 582 -190 q 667 -160 624 -190 l 699 -190 q 680 -215 699 -193 q 627 -257 661 -237 q 546 -276 593 -276 q 438 -242 471 -276 q 404 -157 404 -208 q 422 -84 404 -124 q 476 -3 440 -44 q 375 -14 428 -14 q 119 85 203 -14 q 35 339 35 183 q 117 599 35 500 q 375 697 200 697 q 637 599 553 697 q 721 339 721 500 q 692 174 721 249 q 603 54 663 100 q 546 -31 569 24 q 522 -128 522 -86 q 582 -190 522 -190 m 381 81 q 490 148 461 81 q 519 342 519 215 q 488 536 519 468 q 372 604 456 604 q 265 536 294 604 q 236 342 236 468 q 267 149 236 217 q 381 81 299 81 z "},"ø":{"ha":756,"x_min":35,"x_max":721,"o":"m 221 14 q 81 139 126 53 q 35 339 35 225 q 117 599 35 500 q 375 697 200 697 q 439 693 410 697 l 481 821 l 578 821 l 529 671 q 674 546 628 633 q 721 339 721 458 q 636 85 721 183 q 375 -14 551 -14 q 307 -8 349 -14 l 268 -131 l 175 -131 l 221 14 m 410 600 q 372 604 393 604 q 265 536 294 604 q 236 342 236 468 q 265 151 236 214 l 410 600 m 381 81 q 490 148 461 81 q 519 342 519 215 q 486 539 519 476 l 339 86 q 381 81 356 81 z "},"ǿ":{"ha":756,"x_min":35,"x_max":721,"o":"m 35 0 m 221 14 q 81 139 126 53 q 35 339 35 225 q 117 599 35 500 q 375 697 200 697 q 439 693 410 697 l 481 821 l 578 821 l 529 671 q 674 546 628 633 q 721 339 721 458 q 636 85 721 183 q 375 -14 551 -14 q 307 -8 349 -14 l 268 -131 l 175 -131 l 221 14 m 410 600 q 372 604 393 604 q 265 536 294 604 q 236 342 236 468 q 265 151 236 214 l 410 600 m 381 81 q 490 148 461 81 q 519 342 519 215 q 486 539 519 476 l 339 86 q 381 81 356 81 m 265 775 l 228 824 l 444 1014 l 582 958 l 582 926 l 265 775 z "},"õ":{"ha":756,"x_min":35,"x_max":721,"o":"m 618 954 q 499 810 558 810 q 363 838 460 810 q 254 861 281 861 q 227 851 239 861 q 208 831 215 842 q 199 818 200 821 l 133 844 q 254 989 194 989 q 389 961 294 989 q 499 938 471 938 q 527 947 514 938 q 548 967 540 957 q 557 981 556 978 l 618 954 m 375 697 q 637 599 553 697 q 721 339 721 500 q 636 85 721 183 q 375 -14 551 -14 q 119 85 203 -14 q 35 339 35 183 q 117 599 35 500 q 375 697 200 697 m 519 342 q 488 536 519 468 q 372 604 456 604 q 265 536 294 604 q 236 342 236 468 q 267 149 236 217 q 381 81 299 81 q 490 148 461 81 q 519 342 519 215 z "},"œ":{"ha":1154,"x_min":35,"x_max":1118,"o":"m 375 -14 q 119 85 203 -14 q 35 339 35 183 q 117 599 35 500 q 375 697 200 697 q 515 669 454 697 q 615 593 576 642 q 714 672 656 646 q 839 697 772 697 q 1051 633 985 697 q 1118 431 1118 568 q 1116 384 1118 413 q 1111 339 1114 356 l 721 339 l 721 306 q 767 137 721 183 q 908 90 813 90 q 1100 124 981 90 l 1111 63 q 853 -14 1010 -14 q 749 4 800 -14 q 661 51 697 22 q 614 110 625 79 q 517 23 585 60 q 375 -14 450 -14 m 381 81 q 489 145 458 81 q 519 358 519 210 q 485 540 517 476 q 372 604 453 604 q 265 536 294 604 q 236 342 236 468 q 267 149 236 217 q 381 81 299 81 m 929 429 l 929 458 q 913 565 929 528 q 846 601 896 601 q 751 556 776 601 q 724 414 726 511 l 929 429 z "},"p":{"ha":799,"x_min":7,"x_max":764,"o":"m 24 -164 l 132 -136 l 132 567 l 7 576 l 7 646 q 206 683 96 668 q 417 697 317 697 q 623 657 547 697 q 731 538 699 617 q 764 339 764 460 q 681 92 764 183 q 446 0 599 0 q 329 22 394 0 l 347 94 q 403 88 378 88 q 507 118 472 88 q 552 203 542 149 q 563 344 563 257 q 533 531 563 458 q 417 604 504 604 q 319 592 361 604 l 319 -131 l 469 -160 l 469 -233 l 24 -233 l 24 -164 z "},"þ":{"ha":751,"x_min":-21,"x_max":717,"o":"m -21 -164 l 88 -136 l 88 879 l -21 894 l -21 961 l 211 1015 l 272 1015 l 272 693 q 369 697 319 697 q 576 657 500 697 q 684 538 651 617 q 717 339 717 460 q 634 92 717 183 q 399 0 551 0 q 282 22 347 0 l 300 94 q 356 88 332 88 q 460 118 425 88 q 505 203 494 149 q 515 344 515 257 q 486 531 515 458 q 369 604 457 604 q 272 592 314 604 l 272 -131 l 422 -160 l 422 -233 l -21 -233 l -21 -164 z "},"q":{"ha":757,"x_min":35,"x_max":764,"o":"m 764 -164 l 764 -233 l 346 -233 l 346 -164 l 482 -131 l 482 68 q 381 6 426 25 q 264 -14 336 -14 q 94 85 154 -14 q 35 339 35 185 q 108 597 35 497 q 325 697 181 697 q 521 643 424 697 l 601 688 l 665 688 l 665 -135 l 764 -164 m 478 561 q 369 604 424 604 q 271 536 306 604 q 236 360 236 468 q 267 157 236 215 q 356 99 299 99 q 424 113 392 99 q 478 151 456 126 l 478 561 z "},"r":{"ha":592,"x_min":35,"x_max":578,"o":"m 421 579 q 331 557 367 579 l 331 97 l 492 69 l 492 0 l 35 0 l 35 69 l 143 97 l 143 561 l 35 576 l 35 643 l 268 697 l 331 697 l 331 633 q 433 683 376 664 q 538 701 490 701 q 578 700 569 701 l 551 451 l 450 451 l 421 579 z "},"ŕ":{"ha":592,"x_min":35,"x_max":578,"o":"m 215 775 l 178 824 l 394 1014 l 532 958 l 532 926 l 215 775 m 421 579 q 331 557 367 579 l 331 97 l 492 69 l 492 0 l 35 0 l 35 69 l 143 97 l 143 561 l 35 576 l 35 643 l 268 697 l 331 697 l 331 633 q 433 683 376 664 q 538 701 490 701 q 578 700 569 701 l 551 451 l 450 451 l 421 579 z "},"ř":{"ha":592,"x_min":35,"x_max":578,"o":"m 150 1017 l 311 907 l 475 1017 l 522 983 l 371 786 l 251 786 l 100 983 l 150 1017 m 421 579 q 331 557 367 579 l 331 97 l 492 69 l 492 0 l 35 0 l 35 69 l 143 97 l 143 561 l 35 576 l 35 643 l 268 697 l 331 697 l 331 633 q 433 683 376 664 q 538 701 490 701 q 578 700 569 701 l 551 451 l 450 451 l 421 579 z "},"ŗ":{"ha":592,"x_min":35,"x_max":578,"o":"m 35 69 l 143 97 l 143 561 l 35 576 l 35 643 l 268 697 l 331 697 l 331 633 q 433 683 376 664 q 538 701 490 701 q 578 700 569 701 l 551 451 l 450 451 l 421 579 q 331 557 367 579 l 331 97 l 492 69 l 492 0 l 35 0 l 35 69 m 172 -318 l 185 -61 l 310 -33 l 344 -67 l 233 -328 l 172 -318 z "},"ȑ":{"ha":592,"x_min":-11,"x_max":578,"o":"m 0 0 m 421 579 q 331 557 367 579 l 331 97 l 492 69 l 492 0 l 35 0 l 35 69 l 143 97 l 143 561 l 35 576 l 35 643 l 268 697 l 331 697 l 331 633 q 433 683 376 664 q 538 701 490 701 q 578 700 569 701 l 551 451 l 450 451 l 421 579 m 201 767 l -11 990 l -11 1021 l 117 1021 l 244 799 l 201 767 m 425 767 l 213 990 l 213 1021 l 340 1021 l 468 799 l 425 767 z "},"ṛ":{"ha":592,"x_min":35,"x_max":578,"o":"m 35 0 m 421 579 q 331 557 367 579 l 331 97 l 492 69 l 492 0 l 35 0 l 35 69 l 143 97 l 143 561 l 35 576 l 35 643 l 268 697 l 331 697 l 331 633 q 433 683 376 664 q 538 701 490 701 q 578 700 569 701 l 551 451 l 450 451 l 421 579 m 354 -178 q 321 -257 354 -225 q 240 -289 288 -289 q 157 -256 193 -289 q 121 -178 121 -224 q 157 -96 121 -131 q 240 -61 193 -61 q 321 -96 288 -61 q 354 -178 354 -131 z "},"ȓ":{"ha":592,"x_min":35,"x_max":578,"o":"m 35 0 m 421 579 q 331 557 367 579 l 331 97 l 492 69 l 492 0 l 35 0 l 35 69 l 143 97 l 143 561 l 35 576 l 35 643 l 268 697 l 331 697 l 331 633 q 433 683 376 664 q 538 701 490 701 q 578 700 569 701 l 551 451 l 450 451 l 421 579 m 304 1001 q 432 952 400 1001 q 464 814 464 903 l 385 811 q 366 871 385 846 q 301 896 347 896 q 206 811 206 896 l 126 814 q 304 1001 126 1001 z "},"s":{"ha":625,"x_min":57,"x_max":578,"o":"m 328 604 q 244 584 275 604 q 214 529 214 564 q 228 481 214 500 q 279 449 243 461 l 438 399 q 544 331 510 376 q 578 203 578 286 q 501 44 578 103 q 289 -14 425 -14 q 170 -5 235 -14 q 57 21 106 4 l 74 214 l 154 214 l 183 97 q 283 81 231 81 q 419 165 419 81 q 403 210 419 196 q 343 239 388 224 l 192 290 q 92 358 125 313 q 58 478 58 403 q 126 639 58 581 q 331 697 194 697 q 442 687 385 697 q 549 657 500 676 l 529 482 l 451 482 l 424 585 q 379 599 400 594 q 328 604 358 604 z "},"ś":{"ha":633,"x_min":65,"x_max":586,"o":"m 207 775 l 169 824 l 386 1014 l 524 958 l 524 926 l 207 775 m 336 604 q 253 584 283 604 q 222 529 222 564 q 237 481 222 500 q 288 449 251 461 l 446 399 q 552 331 518 376 q 586 203 586 286 q 510 44 586 103 q 297 -14 433 -14 q 178 -5 243 -14 q 65 21 114 4 l 82 214 l 163 214 l 192 97 q 292 81 239 81 q 428 165 428 81 q 412 210 428 196 q 351 239 396 224 l 200 290 q 100 358 133 313 q 67 478 67 403 q 135 639 67 581 q 339 697 203 697 q 451 687 393 697 q 557 657 508 676 l 538 482 l 460 482 l 432 585 q 388 599 408 594 q 336 604 367 604 z "},"ꞌ":{"ha":257,"x_min":56,"x_max":257,"o":"m 126 476 l 56 489 l 72 964 l 215 996 l 257 957 l 126 476 z "},"š":{"ha":633,"x_min":65,"x_max":586,"o":"m 257 786 l 106 983 l 156 1017 l 317 907 l 481 1017 l 528 983 l 376 786 l 257 786 m 297 -14 q 178 -5 243 -14 q 65 21 114 4 l 82 214 l 163 214 l 192 97 q 292 81 239 81 q 428 165 428 81 q 412 210 428 196 q 351 239 396 224 l 200 290 q 100 358 133 313 q 67 478 67 403 q 135 639 67 581 q 339 697 203 697 q 451 687 393 697 q 557 657 508 676 l 538 482 l 460 482 l 432 585 q 388 599 408 594 q 336 604 367 604 q 253 584 283 604 q 222 529 222 564 q 237 481 222 500 q 288 449 251 461 l 446 399 q 552 331 518 376 q 586 203 586 286 q 510 44 586 103 q 297 -14 433 -14 z "},"ş":{"ha":633,"x_min":64,"x_max":585,"o":"m 267 -306 q 192 -290 224 -306 l 203 -235 q 242 -244 221 -244 q 301 -225 279 -244 q 322 -182 322 -206 q 304 -144 322 -160 q 246 -128 286 -129 l 236 -101 l 268 -12 q 160 -1 215 -10 q 64 21 106 7 l 81 214 l 161 214 l 190 97 q 290 81 238 81 q 426 165 426 81 q 410 210 426 196 q 350 239 394 224 l 199 290 q 99 358 132 313 q 65 478 65 403 q 133 639 65 581 q 338 697 201 697 q 449 687 392 697 q 556 657 507 676 l 536 482 l 458 482 l 431 585 q 386 599 407 594 q 335 604 365 604 q 251 584 282 604 q 221 529 221 564 q 235 481 221 500 q 286 449 250 461 l 444 399 q 551 331 517 376 q 585 203 585 286 q 519 53 585 110 q 333 -12 453 -4 l 318 -64 q 421 -92 386 -64 q 456 -164 456 -119 q 429 -234 456 -201 q 359 -286 403 -267 q 267 -306 315 -306 z "},"ŝ":{"ha":625,"x_min":57,"x_max":578,"o":"m 57 0 m 328 604 q 244 584 275 604 q 214 529 214 564 q 228 481 214 500 q 279 449 243 461 l 438 399 q 544 331 510 376 q 578 203 578 286 q 501 44 578 103 q 289 -14 425 -14 q 170 -5 235 -14 q 57 21 106 4 l 74 214 l 154 214 l 183 97 q 283 81 231 81 q 419 165 419 81 q 403 210 419 196 q 343 239 388 224 l 192 290 q 92 358 125 313 q 58 478 58 403 q 126 639 58 581 q 331 697 194 697 q 442 687 385 697 q 549 657 500 676 l 529 482 l 451 482 l 424 585 q 379 599 400 594 q 328 604 358 604 m 478 776 l 313 894 l 151 776 l 101 818 l 254 1014 l 372 1014 l 524 818 l 478 776 z "},"ș":{"ha":633,"x_min":64,"x_max":585,"o":"m 335 604 q 251 584 282 604 q 221 529 221 564 q 235 481 221 500 q 286 449 250 461 l 444 399 q 551 331 517 376 q 585 203 585 286 q 508 44 585 103 q 296 -14 432 -14 q 177 -5 242 -14 q 64 21 113 4 l 81 214 l 161 214 l 190 97 q 290 81 238 81 q 426 165 426 81 q 410 210 426 196 q 350 239 394 224 l 199 290 q 99 358 132 313 q 65 478 65 403 q 133 639 65 581 q 338 697 201 697 q 449 687 392 697 q 556 657 507 676 l 536 482 l 458 482 l 431 585 q 386 599 407 594 q 335 604 365 604 m 294 -328 l 233 -318 l 246 -61 l 371 -33 l 406 -67 l 294 -328 z "},"ṣ":{"ha":625,"x_min":57,"x_max":578,"o":"m 57 0 m 328 604 q 244 584 275 604 q 214 529 214 564 q 228 481 214 500 q 279 449 243 461 l 438 399 q 544 331 510 376 q 578 203 578 286 q 501 44 578 103 q 289 -14 425 -14 q 170 -5 235 -14 q 57 21 106 4 l 74 214 l 154 214 l 183 97 q 283 81 231 81 q 419 165 419 81 q 403 210 419 196 q 343 239 388 224 l 192 290 q 92 358 125 313 q 58 478 58 403 q 126 639 58 581 q 331 697 194 697 q 442 687 385 697 q 549 657 500 676 l 529 482 l 451 482 l 424 585 q 379 599 400 594 q 328 604 358 604 m 429 -178 q 396 -257 429 -225 q 315 -289 363 -289 q 232 -256 268 -289 q 196 -178 196 -224 q 232 -96 196 -131 q 315 -61 268 -61 q 396 -96 363 -61 q 429 -178 429 -131 z "},"ß":{"ha":886,"x_min":35,"x_max":865,"o":"m 613 -14 q 513 -6 553 -14 q 418 21 474 1 l 433 201 l 506 201 l 532 83 q 613 69 564 69 q 677 89 658 69 q 696 143 696 108 q 665 217 696 182 q 572 301 635 251 q 467 401 503 358 q 431 494 431 443 q 445 561 431 538 q 492 613 460 585 q 546 678 528 646 q 564 771 564 710 q 544 843 564 806 q 463 881 525 881 q 363 840 392 881 q 335 724 335 799 l 335 0 l 42 0 l 42 69 l 150 97 l 150 583 l 35 583 l 35 650 l 150 704 q 188 846 150 782 q 297 947 225 910 q 468 985 369 985 q 613 956 551 985 q 706 880 674 928 q 738 778 738 832 q 719 706 738 735 q 664 643 700 676 q 617 590 632 613 q 601 536 601 568 q 624 488 601 513 q 697 425 647 464 q 821 309 776 363 q 865 183 865 256 q 799 38 865 90 q 613 -14 733 -14 z "},"ſ":{"ha":536,"x_min":35,"x_max":613,"o":"m 42 69 l 150 97 l 150 583 l 35 583 l 35 650 l 150 704 q 233 933 150 851 q 469 1015 317 1015 q 553 1004 507 1015 q 613 982 600 993 l 586 781 l 496 781 l 471 892 q 429 900 449 900 q 352 856 369 900 q 335 724 335 813 l 338 103 l 501 76 l 501 0 l 42 0 l 42 69 z "},"t":{"ha":483,"x_min":19,"x_max":461,"o":"m 442 18 q 341 -4 399 4 q 243 -12 283 -12 q 145 17 171 -12 q 119 96 119 47 l 119 583 l 19 583 l 19 649 l 135 700 l 219 839 l 304 839 l 304 683 l 461 683 l 461 575 l 304 585 l 304 118 l 442 88 l 442 18 z "},"ŧ":{"ha":483,"x_min":19,"x_max":461,"o":"m 304 585 l 304 421 l 442 421 l 442 344 l 304 344 l 304 118 l 442 88 l 442 18 q 341 -4 399 4 q 243 -12 283 -12 q 145 17 171 -12 q 119 96 119 47 l 119 344 l 40 344 l 40 421 l 119 421 l 119 583 l 19 583 l 19 649 l 135 700 l 219 839 l 304 839 l 304 683 l 461 683 l 461 575 l 304 585 z "},"ť":{"ha":483,"x_min":28,"x_max":508,"o":"m 351 1050 l 414 1050 l 508 1018 l 464 735 l 408 735 l 351 1050 m 450 18 q 349 -4 407 4 q 251 -12 292 -12 q 153 17 179 -12 q 128 96 128 47 l 128 583 l 28 583 l 28 649 l 143 700 l 228 839 l 313 839 l 313 683 l 469 683 l 469 575 l 313 585 l 313 118 l 450 88 l 450 18 z "},"ţ":{"ha":483,"x_min":28,"x_max":469,"o":"m 224 -306 q 149 -290 181 -306 l 160 -235 q 199 -244 178 -244 q 258 -225 236 -244 q 279 -182 279 -206 q 261 -144 279 -160 q 203 -128 243 -129 l 193 -101 l 225 -11 q 148 23 168 -6 q 128 96 128 51 l 128 583 l 28 583 l 28 649 l 143 700 l 228 839 l 313 839 l 313 683 l 469 683 l 469 575 l 313 585 l 313 118 l 450 88 l 450 18 q 292 -11 378 -4 l 275 -64 q 378 -92 343 -64 q 413 -164 413 -119 q 386 -234 413 -201 q 316 -286 360 -267 q 224 -306 272 -306 z "},"ț":{"ha":483,"x_min":28,"x_max":469,"o":"m 251 -12 q 153 17 179 -12 q 128 96 128 47 l 128 583 l 28 583 l 28 649 l 143 700 l 228 839 l 313 839 l 313 683 l 469 683 l 469 575 l 313 585 l 313 118 l 450 88 l 450 18 q 349 -4 407 4 q 251 -12 292 -12 m 179 -318 l 192 -61 l 317 -33 l 351 -67 l 240 -328 l 179 -318 z "},"ṭ":{"ha":483,"x_min":19,"x_max":461,"o":"m 19 0 m 442 18 q 341 -4 399 4 q 243 -12 283 -12 q 145 17 171 -12 q 119 96 119 47 l 119 583 l 19 583 l 19 649 l 135 700 l 219 839 l 304 839 l 304 683 l 461 683 l 461 575 l 304 585 l 304 118 l 442 88 l 442 18 m 358 -178 q 325 -257 358 -225 q 244 -289 292 -289 q 161 -256 197 -289 q 125 -178 125 -224 q 161 -96 125 -131 q 244 -61 197 -61 q 325 -96 292 -61 q 358 -178 358 -131 z "},"u":{"ha":861,"x_min":22,"x_max":825,"o":"m 825 17 q 741 -2 772 3 q 674 -7 710 -7 q 583 15 624 -7 q 535 72 542 36 q 430 11 494 36 q 307 -14 365 -14 q 172 31 214 -14 q 131 146 131 76 l 131 561 l 22 576 l 22 643 l 257 697 l 318 697 l 318 194 q 338 124 318 147 q 404 100 358 100 q 467 113 432 100 q 529 146 503 126 l 529 561 l 421 576 l 421 643 l 656 697 l 717 697 l 717 115 l 825 76 l 825 17 z "},"ú":{"ha":861,"x_min":22,"x_max":825,"o":"m 303 775 l 265 824 l 482 1014 l 619 958 l 619 926 l 303 775 m 825 17 q 741 -2 772 3 q 674 -7 710 -7 q 583 15 624 -7 q 535 72 542 36 q 430 11 494 36 q 307 -14 365 -14 q 172 31 214 -14 q 131 146 131 76 l 131 561 l 22 576 l 22 643 l 257 697 l 318 697 l 318 194 q 338 124 318 147 q 404 100 358 100 q 467 113 432 100 q 529 146 503 126 l 529 561 l 421 576 l 421 643 l 656 697 l 717 697 l 717 115 l 825 76 l 825 17 z "},"ŭ":{"ha":861,"x_min":22,"x_max":825,"o":"m 22 0 m 825 17 q 741 -2 772 3 q 674 -7 710 -7 q 583 15 624 -7 q 535 72 542 36 q 430 11 494 36 q 307 -14 365 -14 q 172 31 214 -14 q 131 146 131 76 l 131 561 l 22 576 l 22 643 l 257 697 l 318 697 l 318 194 q 338 124 318 147 q 404 100 358 100 q 467 113 432 100 q 529 146 503 126 l 529 561 l 421 576 l 421 643 l 656 697 l 717 697 l 717 115 l 825 76 l 825 17 m 421 797 q 293 847 325 797 q 261 985 261 896 l 340 988 q 359 928 340 953 q 424 903 378 903 q 519 988 519 903 l 599 985 q 421 797 599 797 z "},"ǔ":{"ha":861,"x_min":22,"x_max":825,"o":"m 22 0 m 825 17 q 741 -2 772 3 q 674 -7 710 -7 q 583 15 624 -7 q 535 72 542 36 q 430 11 494 36 q 307 -14 365 -14 q 172 31 214 -14 q 131 146 131 76 l 131 561 l 22 576 l 22 643 l 257 697 l 318 697 l 318 194 q 338 124 318 147 q 404 100 358 100 q 467 113 432 100 q 529 146 503 126 l 529 561 l 421 576 l 421 643 l 656 697 l 717 697 l 717 115 l 825 76 l 825 17 m 269 1017 l 431 907 l 594 1017 l 642 983 l 490 786 l 371 786 l 219 983 l 269 1017 z "},"û":{"ha":861,"x_min":22,"x_max":825,"o":"m 576 776 l 411 894 l 250 776 l 200 818 l 353 1014 l 471 1014 l 622 818 l 576 776 m 825 17 q 741 -2 772 3 q 674 -7 710 -7 q 583 15 624 -7 q 535 72 542 36 q 430 11 494 36 q 307 -14 365 -14 q 172 31 214 -14 q 131 146 131 76 l 131 561 l 22 576 l 22 643 l 257 697 l 318 697 l 318 194 q 338 124 318 147 q 404 100 358 100 q 467 113 432 100 q 529 146 503 126 l 529 561 l 421 576 l 421 643 l 656 697 l 717 697 l 717 115 l 825 76 l 825 17 z "},"ȕ":{"ha":861,"x_min":22,"x_max":825,"o":"m 22 0 m 825 17 q 741 -2 772 3 q 674 -7 710 -7 q 583 15 624 -7 q 535 72 542 36 q 430 11 494 36 q 307 -14 365 -14 q 172 31 214 -14 q 131 146 131 76 l 131 561 l 22 576 l 22 643 l 257 697 l 318 697 l 318 194 q 338 124 318 147 q 404 100 358 100 q 467 113 432 100 q 529 146 503 126 l 529 561 l 421 576 l 421 643 l 656 697 l 717 697 l 717 115 l 825 76 l 825 17 m 336 767 l 124 990 l 124 1021 l 251 1021 l 379 799 l 336 767 m 560 767 l 347 990 l 347 1021 l 475 1021 l 603 799 l 560 767 z "},"ü":{"ha":861,"x_min":22,"x_max":825,"o":"m 357 900 q 327 828 357 857 q 254 800 297 800 q 178 828 210 800 q 146 900 146 857 q 178 972 146 942 q 254 1001 211 1001 q 326 972 296 1001 q 357 900 357 942 m 678 900 q 647 828 678 857 q 576 800 617 800 q 501 828 532 800 q 469 900 469 857 q 501 972 469 943 q 576 1001 532 1001 q 647 972 617 1001 q 678 900 678 942 m 825 17 q 741 -2 772 3 q 674 -7 710 -7 q 583 15 624 -7 q 535 72 542 36 q 430 11 494 36 q 307 -14 365 -14 q 172 31 214 -14 q 131 146 131 76 l 131 561 l 22 576 l 22 643 l 257 697 l 318 697 l 318 194 q 338 124 318 147 q 404 100 358 100 q 467 113 432 100 q 529 146 503 126 l 529 561 l 421 576 l 421 643 l 656 697 l 717 697 l 717 115 l 825 76 l 825 17 z "},"ǘ":{"ha":861,"x_min":22,"x_max":825,"o":"m 22 0 m 825 17 q 741 -2 772 3 q 674 -7 710 -7 q 583 15 624 -7 q 535 72 542 36 q 430 11 494 36 q 307 -14 365 -14 q 172 31 214 -14 q 131 146 131 76 l 131 561 l 22 576 l 22 643 l 257 697 l 318 697 l 318 194 q 338 124 318 147 q 404 100 358 100 q 467 113 432 100 q 529 146 503 126 l 529 561 l 421 576 l 421 643 l 656 697 l 717 697 l 717 115 l 825 76 l 825 17 m 375 829 q 345 758 375 786 q 272 729 315 729 q 196 758 228 729 q 164 829 164 786 q 197 901 164 871 q 272 931 229 931 q 344 901 314 931 q 375 829 375 871 m 696 829 q 665 758 696 786 q 594 729 635 729 q 519 758 550 729 q 488 829 488 786 q 519 901 488 872 q 594 931 550 931 q 665 901 635 931 q 696 829 696 871 m 381 958 l 343 1007 l 560 1189 l 697 1142 l 697 1110 l 381 958 z "},"ǚ":{"ha":861,"x_min":22,"x_max":825,"o":"m 22 0 m 825 17 q 741 -2 772 3 q 674 -7 710 -7 q 583 15 624 -7 q 535 72 542 36 q 430 11 494 36 q 307 -14 365 -14 q 172 31 214 -14 q 131 146 131 76 l 131 561 l 22 576 l 22 643 l 257 697 l 318 697 l 318 194 q 338 124 318 147 q 404 100 358 100 q 467 113 432 100 q 529 146 503 126 l 529 561 l 421 576 l 421 643 l 656 697 l 717 697 l 717 115 l 825 76 l 825 17 m 375 829 q 345 758 375 786 q 272 729 315 729 q 196 758 228 729 q 164 829 164 786 q 197 901 164 871 q 272 931 229 931 q 344 901 314 931 q 375 829 375 871 m 696 829 q 665 758 696 786 q 594 729 635 729 q 519 758 550 729 q 488 829 488 786 q 519 901 488 872 q 594 931 550 931 q 665 901 635 931 q 696 829 696 871 m 375 968 l 222 1154 l 258 1189 l 433 1082 l 613 1189 l 644 1154 l 493 968 l 375 968 z "},"ǜ":{"ha":861,"x_min":22,"x_max":825,"o":"m 22 0 m 825 17 q 741 -2 772 3 q 674 -7 710 -7 q 583 15 624 -7 q 535 72 542 36 q 430 11 494 36 q 307 -14 365 -14 q 172 31 214 -14 q 131 146 131 76 l 131 561 l 22 576 l 22 643 l 257 697 l 318 697 l 318 194 q 338 124 318 147 q 404 100 358 100 q 467 113 432 100 q 529 146 503 126 l 529 561 l 421 576 l 421 643 l 656 697 l 717 697 l 717 115 l 825 76 l 825 17 m 375 829 q 345 758 375 786 q 272 729 315 729 q 196 758 228 729 q 164 829 164 786 q 197 901 164 871 q 272 931 229 931 q 344 901 314 931 q 375 829 375 871 m 696 829 q 665 758 696 786 q 594 729 635 729 q 519 758 550 729 q 488 829 488 786 q 519 901 488 872 q 594 931 550 931 q 665 901 635 931 q 696 829 696 871 m 481 958 l 158 1110 l 164 1142 l 299 1189 l 513 1007 l 481 958 z "},"ǖ":{"ha":861,"x_min":22,"x_max":825,"o":"m 22 0 m 825 17 q 741 -2 772 3 q 674 -7 710 -7 q 583 15 624 -7 q 535 72 542 36 q 430 11 494 36 q 307 -14 365 -14 q 172 31 214 -14 q 131 146 131 76 l 131 561 l 22 576 l 22 643 l 257 697 l 318 697 l 318 194 q 338 124 318 147 q 404 100 358 100 q 467 113 432 100 q 529 146 503 126 l 529 561 l 421 576 l 421 643 l 656 697 l 717 697 l 717 115 l 825 76 l 825 17 m 375 829 q 345 758 375 786 q 272 729 315 729 q 196 758 228 729 q 164 829 164 786 q 197 901 164 871 q 272 931 229 931 q 344 901 314 931 q 375 829 375 871 m 696 829 q 665 758 696 786 q 594 729 635 729 q 519 758 550 729 q 488 829 488 786 q 519 901 488 872 q 594 931 550 931 q 665 901 635 931 q 696 829 696 871 m 265 1131 l 600 1131 l 600 1021 l 265 1021 l 265 1131 z "},"ụ":{"ha":861,"x_min":22,"x_max":825,"o":"m 22 0 m 825 17 q 741 -2 772 3 q 674 -7 710 -7 q 583 15 624 -7 q 535 72 542 36 q 430 11 494 36 q 307 -14 365 -14 q 172 31 214 -14 q 131 146 131 76 l 131 561 l 22 576 l 22 643 l 257 697 l 318 697 l 318 194 q 338 124 318 147 q 404 100 358 100 q 467 113 432 100 q 529 146 503 126 l 529 561 l 421 576 l 421 643 l 656 697 l 717 697 l 717 115 l 825 76 l 825 17 m 547 -178 q 514 -257 547 -225 q 433 -289 481 -289 q 350 -256 386 -289 q 314 -178 314 -224 q 350 -96 314 -131 q 433 -61 386 -61 q 514 -96 481 -61 q 547 -178 547 -131 z "},"ù":{"ha":861,"x_min":22,"x_max":825,"o":"m 525 775 l 203 926 l 208 958 l 343 1014 l 557 824 l 525 775 m 825 17 q 741 -2 772 3 q 674 -7 710 -7 q 583 15 624 -7 q 535 72 542 36 q 430 11 494 36 q 307 -14 365 -14 q 172 31 214 -14 q 131 146 131 76 l 131 561 l 22 576 l 22 643 l 257 697 l 318 697 l 318 194 q 338 124 318 147 q 404 100 358 100 q 467 113 432 100 q 529 146 503 126 l 529 561 l 421 576 l 421 643 l 656 697 l 717 697 l 717 115 l 825 76 l 825 17 z "}}}
